<?xml version="1.0" encoding="UTF-8"?><svg id="_レイヤー_2" xmlns="http://www.w3.org/2000/svg" viewBox="0 0 855.67 327.72"><defs><style>.cls-1{stroke-width:2.58px;}.cls-1,.cls-2,.cls-3{fill:none;}.cls-1,.cls-3{stroke:#63499b;stroke-linecap:round;stroke-linejoin:round;}.cls-4{fill:#fde8cf;}.cls-4,.cls-5,.cls-6,.cls-7,.cls-2,.cls-8,.cls-9,.cls-10,.cls-11,.cls-12,.cls-13,.cls-14,.cls-15{stroke-width:0px;}.cls-5{fill:#b88c67;}.cls-6{fill:#e83646;}.cls-7{fill:#172a88;}.cls-8{fill:#fff;}.cls-3{stroke-width:1.87px;}.cls-9{fill:#f5da4c;}.cls-10{fill:#95aab6;}.cls-11{fill:#f2ec4a;}.cls-12{fill:#e95a9a;}.cls-13{fill:#ef7c26;}.cls-14{fill:#a5a19f;}.cls-15{fill:#1180c3;}</style></defs><g id="_レイヤー_6"><rect class="cls-2" width="855.67" height="327.72"/></g><g id="_レイヤー_8"><rect class="cls-8" x="144.7" y="31.98" width="614.98" height="30.99" rx="8.06" ry="8.06"/><path class="cls-7" d="m170.49,52.4h-2.65v3.26h-3.09v-3.26h-7.96v-2.62l7.49-10.73h3.56v10.65h2.65v2.71Zm-5.74-2.71v-6.82l-4.68,6.82h4.68Z"/><path class="cls-7" d="m175.3,49.06c-.66,1.19-1.41,2.36-2.24,3.54l-1.21-2.82c1.37-1.83,2.52-3.71,3.45-5.63v-.4h-3.05v-2.52h3.05v-3.28h2.65v3.28h2.73v2.52h-2.73v.61c.55.88,1.16,1.72,1.82,2.54,1.51-2.61,2.62-5.7,3.32-9.27l2.65.44c-.23.96-.46,1.86-.7,2.69h6.41v2.6h-1.48c-.24,3.02-1,5.6-2.29,7.75.99,1.13,2.34,2.25,4.04,3.37l-1.74,2.41c-1.57-1.14-2.88-2.33-3.94-3.58-1.17,1.34-2.62,2.55-4.36,3.62l-1.78-2.35c2-1.1,3.53-2.26,4.57-3.47-.8-1.35-1.41-2.8-1.82-4.34-.42.85-.84,1.62-1.25,2.31l-.72-.89-1.08,2.39c-.59-.71-1.15-1.45-1.67-2.22v8.4h-2.65v-7.71Zm10.73-.34c.71-1.48,1.16-3.27,1.35-5.36h-2.88c.2,2.02.71,3.8,1.52,5.36Z"/><path class="cls-7" d="m201.28,39.33c-2.59,2.8-3.89,5.69-3.89,8.68s1.3,5.88,3.89,8.68l-2.66.65c-1.3-1.28-2.32-2.74-3.04-4.4-.72-1.62-1.07-3.26-1.07-4.92s.36-3.31,1.08-4.95,1.73-3.1,3.04-4.38l2.66.65Z"/><path class="cls-7" d="m205.57,49.65c-.59,1.07-1.26,2.13-2.01,3.18l-1.11-2.55c1.24-1.66,2.28-3.36,3.12-5.09v-.36h-2.72v-2.28h2.72v-2.97h2.39v2.97h2.45v2.28h-2.45v.63c.68,1.1,1.55,2.25,2.62,3.47l-1.05,2.28c-.57-.7-1.1-1.4-1.57-2.09v7.49h-2.39v-6.95Zm14.11,6.93h-2.45v-1.13h-3.62v1.13h-2.45v-16.49h8.52v16.49Zm-2.45-11.99v-2.09h-3.62v2.09h3.62Zm0,4.16v-1.95h-3.62v1.95h3.62Zm0,4.29v-2.09h-3.62v2.09h3.62Z"/><path class="cls-7" d="m239.45,51.11h-7.32v2.45c0,1.24-.18,2.03-.55,2.38s-1.13.52-2.31.52h-2.89l-.75-2.39h2.72c.47,0,.77-.06.9-.18.13-.12.19-.42.19-.89v-1.88h-7.53v-2.36h7.53v-1.74h-6.36v-2.3h6.36v-1.78c-1.74.14-3.51.25-5.32.33l-1.19-2.38c5.26-.11,9.64-.52,13.14-1.23l1.63,2.22c-1.85.33-3.71.6-5.57.8v2.03h6.13v2.3h-6.13v1.74h7.32v2.36Z"/><path class="cls-7" d="m253.1,51.18c0,1.57-.55,2.75-1.65,3.52-1,.71-2.36,1.07-4.1,1.07-1.39,0-2.55-.22-3.47-.65-1.1-.51-1.98-1.37-2.64-2.58l2.66-1.34c.85,1.42,1.95,2.13,3.27,2.13,1.03,0,1.81-.22,2.34-.67.46-.4.69-.92.69-1.57s-.28-1.14-.84-1.51-1.35-.56-2.37-.56h-2.45v-2.39h2.38c.93,0,1.65-.19,2.15-.58.46-.36.69-.82.69-1.38,0-.52-.2-.95-.61-1.28-.41-.33-1.02-.5-1.82-.5-1.42,0-2.58.62-3.49,1.86l-2.39-1.17c1.23-2.08,3.22-3.12,5.98-3.12,1.63,0,2.92.36,3.85,1.09.86.68,1.28,1.54,1.28,2.6,0,.86-.2,1.6-.6,2.23-.4.63-.94,1.06-1.6,1.27.77.19,1.4.57,1.9,1.13.57.65.86,1.45.86,2.39Z"/><path class="cls-7" d="m258.12,49.65c-.6,1.07-1.28,2.14-2.03,3.2l-1.09-2.55c1.24-1.66,2.28-3.36,3.12-5.09v-.36h-2.76v-2.28h2.76v-2.97h2.39v2.97h2.47v2.28h-2.47v.56c.5.79,1.05,1.56,1.65,2.3,1.37-2.36,2.37-5.16,3.01-8.39l2.39.4c-.2.87-.42,1.68-.63,2.43h5.8v2.36h-1.34c-.22,2.73-.91,5.07-2.07,7.01.89,1.02,2.11,2.04,3.66,3.04l-1.57,2.18c-1.42-1.03-2.6-2.11-3.56-3.24-1.06,1.21-2.38,2.3-3.95,3.28l-1.61-2.13c1.81-1,3.19-2.04,4.14-3.14-.73-1.23-1.28-2.54-1.65-3.93-.38.77-.76,1.46-1.13,2.09l-.65-.8-.98,2.16c-.54-.64-1.04-1.31-1.51-2.01v7.6h-2.39v-6.97Zm9.71-.31c.64-1.34,1.05-2.96,1.23-4.85h-2.6c.18,1.83.64,3.44,1.38,4.85Z"/><path class="cls-7" d="m285.72,51.3h-4v4.14h-2.64v-4.14h-4.06v-2.43h4.06v-3.79h2.64v3.79h4v2.43Z"/><path class="cls-7" d="m293.72,52.64c-1.57.66-3.43,1.24-5.57,1.72l-.42-2.59c.74-.1,1.49-.24,2.24-.42v-5.21h-1.92v-2.43h1.92v-4.14h2.41v4.14h1.7v2.43h-1.7v4.5c.56-.19,1.12-.42,1.69-.69v.59c.68-.6,1.28-1.23,1.82-1.88h-2.22v-1.92h12.03v1.92h-7.3c-.11.15-.28.38-.5.67h7.12v3.71c0,1.57-.13,2.55-.39,2.94-.26.39-.94.58-2.04.58h-1.36l-.54-1.93h1.13c.45,0,.72-.1.82-.31s.15-.76.15-1.67v-1.49h-.23c-.83,2.06-2,3.89-3.5,5.5l-2.09-.9c1.4-1.42,2.54-2.95,3.41-4.6h-.8c-1.14,1.8-2.5,3.38-4.08,4.73l-2.03-1.05c1.44-1.07,2.69-2.3,3.73-3.68h-.88c-.63.66-1.28,1.27-1.95,1.82l-.65-.36Zm10.78-6.55h-9.81v-6.26h9.81v6.26Zm-2.41-3.75v-.65h-4.98v.65h4.98Zm0,2.14v-.65h-4.98v.65h4.98Z"/><path class="cls-7" d="m324.18,47.79c0,2.63-.82,4.66-2.45,6.09-1.42,1.24-3.25,1.9-5.5,1.99v-2.53c1.49-.17,2.7-.67,3.62-1.51,1.07-1,1.61-2.38,1.61-4.16,0-1.12-.31-2.09-.94-2.89-.66-.87-1.6-1.44-2.81-1.7-.63,4.72-1.56,8.1-2.8,10.13-.75,1.24-1.74,1.86-2.97,1.86-1.05,0-1.98-.52-2.8-1.57-.91-1.15-1.36-2.62-1.36-4.4,0-2.41.79-4.44,2.36-6.07,1.62-1.67,3.71-2.51,6.26-2.51,2.4,0,4.31.68,5.73,2.05,1.37,1.33,2.05,3.07,2.05,5.23Zm-9.08-4.79c-1.48.23-2.67.95-3.56,2.15-.83,1.14-1.24,2.45-1.24,3.95,0,.93.2,1.74.59,2.41.34.59.68.88,1.01.88.42,0,.89-.59,1.42-1.78.77-1.76,1.36-4.3,1.78-7.6Z"/><path class="cls-7" d="m337.72,55.63h-9.52v-2.45h3.5v-9.27l-2.51,1.92-1.42-2.01,4.25-3.22h2.53v12.58h3.16v2.45Z"/><path class="cls-7" d="m343.42,49.65c-.6,1.07-1.28,2.14-2.03,3.2l-1.09-2.55c1.24-1.66,2.28-3.36,3.12-5.09v-.36h-2.76v-2.28h2.76v-2.97h2.39v2.97h2.47v2.28h-2.47v.56c.5.79,1.05,1.56,1.65,2.3,1.37-2.36,2.37-5.16,3.01-8.39l2.39.4c-.2.87-.42,1.68-.63,2.43h5.8v2.36h-1.34c-.22,2.73-.91,5.07-2.07,7.01.89,1.02,2.11,2.04,3.66,3.04l-1.57,2.18c-1.42-1.03-2.6-2.11-3.56-3.24-1.06,1.21-2.38,2.3-3.95,3.28l-1.61-2.13c1.81-1,3.19-2.04,4.14-3.14-.73-1.23-1.28-2.54-1.65-3.93-.38.77-.76,1.46-1.13,2.09l-.65-.8-.98,2.16c-.54-.64-1.04-1.31-1.51-2.01v7.6h-2.39v-6.97Zm9.71-.31c.64-1.34,1.05-2.96,1.23-4.85h-2.6c.18,1.83.64,3.44,1.38,4.85Z"/><path class="cls-7" d="m359.47,39.33l2.66-.65c1.3,1.28,2.31,2.74,3.03,4.38.71,1.64,1.07,3.29,1.07,4.95s-.35,3.3-1.05,4.92c-.73,1.66-1.74,3.13-3.05,4.4l-2.66-.65c2.59-2.8,3.89-5.69,3.89-8.68s-1.3-5.88-3.89-8.68Z"/><path class="cls-7" d="m388.1,47.01c0,2.91-.9,5.15-2.71,6.73-1.57,1.37-3.59,2.1-6.08,2.2v-2.79c1.65-.18,2.98-.74,4-1.67,1.19-1.1,1.78-2.63,1.78-4.59,0-1.24-.35-2.31-1.04-3.2-.73-.96-1.77-1.59-3.11-1.88-.69,5.22-1.72,8.95-3.09,11.2-.83,1.37-1.93,2.05-3.28,2.05-1.16,0-2.19-.58-3.09-1.74-1-1.27-1.5-2.89-1.5-4.87,0-2.67.87-4.9,2.6-6.71,1.79-1.85,4.1-2.77,6.92-2.77,2.65,0,4.76.75,6.33,2.26,1.51,1.47,2.27,3.39,2.27,5.78Zm-10.03-5.29c-1.64.25-2.95,1.04-3.94,2.37-.92,1.26-1.38,2.71-1.38,4.36,0,1.03.22,1.92.66,2.67.38.65.75.97,1.12.97.47,0,.99-.66,1.57-1.97.85-1.95,1.5-4.75,1.97-8.4Z"/><path class="cls-7" d="m406.43,50.46h-4.87v6.22h-2.9v-6.22h-4.64v1.33h-2.77v-10.71h7.41v-3.24h2.9v3.24h7.64v10.71h-2.77v-1.33Zm-12.4-2.62h4.64v-4.11h-4.64v4.11Zm7.54,0h4.87v-4.11h-4.87v4.11Z"/><path class="cls-7" d="m426.12,47.41c0,3.13-.38,5.36-1.14,6.68s-2.03,1.98-3.81,1.98c-1.12,0-2.17-.19-3.15-.57v-2.9c1.1.41,2.02.61,2.77.61.86,0,1.47-.49,1.84-1.46.35-.9.53-2.35.53-4.34,0-1.28-.15-2.12-.43-2.51-.29-.39-.9-.58-1.83-.58h-2.12c-.79,3.99-1.83,7.89-3.13,11.68h-3.32c1.55-3.6,2.73-7.49,3.54-11.68h-3.43v-2.67h3.87c.17-1.14.3-2.22.4-3.22h3.05c-.13.96-.29,2.03-.49,3.22h1.95c1.83,0,3.08.33,3.73,1,.79.79,1.19,2.38,1.19,4.76Zm5.23,1.9h-3.03c-.34-3.58-1.35-6.62-3.05-9.1h3.32c1.47,2.46,2.38,5.49,2.75,9.1Z"/><path class="cls-7" d="m451.24,49.67c0,1.98-.81,3.51-2.44,4.59-1.63,1.09-3.95,1.63-6.95,1.63-1.74,0-3.49-.12-5.25-.36v-2.79c1.92.28,3.63.42,5.14.42,1.88,0,3.39-.29,4.55-.87,1.24-.61,1.86-1.46,1.86-2.56,0-.76-.31-1.36-.93-1.8-.66-.48-1.6-.72-2.82-.72-1.64,0-3.15.36-4.55,1.08-1.13.56-2.07,1.29-2.84,2.18h-2.62l.89-8.17h2.92l-.66,4.47c1.91-1.47,4.23-2.2,6.96-2.2,2.2,0,3.9.48,5.08,1.44,1.1.9,1.65,2.12,1.65,3.66Zm-2.16-7.79c-4.15-.31-8.54-.46-13.19-.46v-2.67c4.92,0,9.32.13,13.19.38v2.75Z"/><path class="cls-7" d="m472.39,47.85l-5.25.19c-1.2.04-2.25.38-3.15,1.03-.9.64-1.35,1.34-1.35,2.11,0,1.48,1.5,2.22,4.51,2.22.89,0,2.03-.1,3.43-.3v2.86c-1.31.15-2.58.23-3.81.23-2.44,0-4.3-.46-5.59-1.38-1.13-.82-1.69-1.88-1.69-3.2s.61-2.46,1.82-3.49l-6.6.4v-2.5c.66-.07,1.38-.17,2.16-.3.75-.39,3.26-1.79,7.54-4.19h-7.24v-2.73h12.91v2.31l-7.87,4.42,10.2-.42v2.73Z"/><path class="cls-7" d="m494.49,54.69c-1.06.44-2.02.66-2.88.66-2.02,0-3.03-1.23-3.03-3.68v-6.5c0-1.54-.51-2.31-1.52-2.31-1.14,0-2.67,1.19-4.57,3.56v9.91h-2.84v-6.37c-.96,1.38-2.17,2.81-3.64,4.28v-3.96c1.57-1.81,2.78-3.39,3.64-4.76v-.85h-3.64v-2.71h3.64v-3.64h2.86v4.28c1.72-1.79,3.39-2.69,5-2.69,1.37,0,2.4.46,3.09,1.38.61.79.91,1.83.91,3.13v6.75c0,.42.04.71.13.85.11.21.35.32.7.32.4,0,1.11-.27,2.16-.83v3.2Z"/><path class="cls-7" d="m514.73,47.85l-5.25.19c-1.2.04-2.25.38-3.15,1.03-.9.64-1.35,1.34-1.35,2.11,0,1.48,1.5,2.22,4.51,2.22.89,0,2.03-.1,3.43-.3v2.86c-1.31.15-2.58.23-3.81.23-2.44,0-4.3-.46-5.59-1.38-1.13-.82-1.69-1.88-1.69-3.2s.61-2.46,1.82-3.49l-6.6.4v-2.5c.66-.07,1.38-.17,2.16-.3.75-.39,3.26-1.79,7.54-4.19h-7.24v-2.73h12.91v2.31l-.66.36h1.46v3.03h-1.84v-2.82l-6.84,3.85,10.2-.42v2.73Zm1.16-3.34h-1.84v-3.03h1.84v3.03Z"/><path class="cls-7" d="m536.82,54.69c-1.06.44-2.02.66-2.88.66-2.02,0-3.03-1.23-3.03-3.68v-6.5c0-1.54-.51-2.31-1.52-2.31-1.14,0-2.67,1.19-4.57,3.56v9.91h-2.84v-6.37c-.96,1.38-2.17,2.81-3.64,4.28v-3.96c1.57-1.81,2.78-3.39,3.64-4.76v-.85h-3.64v-2.71h3.64v-3.64h2.86v4.28c1.72-1.79,3.39-2.69,5-2.69,1.37,0,2.4.46,3.09,1.38.61.79.91,1.83.91,3.13v6.75c0,.42.04.71.13.85.11.21.35.32.7.32.4,0,1.11-.27,2.16-.83v3.2Z"/><path class="cls-7" d="m557.44,47.01c0,2.91-.9,5.15-2.71,6.73-1.57,1.37-3.59,2.1-6.08,2.2v-2.79c1.65-.18,2.98-.74,4-1.67,1.19-1.1,1.78-2.63,1.78-4.59,0-1.24-.35-2.31-1.04-3.2-.73-.96-1.77-1.59-3.11-1.88-.69,5.22-1.72,8.95-3.09,11.2-.83,1.37-1.93,2.05-3.28,2.05-1.16,0-2.19-.58-3.09-1.74-1-1.27-1.5-2.89-1.5-4.87,0-2.67.87-4.9,2.6-6.71,1.79-1.85,4.1-2.77,6.92-2.77,2.65,0,4.76.75,6.33,2.26,1.51,1.47,2.27,3.39,2.27,5.78Zm-10.03-5.29c-1.64.25-2.95,1.04-3.94,2.37-.92,1.26-1.38,2.71-1.38,4.36,0,1.03.22,1.92.66,2.67.38.65.75.97,1.12.97.47,0,.99-.66,1.57-1.97.85-1.95,1.5-4.75,1.97-8.4Z"/><path class="cls-7" d="m568.58,42.14c0,3.46-.67,6.46-2.01,9.02,1.43,1.64,3.45,2.46,6.08,2.46h6.6l-.72,2.71h-6.82c-2.77,0-4.99-.93-6.67-2.79-.96,1.26-2.12,2.41-3.47,3.45l-2.12-2.16c1.68-1.16,3.01-2.39,4-3.7-.54-1.09-.96-2.3-1.27-3.64-.38.65-.78,1.28-1.21,1.88l-1.61-2.65c1.61-2.29,2.7-5.28,3.28-9l2.73.3c-.13.79-.23,1.4-.32,1.84h3.51v2.29Zm-3.6,6.31c.71-1.69,1.06-3.68,1.06-5.97h-1.63c-.16.51-.32.99-.49,1.44.2,1.74.55,3.25,1.06,4.53Zm14.27-1.69c0,1.83-.06,3.12-.19,3.85-.13.79-.38,1.31-.76,1.57-.3.18-.85.27-1.65.27h-1.12c-.72,0-1.2-.12-1.43-.37s-.35-.77-.35-1.58v-9.14h-1.57v2.73c0,3.63-.57,6.54-1.71,8.74l-2.58-1.4c1.19-1.83,1.78-4.49,1.78-7.96v-4.78h6.6v10.48c0,.24,0,.38.02.42.04.11.15.17.32.17h.11c.23,0,.36-.18.41-.55.05-.37.07-1.38.07-3.03l2.05.57Z"/><path class="cls-7" d="m585.95,47.62c-.03,1.79-.18,3.31-.44,4.55-.37,1.64-.99,3.17-1.86,4.59l-2.67-1.63c.82-1.17,1.4-2.39,1.76-3.66.28-1.06.45-2.34.51-3.85h-2.05v-2.6h2.07v-3.96h-1.74v-2.54h10.41v2.54h-1.46v3.96h1.69v2.6h-1.69v9.02h-2.71v-9.02h-1.82Zm.02-6.56v3.96h1.8v-3.96h-1.8Zm9.5,10.54h-2.58v-12.11h2.58v12.11Zm4.28,1.8c0,1.19-.21,1.99-.62,2.42-.42.43-1.2.65-2.34.65h-2.14l-.64-2.6h1.97c.44,0,.73-.08.87-.23.1-.13.15-.39.15-.78v-14.63h2.75v15.18Z"/><path class="cls-7" d="m619.95,51.15c0,1.64-.37,2.83-1.1,3.59-.73.75-1.91,1.13-3.51,1.13h-3.81v-2.82h3.13c.78,0,1.33-.17,1.65-.5.32-.33.49-.88.49-1.64v-6.67h-5.44c-.18,3.09-1.07,5.69-2.67,7.81-1.44,1.91-3.29,3.25-5.55,4.02v-3.03c3.32-1.86,5.03-4.8,5.14-8.81h-5.14v-2.75h5.14v-3.22h3.09v3.22h8.57v9.65Z"/><path class="cls-7" d="m641.67,47.81h-17.31v-2.9h17.31v2.9Z"/><path class="cls-7" d="m662.45,49.8c-3.66-.99-7.54-1.9-11.64-2.73v9.19h-3.13v-17.95h3.13v5.76c4.92.96,8.81,1.83,11.64,2.62v3.11Zm-4.21-7.77h-1.95v-3.17h1.95v3.17Zm2.79,0h-1.93v-3.17h1.93v3.17Z"/><path class="cls-7" d="m683.96,47.54c-1.54.13-3,.35-4.38.66.14,1.04.21,2.42.21,4.13h-2.73c0-1.4-.04-2.51-.13-3.34-2.26.85-3.39,1.77-3.39,2.77,0,1.2,1.52,1.8,4.55,1.8,1.47,0,3.2-.16,5.19-.47v2.79c-1.83.23-3.57.34-5.21.34-2.36,0-4.13-.28-5.31-.85-1.47-.69-2.2-1.86-2.2-3.49,0-2.09,1.86-3.87,5.57-5.36-.25-.24-.55-.36-.89-.36-1.48,0-2.99.71-4.53,2.12-.79.76-2.13,2-4.02,3.73v-3.54c1.96-1.68,3.58-3.56,4.87-5.65h-4.3v-2.56h5.67c.25-.55.51-1.2.76-1.95h3.07c-.31.86-.56,1.51-.76,1.95h7.3v2.56h-8.59c-.32.55-.7,1.12-1.12,1.71.65-.37,1.39-.55,2.22-.55,1.44,0,2.46.55,3.05,1.65,1.71-.45,3.41-.73,5.1-.85v2.75Z"/><path class="cls-7" d="m692.17,50.22c-.76,2.29-1.76,4.39-3.01,6.31l-2.58-1.16c1.27-1.78,2.34-3.94,3.22-6.5l2.37,1.36Zm.13-4.68l-1.63,2.24c-1.23-.88-2.56-1.62-4-2.22l1.57-2.22c1.23.48,2.58,1.21,4.06,2.2Zm.55-5.19l-1.65,2.22c-1.14-.83-2.43-1.58-3.87-2.24l1.61-2.22c1.19.49,2.49,1.24,3.92,2.24Zm5.69,10.48c-.99,2.3-2.76,4.33-5.31,6.08l-2.05-1.93c1.55-1.07,2.72-2.08,3.51-3.03.83-1,1.43-2.14,1.78-3.43h-4.4v-2.6h4.74v-3.22h-3.68v-2.56h3.68v-2.24h2.82v2.24h5.14v5.78h1.55v2.6h-5.91c.56,1.29,1.34,2.44,2.33,3.47.85.89,2,1.83,3.45,2.82l-2.14,2.03c-2.51-1.76-4.35-3.77-5.5-6.01Zm1.08-8.13v3.22h2.48v-3.22h-2.48Z"/><path class="cls-7" d="m726.8,48.15c0,2.58-.84,4.59-2.52,6.01-1.57,1.33-3.67,2-6.31,2.03v-2.65c1.58-.11,2.89-.54,3.92-1.27,1.31-.95,1.97-2.32,1.97-4.13,0-2.34-1.07-3.87-3.2-4.59-1.64,7.87-4.23,11.81-7.79,11.81-1.14,0-2.12-.46-2.92-1.38-.9-1.04-1.35-2.48-1.35-4.3,0-1.45.31-2.82.92-4.1.61-1.28,1.49-2.33,2.64-3.16-.16-1.24-.27-2.46-.34-3.66h2.79c.03,1.03.06,1.82.08,2.37,1.09-.35,2.27-.53,3.54-.53h.11c.1-.75.18-1.5.23-2.24h2.94c-.1.83-.22,1.68-.36,2.54,1.85.44,3.25,1.29,4.21,2.55.96,1.26,1.44,2.83,1.44,4.69Zm-12,3.49c-.93-1.48-1.66-3.54-2.18-6.18-.93,1.1-1.4,2.43-1.4,3.98,0,.99.2,1.78.59,2.37.35.55.78.83,1.29.83.59,0,1.16-.33,1.69-1Zm3.15-8.47c-1.1,0-2.11.2-3.03.59.27,2.2.71,3.98,1.33,5.33.71-1.64,1.27-3.61,1.69-5.93Z"/><path class="cls-7" d="m747.59,49.95c0,1.95-.76,3.49-2.27,4.64-1.51,1.14-3.53,1.71-6.05,1.71-2.03,0-3.68-.35-4.93-1.04-1.33-.72-1.99-1.7-1.99-2.94,0-.82.33-1.52.99-2.09.76-.66,1.8-1,3.11-1,1.17,0,2.32.25,3.45.76.68.31,1.2.63,1.57.95v2.48c2.07-.58,3.11-1.71,3.11-3.39,0-.9-.41-1.63-1.22-2.19s-1.94-.84-3.38-.84c-1.71,0-3.17.2-4.38.59-1.59.51-3.42,1.49-5.46,2.94v-3.11l9.46-5.88h-7.49v-2.65h12.89v2.31l-5.82,3.64c.58-.14,1.24-.21,1.99-.21,1.92,0,3.47.48,4.65,1.43,1.18.95,1.77,2.25,1.77,3.88Zm-6.71,3.6c-1.68-1.31-3.17-1.97-4.49-1.97-.86,0-1.29.22-1.29.66,0,.47.44.84,1.31,1.12.76.25,1.59.38,2.5.38.66,0,1.32-.06,1.97-.19Z"/><path class="cls-11" d="m121.77,63.66c-9.07,2.38-18.35-3.04-20.74-12.11-2.38-9.07,3.04-18.35,12.11-20.74,9.07-2.38,18.35,3.04,20.74,12.11.18.67.3,1.34.4,2.01.86.29,1.79.67,2.64,1.16,2.63,1.51,3.45,2.68,3.45,2.68,0,0-2.1-.18-5.01.11-.35.03-.68.08-1.01.12-.72,6.82-5.55,12.81-12.58,14.66Z"/><path class="cls-12" d="m116.82,54.34v-3.94h-6.63v-2.6l5.48-9.23h4.66v8.97h1.74v2.86h-1.74v3.94h-3.51Zm0-9.1c0-.61.03-1.5.08-2.69.03-.4.04-.67.04-.83h-.08c-.42.97-.85,1.88-1.27,2.71l-1.8,3.11h3.03v-2.31Z"/></g><g id="_レイヤー_9"><path class="cls-13" d="m590.39,231.8c-1.28-.58-2.57-1.15-3.85-1.73-.52-.23-1.06-.47-1.63-.43-.55.04-1.04.33-1.51.62-3.76,2.29-7.51,4.58-11.27,6.87-.41.25-.85.51-1.33.55-.71.06-1.35-.37-1.94-.76-3.25-2.18-7.48-4.07-10.92-2.21,1.96,1.74,4.01,3.61,4.78,6.12.77,2.51-.37,5.79-2.93,6.36-1.03.23-2.1,0-3.14.1-1.05.11-2.2.75-2.27,1.8-.06.96.79,1.71,1.59,2.24,4.57,3.04,10.19,4.47,15.66,4,2.84-.25,1.28,6.58,1.69,9.41.49,3.3,5.16,3.43,6.3,4.47,3.56,3.27,11.65.03,16.22,1.59,3.18,1.09,8.33.22,11.48,1.39s6.71-1.81,9.7-3.36c2.77-1.43,4.79-5.5,5.27-8.58s-.65-10.59-1.65-13.54c-2.51-7.4-8.38-9.14-14.74-13.67-1.08-.77-2.21-1.49-3.47-1.88-3.64-1.14-7.57.55-11.37.18"/><path class="cls-9" d="m293.41,224.86c-6.14-.5-11.72,3.28-16.71,6.88-2.25,1.63-5.68,2.39-7.94,4.02-1.33.96-3.29,3.12-4.34,4.37-3.12,3.72-4.3,12.94-3.89,17.77.28,3.25,2.59,7,5.64,8.17,2.42.93,8.11.04,10.28-1.36,2.18-1.4,28.57-1.8,37.85-2.43,1.66-.11,3.33-.24,4.96.05,3.08.55,5.84,2.52,8.96,2.65,2.8.11,5.64-1.47,6.86-4,1.81-3.74-.14-8.24-2.73-11.49-2.59-3.25-5.91-6.07-7.41-9.95-.92-2.38-1.1-5.05-2.32-7.29-1.25-2.3-3.6-3.98-6.19-4.41-5.41-.91-11.35,3.27-16.15.62-1.44-.8-2.52-2.12-3.92-2.99-1.4-.87-3.43-1.16-4.55.05"/><path class="cls-5" d="m349.81,174.44l-18.55-4.97c.92,10.99-4.95,21.71-13.18,29.04-8.12,7.22-18.31,11.61-28.54,15.29-2.37-3.19-9.62-6.15-11.13-9.07-4.48-8.63-10.4-16.51-17.43-23.22-6.41-6.12-14.51-11.51-23.35-11.03l-13.4,15.26c-1.85,6.65-.37,13.97,3.14,19.92,3.51,5.95,8.89,10.63,14.82,14.17,7.48,4.47,15.94,7.27,24.6,8.14,3.74.38,16.83-.07,19.89-2.25.82-.58,1-.64,1.51-1.42,1.09.62,6.97-.21,8.14.24,3.91,1.5,4.48,2.51,8.67,2.51,5.61,0,10.68-2.49,15.64-5.12,4.45-2.36,8.26-3.72,12.7-6.07,2.95-1.56,6.5-1.53,8.57-4.15,1.75-2.22,4.54-7.2,5.25-9.94,2.24-8.58,3.77-18.55,2.65-27.35Z"/><path class="cls-5" d="m236.66,133.52c-1.71-2.44-4.57-3.81-7.39-4.79-1.75-.61-3.61-1.12-5.45-.84-3.37.52-7.33,5.06-8.04,8.4-.71,3.34,1.49,5.44,2.39,8.73.24.89.5,1.82.3,2.72-.15.66-.53,1.25-.93,1.8-1.97,2.77-4.32,5.25-6.98,7.37,4.68,1.24,9.62,1.81,14.38.91,4.76-.91,9.33-3.41,12.07-7.4"/><path class="cls-5" d="m334.28,130.41c1.25-3.54,4.8-6.14,8.56-6.27s7.47,2.22,8.97,5.67c1.47,3.38.85,7.32,1.85,10.87,1.18,4.15,3.3,9.42,8.93,8.52.36-.06.74.17.97.45.32.4.17,1-.07,1.46-1.04,1.95-3.47,2.39-5.51,3.24-8.14,3.4-12.56-2.56-18.11-5.9-1.29-.78-2.62-1.59-3.48-2.82s-1.13-3.02-.23-4.22"/><path class="cls-6" d="m242.82,132.71c-.6-1.84-2.97-2.62-4.84-2.08-1.87.53-3.3,2.01-4.54,3.5-2.57,3.1-4.72,6.54-6.34,10.23-.13.29-.25.6-.19.91.09.44.53.71.92.92,1.17.64,2.34,1.28,3.51,1.93.36.2.75.4,1.17.37.45-.04.82-.36,1.13-.67,1.61-1.6,2.81-3.55,4-5.47,2.33-3.79,4.67-7.58,7-11.37"/><path class="cls-6" d="m328.46,130.78c1.12-1.34,2.53-2.44,4.1-3.21.42-.21.9-.39,1.35-.24.28.09.5.3.7.51,3.4,3.39,6.32,7.25,8.65,11.45.36.64.71,1.36.58,2.08-.11.6-.53,1.09-.93,1.54-1.12,1.23-2.29,2.42-3.5,3.55-.18.17-.4.35-.64.29-.17-.04-.29-.2-.39-.35-3.49-5.19-6.98-10.37-10.47-15.56"/><path class="cls-15" d="m305,224.3c4.31-2.53,9.09-4.26,14.02-5.09-1.14-2.42-1.21-5.32-.18-7.78,6.61.38,13.22.57,19.84.59-.24,2.16-.48,4.33-.72,6.49-.08.73-.15,1.53.24,2.15.36.56,1.01.85,1.63,1.09,2.14.83,4.36,1.47,6.62,1.9.31.06.65.14.83.4.25.36.05.85-.16,1.23-1.68,3.15-3.36,6.29-5.03,9.44-.89,1.68-1.8,3.37-3,4.84-.52.64-1.09,1.23-1.71,1.77-3.3,2.88-7.99,4.1-12.28,3.19-9.17-1.95-15.29-13.18-20.1-20.22Z"/><path class="cls-15" d="m583.33,234.62c.16-.71.94-1.07,1.62-1.31,3.39-1.23,6.78-2.45,10.16-3.68-.7-.68-1.21-1.56-1.44-2.51,4.99-1.27,9.98-2.54,14.97-3.8.65-.17,1.39-.32,1.97.03.67.41.8,1.31,1.09,2.04.63,1.58,2.24,2.61,3.89,3.02s3.39.33,5.09.32c1.19,0,2.53.1,3.28,1.02.63.78.61,1.88.57,2.87-.25,5.31-.5,10.63-.75,15.94-4.01.88-8.03,1.77-12.04,2.65-6.37,1.4-13.23,1.14-18.72-2.91-2.63-1.94-10.34-10.71-9.69-13.68Z"/><path class="cls-4" d="m546.12,163.55c-3.59,7.95-6.73,16.27-7.38,24.97s1.47,17.91,7.3,24.4c3.72,4.14,8.85,7,14.33,8,7.91,1.43,16.26-.93,24.02,1.15,1.15.31,2.35.76,3.06,1.72.81,1.09,1.98,4.59,2.69,5.75.89,1.45,2.4-.54,4.1-.66.69-.05-.28-.85.1-1.38.56-.77,2.41-1.4,3.33-1.83-.55-1.63-.1-1.12.17-2.82,8.23-2.06,16.45-4.12,24.68-6.19,2.97-.74,6.01-1.52,8.52-3.26,3.14-2.17,5.12-5.6,7.01-8.92,5.25.71,10.78-1,14.72-4.54.94-.85,1.82-1.83,2.26-3.02,1.06-2.84,1.47-8.91-1.05-10.59-2.53-1.67-5.04-2.97-8.04-3.38,1.82-8.2-3.31-13.3-7.76-20.43-4.45-7.13-10.83-12.84-17.5-17.96-4.84-3.72-9.96-7.22-15.68-9.34-5.66-2.1-11.76-2.78-17.8-2.84-5.78-.06-11.64.47-17.05,2.48-5.93,2.2-9.61,5.37-12.86,10.55-3.86,6.16-8.12,11.4-11.16,18.13Z"/><path class="cls-4" d="m541.1,237.86c-.79.57-1.55,1.24-2.01,2.1-1.3,2.47.33,5.45,2.19,7.52.85.94,1.83,2.02,1.66,3.28-.08.59-.4,1.11-.67,1.63-.72,1.35-1.17,2.84-1.34,4.36-.07.6.01,1.37.58,1.58.65.23,1.21-.48,1.59-1.06,1.56-2.37,4.05-3.94,6.46-5.43.38-.23.77-.47,1.21-.5.43-.03.84.14,1.25.29,1.12.42,2.32.68,3.51.51,1.9-.28,3.47-1.65,4.65-3.17,1.62-2.1,2.73-4.73,2.41-7.35-1.19-9.87-15.97-7.76-21.48-3.76Z"/><path class="cls-4" d="m597.56,250.2c-.81-2.53-1.05-5.24-.68-7.87.15-1.09.6-2.36,1.67-2.6.91,3.07,2.36,5.99,4.26,8.57,0-2.2.6-4.41,1.72-6.31,1.14,1.99,2.12,4.07,2.94,6.22.82-1.98,2-3.82,3.45-5.4.26,1.72.52,3.44.78,5.15.14.94.39,2.03,1.25,2.43,1.01.47,2.18-.31,3.28-.18,1.77.22,2.36,2.78,1.35,4.26-3.08,4.54-16.09,3.87-20.87,1.92-3.14-1.29-11.26-11.36-6.71-13.29,1.07,1.52,1.99,3.18,3.32,4.52.51.51,4.17,2.38,4.23,2.57Z"/><path class="cls-4" d="m245.35,164.93c-4.64,9.26-2.09,18.32-1.87,28.89.07,3.25.95,6.42,2.5,9.27,2.89,5.33,5.12,10.89,10.75,13.12,5.41,2.14,11.89,1,17.67,1.67.67,3.22.3,8.46.16,11.74-.94-1.16-3.03-1.08-4.12-1.92-.65-.5-1.53-.25-1.85.51-.21.49-.21,1.06-.17,1.6.35,4.9,3.59,9.49,8.09,11.46,4.76,2.08,10.72,1.14,14.55-2.4.64-.59.99-1.43.91-2.3-.18-1.9-.95-3.83-2.42-5.04-2.21-1.81-3.74-3.66-3.19-6.47l-5.81,3.58-1.05-9.18c2.04-.03,4.07-.27,6.06-.73,1.28-.3,2.52.64,2.55,1.95l.1,4.83c2.51-.27,3.46-.28,5.7-1.45.48-.25.46-2.98.69-4.09.24-1.19-.14-.81.86-1.5s4.87-.38,6.06-.59c5.16-.92,10.51-1.94,14.84-4.89,8.1-5.52,14.68-14.44,14.68-24.63s-.74-20.7-5.71-29.35c-5.08-8.83-14.71-14.34-24.29-17.79-8.82-3.18-19.94-4.75-28.96-1.35-2.71,1.02-4.77,2.89-7.04,4.61-3.62,2.75-7.47,5.01-10.74,8.21-3.63,3.55-6.66,7.7-8.93,12.23Z"/><path class="cls-4" d="m311.78,234.94c2.11,1.32,4.35,2.44,6.68,3.35.92.36,2.21.56,2.69-.3.23-.41.16-.92.09-1.38-.48-3.03.96-6.72.48-9.75,1.6,3.57,2,7.48,4.86,10.16-.6-3.52-.44-7.16.46-10.61.86,2.98,2.15,5.83,3.81,8.44.53-2.96,1.92-5.76,3.97-7.96.85,4.1,2.21,8.47-.24,13.38,1.49-.72,3.24-.91,4.85-.53-2.11,2.43-3.6,5.4-4.28,8.54-.25,1.15-.45,2.43-1.37,3.16-.45.36-1.01.53-1.55.7-1.87.57-5.29,2.44-7.2,1.46-1.45-.74-2.54-3.64-3.53-4.9-1.76-2.25-3.56-4.45-5.21-6.79-1.21-1.72-2.81-5.85-4.5-6.96Z"/><path class="cls-8" d="m323.59,179.2c-1.92-3.35-5.65-5.46-9.48-5.9-3.84-.44-7.74.66-11.1,2.57-1.21.7-1.17,1.35-2.08,2.41-1.66,1.93-2.75,4.76-3.13,7.28-.26,1.76-1.19,3.53-.49,5.17.79,1.85,2.5,3.12,4.16,4.26,2.73,1.87,5.69,3.67,8.99,3.87,2.74.16,5.87.67,8.38-.42,1.46-.63,2.47-2.79,3.7-3.8,2.23-1.82,3.59-4.68,3.6-7.56"/><path class="cls-8" d="m275.05,176.89c-.92-.89-1.87-1.77-3-2.38-2.72-1.46-6.01-1.11-9.08-.72-1.3.17-2.62.35-3.81.9-1.36.64-2.45,1.73-3.45,2.84-1.4,1.55-2.71,3.19-3.91,4.91-1.07,1.53-2.08,3.18-2.31,5.04-.32,2.62.99,5.18,2.66,7.23,4.79,5.88,13.32,8.75,20.4,6.04,1.73-.66,3.34-1.62,4.86-2.68,1.49-1.04,2.93-2.21,3.95-3.73,3.91-5.85-2.23-13.5-6.3-17.46Z"/><path class="cls-8" d="m569.46,175.62c-3.38-2.6-8.05-3.82-12.02-2.28-4.44,1.72-7.08,6.4-8.09,11.06-.83,3.86-.77,7.97.65,11.65,1.42,3.68,4.27,6.89,7.96,8.29,5.52,2.11,12.26-.34,15.57-5.24,2.26-3.35,4.02-9.22,3.17-13.28-.78-3.74-4.28-7.94-7.23-10.21Z"/><path class="cls-8" d="m589.62,193.53c.78,1.85,1.88,3.55,3.14,5.11,1.25,1.54,2.67,2.95,4.34,4.02,3.98,2.54,9.3,2.85,13.55.79,4.76-2.31,7.87-7.28,8.82-12.48.74-4.03.27-8.34-1.68-11.95-1.95-3.61-5.45-6.43-9.47-7.2-1.49-.28-3.01-.29-4.53-.3-2.31-.01-5.36-.56-7.55.37-2.24.95-4.11,3.51-5.3,5.53-1.42,2.41-2.3,5.14-2.55,7.93-.13,1.44-.09,2.91.13,4.34.19,1.2,1.09,2.72,1.09,3.86Z"/><path class="cls-13" d="m573.35,211.32c2.99-.44,6.02.71,9.03.45,1.14-.1,2.26-.39,3.37-.69,2.06-.55,4.12-1.1,6.18-1.65,1.04-.28,2.13-.56,3.19-.36,1.06.2,2.08,1.05,2.11,2.13.04,1.21-1.09,2.1-2.13,2.71-3.44,2.01-8.43,4.16-12.52,3.88-1.82-.13-3.89-.92-5.43-1.87-.5-.31-4.22-4.53-3.81-4.59Z"/><path class="cls-14" d="m618.82,183.11c-.12,3.67-.28,7.52-2.1,10.66-1.78,3.09-4.93,5.06-8.15,6.4-2.04.85-4.2,1.49-6.4,1.43-3.2-.08-6.17-1.63-9.02-3.15,1.19,3.31,4.36,5.56,7.7,6.21,3.34.64,6.8-.13,9.95-1.43,2.63-1.09,5.21-2.64,6.76-5.11.8-1.27,1.29-2.72,1.66-4.19.93-3.63,1.18-7.63-.36-11.02"/><path class="cls-14" d="m576.11,186.53c.65,5.8-2.71,11.84-7.88,14.16-5.65,2.53-12.32.67-17.56-2.66,1.37,1.36,1.95,3.41,3.34,4.75,1.64,1.58,4.04,1.88,6.27,2.1,2.29.23,4.64.45,6.84-.2,3.77-1.11,6.48-4.58,8.2-8.24,1.5-3.19,2.42-7.01,1.02-10.25"/><path class="cls-5" d="m335.48,135.72c-1.91-2.74-4.18-5.49-7.27-6.67-2.75-2.89-5.76-5.51-9.1-7.69-5.24-3.4-11.34-5.64-17.57-5.79l.28-.15c-1.63-.3-3.25-.6-4.88-.89-3.48-.64-7.07-1.28-10.53-.53-1.38.3-2.73.87-3.91,1.68-7.57-.13-15.16,1.03-22.3,3.77-7.45,2.85-14.89,7.45-20.53,13.09-8.66,8.66-11.97,21.16-14.94,33.05-2.03,8.11-3.88,17.33.73,24.3.32.49.79.99,1.3,1.21.23,1.49.55,2.96.98,4.42.46,1.58,1.17,3.27,2.63,4.03,2.84,1.47,5.95-1.51,7.44-4.34,4.75-9.03,5.26-19.78,9.7-28.96,3.73-7.71,9.88-13.68,16.84-18.8-.78,1.72-1.65,3.38-2.91,4.77-1.23,1.36-2.78,2.4-3.97,3.8-1.19,1.39-.82,2.58-.17,4.29,3.73-1.07,5.87-2.43,9.13-4.54,3.07-1.98,6.14-3.97,9.22-5.95,1.77-1.14,3.54-2.29,5.2-3.59,2.78-2.19,6.01-3.74,7.96-6.69.82.46.83-.16,1.65.3,2.2,1.24,3.49,2.91,5.32,4.64,2.21,2.09,5.54,3.34,7.56,5.61,2.28,2.57,4.26,5.59,7.08,7.55.37.26,1.02,1.56,1.46,1.47.35-.07,1.31-1.69,1.5-1.99,1.1-1.71-.5-3.65-1.16-5.58-.26-.76-.51-1.52-.75-2.28,9.11,8.13,16.6,18.19,19.25,29.98.41,1.81,1.4,3.18,2.24,4.83.61,1.19,1.6,2.27,2.8,2.8.4,2.51.99,4.99,2.12,7.26,1.63,3.27,4.66,6.07,8.3,6.42.49.05,1.01.04,1.43-.21.62-.38.84-1.16.96-1.87,5.35-30.07-.54-44.74-13.11-62.75Z"/><path class="cls-10" d="m662.19,152.53c-2.32-9.75-8.09-18.62-15.6-24.94-7.51-6.32-15.51-9.23-24.47-11.68-4.49-1.23-7.88-1.48-12.35-1.28-.22.19-.5.32-.75.48-.07-.12-.11-.19-.21-.3-2.15-2.32-6.39-2.18-8.93-3.37-3.72-1.74-6.29-4.1-8.33-7.41-2.65-4.3-3.9-9.44-7.26-13.1-1.06-1.15-.2-3.53-2-3.49-3.81.09-7.62,4.3-8.54,7.86-1.53,5.93-.32,10.98,2.37,16.23.53,1.03,1.27,1.75,1.94,2.65-3.96-1.14-7.31-2.81-10.9-4.87-.86-.49-2.22-.19-2.34,1.1-.53,5.67,2.47,9.96,6.62,13.65-5.46-1.55-10.58-2.21-16.33-2.96-2.42-.32-5.4-.26-8.01.36s-4.8,1.99-6.08,4.44c7.33,2.2,14.67,3.89,22.27,4.86-9.46.71-16.41,4.96-22.47,12.13-2.75,3.25-6.08,5.79-7.26,10.04-1.18,4.25-.21,8.75,2.95,11.89,10.14-8.38,20.48-16.45,31-24.33,1.03-.77,2.37.27,1.92,1.48-2.14,5.77-4.53,11.4-6.19,17.37-.7,2.51,1.65,6.18,4.3,5.69,6.16-1.14,10.26-5.58,14.27-9.69,5.17-5.3,9.19-9.5,11.95-16.27-1.04,9.15.89,11.72,8.74,16.57.55.34,3.77.36,4.67.03,1.39,1.25,2.27,2.31,3.86,3.36,1.42.94,3.22,1.6,5.04,2.04,1.82.44,4.08-.26,5.92-.6,1.07,1.4,1.68,2.44,3.01,3.82,2.01,2.08,5.93,4.28,8.14,5.92,4.05,3.01,7.41,5.55,11.38,8.23,1.14.77,2.15,1.48,3.49,1.64,1.65.2,3.11-.41,4.51-1.2,3.34-1.88,6.22-4.2,8.79-7.02.68-.75,1.31-1.49,1.44-2.54.24-1.86-.72-3.38-1.82-4.88-2.38-3.24-5.27-6.24-7.56-9.56.87.12,1.77.23,2.64.34,1.38.17,2.71.36,4.11.43.51.03,1.12.12,1.57-.28.8-.72.79-1.72.52-2.83Z"/><path class="cls-3" d="m552.26,152.98c-10.33,17.02-13.51,35.54-8.81,52.54,1.25,4.51,3.59,9.14,7.77,11.56,8.54,4.56,18.65,3.34,27.92,4.91,2.54.5,5.74.52,7.83,2.2,1.36,1.34,2.22,3.22,3.17,4.85"/><path class="cls-3" d="m631.43,211.62c-7.85,4.56-16.7,7.57-25.74,8.49-2.07.3-4.35.51-6.38,1-2.71.59-2.33,2.86-1.51,4.91"/><path class="cls-3" d="m560.31,173.08c-4.09.97-7.1,1.85-9.27,5.79-2.3,4.85-3.1,11.6-1.73,16.82,2.41,6.1,8.93,10.67,15.58,9.87,2.06-.4,4.56-1.03,6.32-2.22,2.06-1.71,3.73-4.17,4.51-6.73,1.07-3.71,1.72-7.93.56-11.7-1.28-4.01-4.17-7.64-7.67-9.94-2-1.26-4.46-1.83-6.79-2.03"/><path class="cls-3" d="m550.39,197.3c.77,1.69,2.58,2.62,4.27,3.16,2.89,1.07,6.13,1.18,9.17.85,1.46-.23,3.51-.69,4.85-1.32,2.36-1.27,4.62-3.23,5.85-5.64,1-2.15,1.34-4.75,1.8-7.07"/><path class="cls-3" d="m597.98,172.28c-1.45.35-3.17.75-4.31,1.77-2.42,2-3.6,5.19-4.55,8.09-.31,1.01-.36,2.28-.55,3.31-.22.67-.34,1.62-.31,2.33.35,2.29,1.06,5.51,1.99,7.63.45,1.19,1.46,2.43,2.18,3.47,1.53,1.91,3.71,3.43,5.96,4.38,1.99.81,4.29,1.62,6.46,1.62,8.34-.39,13.41-5.84,14.68-13.87.62-3.85,0-7.94-1.95-11.33-1.17-2.1-2.62-4.22-4.59-5.64-3.78-2.59-10.13-2.19-14.57-1.97"/><path class="cls-3" d="m591.5,197.42c3.13,3.89,8.83,3.71,13.37,3.45,9.36-.52,13.79-8.12,13.94-16.81"/><path class="cls-3" d="m602.37,150.38c3.16,4.36,6.71,9.48,12.25,10.8,1.46.27,3.03-.12,4.48-.24,1.61-.16,3.23.56,4.37,1.66,2.23,2.14,4.4,4.62,6.94,6.43,2.59,2.1,5.79,3.73,8.5,5.67"/><path class="cls-3" d="m611.9,115.08c3.09-.23,5.84-.56,8.96.05,2.37.46,4.5,1.32,6.99,2.17,2.77.94,5.87,2.82,8.56,4.25,9.46,7.06,17.83,14.99,23.71,25.31,1.19,2.49,2.91,5.44.84,7.86-1.58.47-2.99.09-4.56-.33-.98-.26-2.14-.5-3.11-.84-.68-.24-1.22-.68-1.94-.77-.07.06-.16.13-.23.19,0,1.42,1.22,2.52,1.88,3.65.66,1.13,1.42,1.85,2.22,2.87,1.31,1.68,2.54,3.55,3.81,5.29.96,1.06,1.66,2.25,2.36,3.5.19,1.05.46,2.21-.14,3.19-.67,1.1-1.77,1.85-2.65,2.83-.6.66-1.47,1.1-2.13,1.77-.84.85-1.67,1.74-2.7,2.44-.32.22-.73.35-1.16.53-.62.26-1.5.87-2.08,1.17-.79.41-1.47.49-2.23.85-.07-.03-.15-.05-.23-.07-.03-.34.03-.65.13-.97-.02,0-.03,0-.05,0-.09.2-.18.4-.27.61"/><path class="cls-3" d="m640.76,187.19c.51-1.24.96-3.29,2.3-3.93.8-.74,1.91-.51,2.87-.31,2.58.55,4.92,2.22,6.6,4.23,1.04,1.21,2.17,2.63,2.82,4.09,1.78,3.9.06,7.87-3.43,10.08-1.15.62-2.76,1.38-4.02,1.75-.77.08-1.64.43-2.4.54-2.22.11-5.37.27-6.33-2.24"/><path class="cls-3" d="m556.24,185.45c-.99,1.56-2.74,3.79-1.57,5.66,1.38,2.36,5.07,1.05,5.71-1.28.59-1.83-.51-4.41-2.68-4.28-1.97.15-3.15,2.71-2.27,4.39.7.93,2.11.79,2.95.13.74-.55,1.19-1.52,1.18-2.44-.05-1.98-2.05-2.59-2.94-.7-.63,1.26.28,2.96,1.73,2.03.37-.32.73-.85.62-1.36l-.06-.06-1.09-.57c-.49.72.77,2.35.88,3.16"/><path class="cls-3" d="m595.22,184.67c-.95.92-2.15,2.05-1.92,3.5.27,1.67,2.33,2.6,3.8,1.83,1.39-.6,1.9-2.89.4-3.66-1.14-.52-2.41.83-1.91,1.95.44.87,1.7.55,2.08-.2.45-1.09-.78-1.01-1.25-.32-.57.64-.83,2.34.35,2.42,1.25-.32,1.23-2.12.47-2.93-.44-.49-1.27-.64-1.75-.13-.74.77-.46,2.1.3,2.76,1.18.85,2.3-.21,2.22-1.49-.05-1.16-.71-2.28-1.64-2.96-1.1-.76-2.21-.3-2.21,1.09-.02,2.41,2.97,3.43,3.78.9.45-1.65-1.32-3.25-2.73-1.96-.77.81-.6,2.07-.42,3.08"/><path class="cls-3" d="m250.71,210.45c.63.88,1.41,1.79,2.28,2.43.78.41,1.82,1.25,2.57,1.69,5.65,2.72,12.17,3.08,18.35,2.75"/><path class="cls-3" d="m280.69,218.67c6-.15,6.95-2.07,7.27,5.16"/><path class="cls-3" d="m330.29,195.63c-1.47,3.51-3.29,7.22-5.61,10.24-5.43,6.51-13.47,10.77-21.83,12.01-5.42.97-8.71-2.25-8.94,5.51"/><path class="cls-3" d="m289.56,139c-3.98,2.78-7.8,6.28-11.55,9.31-3.61,2.86-7.57,5.56-11.5,7.96-1.71.96-8.37,5.13-9.91,3.77-1.2-2.19,7.39-11.76,9.37-13.23-2.51,2.69-5.84,4.73-8.68,7.06-3.56,2.79-6.79,6.19-8.87,10.25-4.9,8.97-6.97,19.62-5.2,29.73,1.61,9.1,6.13,17.63,14.34,22.33"/><path class="cls-3" d="m311.16,149.03c3.84,3.59,7.66,7.56,10.68,11.86,1.67,1.86,3.08,4.24,4.39,6.36,1.95,3.18,3.2,6.91,3.82,10.58.9,5.23.71,10.72.52,16-.42,5.62-.78,12.93-4.74,17.26"/><path class="cls-3" d="m283.78,115.01c-25.13-.67-48.32,15.08-55.21,39.54-14.28,33.68.76,69.76,39.21,72.99"/><path class="cls-3" d="m297.69,115.91c43.92-.32,71.32,67.84,41.15,98.55"/><path class="cls-3" d="m324.12,251.79c-2.66-3.81-6.02-7.74-8.68-11.56-.85-1.6-2.48-3.53-3.33-5.13v-.24c.44-.16,1.17.32,1.55.48,1.02.49,2.04,1.31,2.99,1.9,1.47.6,3.53,1.85,5.1,1.01,1.57-1.94-1.73-8.69-.55-10.44.7.21,1.01,1.1,1.35,1.67.6,1.03,1.32,2.26,1.83,3.34.51.86,1.27,3.45,2.16,3.7,1.57-.48.71-7.55,1.39-9.27l.17-.04c.83,1.54,1.2,3.48,1.82,5.12.33.84.6,1.95,1.3,2.57l.21.04c.7-.32.75-1.56.99-2.22.3-1.17.68-2.58,1.02-3.74.17-.52.38-1.33.74-1.76l.22.05c1.25,2.67,1.08,5.79,1.44,8.66.02.48-.08,1.53-.14,2.02-.09.64-.36,1.84-.12,2.46l.24.17c1.04-.26,2.06-1.18,3.2-.93l.26.21c.28,1.15-.51,2.25-1.25,3.05-.43.56-1.12,1.4-1.6,1.91-1.45,2.15-1.69,5.41-3.2,7.51l-.13-.03c-.05-.18,0-.7.03-.89"/><path class="cls-3" d="m323.72,251.01c1.48,1.67,2.86,2.54,5.15,2.08.96-.18,2.05-.56,2.96-.9,1.08-.4,2.13-.84,2.65.55.84,3.05,2.21,6.48.91,9.58-1.21,2.61-4.79,4.4-7.57,3.53-2.61-.92-3.13-3.96-3.38-6.38-.35-2.51-.49-5.15-.21-7.68"/><path class="cls-3" d="m595.17,255.48c-.35-.21-1.24-.7-1.53-.97-.1-.16-.36-.44-.51-.56-.38-.23-.8-.62-1.02-1-.61-.61-1.36-1.71-1.78-2.46-.48-.58-1.1-1.46-1.42-2.15-.69-1.32-.72-4.66.74-5.47h.35c1.23.52,2.09,2.82,2.78,3.87.36.46.92.88,1.2,1.4.22.26.8.95.98,1.22.43.71.99,1.75,2,1.37.6-.41.04-1.56,0-2.12-.02-.66-.3-1.4-.38-2.05,0-.4-.07-1.94.04-2.31.12-.38.52-1.81.67-2.16.41-.78.79-2.19,1.66-2.59l.26.05c.73.91.49,2.51.76,3.6.13.5.24,1.19.3,1.7.04.38.49,1.49.63,1.86.21.43.56,1.16,1.06,1.33l.28-.03c.97-.89.81-2.52,1.21-3.68.34-.83.76-2.48,1.9-2.36.61.35.87,1.22,1.1,1.84.46,1.18.54,2.61,1.09,3.74l.19.09c1.14-1,1.71-4.2,3.18-4.81l.27.06c.52.42.71,1.26.92,1.86.26.88.54,1.94.71,2.84.1.56.17,1.36.15,1.92-.01.2.01.64.17.8,1.02.43,2.26-.19,3.32.04,1.88.76,1.15,3.74-.02,4.85-2.75,2.67-10.14,2.62-13.68,3.3-.8-.08-2.51-.13-3.22-.58-.33-.13-1-.37-1.33-.49-.42-.17-1.14-.76-1.48-1.05"/><path class="cls-3" d="m600.01,258.65c-.09.38-.2.91-.03,1.29.01.48.19,1.46.3,1.93.23,1.19.44,2.56,1.09,3.66,1.05,1.97,4.42,4.59,7.12,5.13,2.61.37,5.77-.08,7.9-1.34,1.58-1.1,2.9-2.97,3.29-4.58"/><path class="cls-3" d="m614.65,257.42c.32.83.98,2.45,1.65,3.06.42.37.83.87,1.25,1.24.21.32.58.99.75,1.33"/><path class="cls-3" d="m274.29,230.63c.29-4.58-.51-9.28.26-13.83.26-1.05.33-3.23,1.31-3.81,1.13.69,2.28,4.99,2.77,6.38.67,2.89.61,6.26,1.71,9.05l.21.16c.79-.44,1.33-1.41,2.09-1.89.9-.63,2.36-.8,3.16.07.68.95.28,2.71.26,3.8,0,.24-.1,1.24.12,1.42.9.21,2.14.05,2.92.65.58.49,1.1,1.63,1.61,2.19.28.56.13,1.55.12,2.15-.07.94-1.16,1.72-1.82,2.27-.24.23-.82.84-1.09,1.01-.38.2-.83.56-1.12.88-.66.54-1.62.53-2.42.68-.69.18-1.92.51-2.63.38-.36-.05-1.39-.12-1.72-.27-.37-.11-1.76-.89-2.14-1.06-.87-.34-1.94-.71-2.76-1.17"/><path class="cls-3" d="m273.77,230.21c-1.19-.87-2.57-1.98-4.09-2.13-1.87-.07-1.74,1.89-1.15,3.13.42.94,1.04,1.92,1.54,2.82.76,1.39,1.71,2.86,3.15,3.62"/><path class="cls-3" d="m271.88,239.56c-3.6,5.02-9.86,14.2-9.48,20.34.69,6.2,7.54,5.51,11.76,2.97,1.7-1.11,3.2-2.97,3.64-4.93,1.16-3.69,1.71-12.25,3.3-15.84"/><path class="cls-3" d="m556.61,235.82c-2.02-.29-4.42-.84-6.47-.6-.76.11-1.63.43-2.4.52-.79.23-1.78.61-2.51,1-.6.45-1.43.78-2.05,1.2-1.51,1.05-3.11,2.62-3.44,4.49-.41,2.62,2.34,3.83,2.95,6.05.27,1.78-.47,3.64-.91,5.34-.35,1.37-1.27,3.71.55,4.4,1.27.21,2.2-1.33,3.01-2.08,1.04-1.15,2.25-2.53,3.28-3.69,2.02-2.43,4.67-4.28,7.2-6.15"/><path class="cls-3" d="m560.89,238.93c3.46,3.36,1.78,9.46-2.21,11.65-2.28,1.18-5.12.2-7.11-1.16"/><path class="cls-3" d="m558.56,235.43l-.34-.57.02-.31c.94-.99,2.55-1,3.82-.89,2.05.57,4.66,1.96,6.52,2.95,2.02,1.32,3.73,3.3,4.7,5.51,1.32,3.49.05,7.82-2.74,10.24-2.51,1.98-6.48,1.94-9.26.55"/><path class="cls-3" d="m607.56,243.1c-.32-3.19-.09-6.51.85-9.58.56-1.57.93-4.39,2.55-5.16,1.8-.48,3.76.15,5.58.23,1.36.12,2.99.23,4.34.37.92.12,2.11.24,2.89.79.87.68.97,1.98,1.09,2.99.25,2.5-.41,5.05-.54,7.53-.23,1.22-.37,3.53-.39,4.79-.05.66-.27,1.67-.31,2.33-.06.43-.24,1-.3,1.42-.03.38-.12.92-.36,1.24-.08.28-2.1.29-2.31.35-.78.16-1.73.35-2.54.36"/><path class="cls-3" d="m597.36,241.28c-.15-1.09-.56-2.39-.86-3.43-.19-1.43-.82-3.13-1.17-4.51-.18-1-.41-2.14-.6-3.13-.07-.25-.8-1.97-.68-2.22.07-.38.43-.64.78-.73,0,0,1.1-.51,1.1-.51,1.65-.58,3.54-.78,5.2-1.32,5.43-1.11,9.49-4.26,12.64,2.37"/><path class="cls-3" d="m593.35,229.62c-1.61,1.58-5.09,2.03-7.04,3.07-.99.76-2.53,1.33-3.27,2.36-.35.51-.55,1.33-.09,1.83.53,1.21,1.51,2.4,2.15,3.55,1.06,1.26,2.44,2.93,3.88,3.77"/><path class="cls-3" d="m332.7,219.14c2.05.62,4.25,1.81,6.16,2.76,1.42.54,3.44,1.28,4.91,1.71,1.18.42,2.24,1.45,2.68,2.62.23,1.08-.92,2.5-1.35,3.45-1.2,2.06-2.55,4.32-3.7,6.42-.81,1.13-1.41,2.6-1.98,3.85"/><path class="cls-3" d="m331.93,218.6c-1.35,3.12-2.91,6.28-4.37,9.34"/><path class="cls-3" d="m312.26,235.23c-.58-1.32-1.89-2.91-2.57-4.17-.42-.42-1.12-1.39-1.42-1.91-.43-.51-1.18-1.6-1.51-2.17-.11-.23-1.4-1.77-1.29-2.04.23-.49.86-.71,1.35-.86,1.41-.66,3.28-1.33,4.61-2.15.58-.42,2.08-1.24,2.73-1.58.38-.3.97-.63,1.43-.79.84-.46,2.31-1.42,3.26-.97.15.07.77.24.89.34.41.42.73,1.16.9,1.71,1.47,3.02,3,6.3,5.39,8.71"/><path class="cls-3" d="m319.23,218c-.05-.32-.38-1.21-.38-1.52.1-1.12.07-2.51.15-3.63.07-.62.71-.97,1.29-.9,1.03.13,2.51.32,3.54.25.99-.08,4.3.41,5.32.57.53.07,1.41.02,1.93.15,1.9.25,3.96-.06,5.86.16,1.93.36,2.15.39,2.11,2.45.11.76-.12,1.76-.07,2.52-.11.37-.27,1.44-.28,1.81-.05.33-.25.75-.31,1.07l.04.11.21-.06"/><path class="cls-3" d="m608.36,114.63c-3-.51-6.2-1.27-8.78-2.94-5.01-3.63-8.37-9.12-11.25-14.49-1.16-2.11-2.09-4.61-3.28-6.7-.68-.77-1.49-2.52-2.69-2.47-.2.1-.98.52-1.22.59-.56.29-1.37.94-1.92,1.24-.8.66-1.68,1.67-2.32,2.49-1.81,2.58-3.52,5.61-3.77,8.81-.22,2.85.58,5.74,1.95,8.22.99,2.04,2.6,4.15,4.25,5.7,2.15,2.16,6.62,4.09,9.62,4.53"/><path class="cls-3" d="m588.4,120.36c-3.77-.9-7.94-2.16-11.3-4.16-.46-.28-1.69-1.01-2.08-1.36-.48-.48-1.22-1.04-1.79-1.41-1.51-1.37-3.92-2.3-5.57-3.45-.32-.34-.8-.76-1.2-1.01-.32-.21-.63-.69-1.03-.73-.45.07-.7.42-.79.85-.69,1.28-.72,3-.61,4.42.55,3.51,2.38,5.31,5.44,6.88"/><path class="cls-3" d="m569.07,124.63c-1.77-1.14-3.98-2.63-6.05-3.13-.92-.1-2.11-.16-3.02-.41-1.27-.21-3.06-.45-4.34-.52-1.63-.01-5.09.47-6.74.62-.38.06-1.99.21-2.33.38-1.76.79-4.9,2.16-6.37,3.41l-.06.26c.65,1.05,3.05,1.57,4.1,2,1.11.49,3.6,1.51,4.76,1.77,1.38.39,3.5.58,4.9.88.87.08,2.73.33,3.58.53.57.14,4.09.25,4.73.29-2.88.13-6.99,2.18-9.69,3.14-1.54.78-3.35,1.68-4.67,2.82-2.73,1.95-5.53,4.34-7.67,6.92-3.07,3.69-6.25,7.83-6.77,12.76-.34,2.54-.43,5.6,1.51,7.54,2.6,2.36,2.77.08,4.37-1.72,1.47-1.83,3.38-3.46,5.25-4.86,6.02-4.51,12.64-8.6,18.84-12.86,1.15-.68,5.11-4,6.07-3.66l.12.21c0,.77-.5,1.66-.8,2.35-.45.93-1.08,2.2-1.54,3.12-1.76,3.83-3.7,7.88-3.77,12.18,0,1.37-.18,3.2.34,4.51,1.15,2.7,4.5,2.16,6.75,1.36,2.26-.9,3.9-3.07,5.75-4.57,1.54-1.25,3.32-2.6,4.72-4,1.21-.93,2.78-2.03,3.85-3.12,2.65-2.78,5.12-6.13,6.84-9.58.77-1.74,2.21-4.06,2.32-5.98-.64.8-.61,2.13-.74,3.11-.46,4.45,1.72,8.81,4.29,12.31,1.83,2.34,4.48,3.03,7.27,3.5"/><path class="cls-3" d="m585.27,228.96c2.98,2.66,5.57,1.94,8.97.67"/><path class="cls-3" d="m585.05,229.06c-4.44,2.21-8.95,4.61-12.59,8.03"/><path class="cls-3" d="m331.02,130.28c.05-.25.1-.92.29-1.11.45-.28,1.18-.82,1.69-.98.39-.1.93-.16,1.31.02.83.67,1.64,2.26,2.33,3.06,1.11,1.18,2.22,2.81,3.27,4.03.33.24.71.65.92,1,.57.59,1.27,1.64,1.68,2.36.67.84,1.55,2.16,1.88,3.19l-.05.32c-.74.81-1.8,1.79-2.77,2.3"/><path class="cls-3" d="m335.4,127.85c.48-.35,1.57-1.48,2.06-1.77.41-.18,1.19-.59,1.61-.73,1.59-.41,3.69-.69,5.33-.66,1.62.31,3.42,1.13,4.79,2.03,1.65,1.37,2.97,3.65,3.69,5.65.08.78.5,2.12.57,2.91.2,1.88.1,5.02.37,6.89.62,3.46,1.13,4.69,3.86,6.97.61.43,1.46.73,2.19.85,1.29.45,3.06.54,4.42.57"/><path class="cls-3" d="m344.82,150.16c2.57,7.72,15.35,6.43,18.25,1.22"/><path class="cls-3" d="m239.47,131.83c-1.15-.45-3-1.59-4.05-.46-.21.16-1.35,2.3-1.52,2.57-.83,1.11-1.67,2.81-2.47,3.94-.16.29-1.15,2.37-1.37,2.56-.6.58-1.2,1.77-1.71,2.44-.31.7-1.06,1.2-1.24,1.96-.1.72.19,1.58.64,2.14.41.46.98.51,1.55.43"/><path class="cls-3" d="m234.13,130.62c-1.16-.99-3.24-1.63-4.47-2.53-.4-.13-1.53-.72-1.94-.72-1.11-.08-2.54-.2-3.64,0-1.48.44-3.18,1.07-4.27,2.2-1.56.97-2.88,2.47-3.64,4.15-.4,1.31-.43,3.13-.45,4.49.38,2.12,1.33,4.98,2.18,6.96.7,1.39,1.72,3.33,1.7,4.92"/><path class="cls-3" d="m218.56,146.97c-.09.19-1.96,4.34-1.99,4.35-.49.8-1.3,1.69-1.93,2.39-1.05.86-2.39,1.85-3.45,2.69l-.04.22c1.11,1.08,3.32,1.76,4.84,1.96,1.65.47,4.07.42,5.77.36.33,0,.98-.1,1.28-.24.5-.38,1.32-.76,1.91-1.01"/><path class="cls-3" d="m289.64,139.54c7.42,6.24,16.23,10.65,21.12,19.44,4.99.61,1.98-9.01-.72-10.32"/><path class="cls-3" d="m283.71,204.56c-.24.46-.72,1.19-.56,1.73.29,1.02,1.1,1.92,2.05,2.39.62.4,1.58.13,2.23-.06,1.05-.38,2.08-1.18,2.95-1.86l.24.04c.32.4.86,1.13,1.37,1.3.9.3,2.15.33,3.09.27,1.82-.45,1.92-2.25,1.98-3.81"/><path class="cls-3" d="m551.55,167.66c.5-1.47,1.34-2.54,2.88-2.98,1.4-.27,3.03-.39,4.37.2"/><path class="cls-3" d="m595,161.02c.38-.39,1.32-1.46,1.81-1.69,1.09-.13,2.46-.45,3.57-.38,1.6.04,3.34.38,4.67,1.3.28.22,1.08.79,1.39.96.28.2.71.8.89,1.09"/><path class="cls-3" d="m249.29,190.29c.18-1.82,1.02-4.46,2-6.28,1.26-2.34,2.52-3.94,4.46-5.8,4.42-4.23,11.53-5.37,17.03-2.67,5.31,2.81,9.61,9.64,9.61,15.9"/><path class="cls-3" d="m249.29,190.29c1.48,5.09,6.26,9.28,11.13,10.76,6.12,1.77,13.37.89,18.3-3.36,1.85-1.6,2.97-3.94,3.68-6.24"/><path class="cls-3" d="m252.55,173.34c.67,1.6,1.48,3.39,2.25,4.94"/><path class="cls-3" d="m260.82,169.71c.29,1.07.61,2.29.9,3.36"/><path class="cls-3" d="m269.24,170c.06.81.16,2.84.24,3.65"/><path class="cls-3" d="m296.89,189.1c.64-3.5.72-6.98,4.05-10.81,3.06-3.52,6.23-4.25,8.66-4.84,5.12-1.23,8.98.07,12.37,2.93,2.93,2.47,4.75,7.97,5.01,12.72"/><path class="cls-3" d="m296.96,189.88c1.94,7,10.02,10.14,16.72,10.01,6.63-.45,11.92-6.02,13.3-10.79"/><line class="cls-3" x1="305" y1="171.39" x2="305.88" y2="174.5"/><path class="cls-3" d="m313.61,169.7c.15,1.08-.38,2.29-.23,3.38"/><path class="cls-3" d="m321.25,171.77c-.21.87-.44,1.86-.62,2.73"/><path class="cls-3" d="m270.19,184.01c-.19.38-.72,1.32-.83,1.71-.01.19-.09.56-.15.75-.41.93-.35,2.36-.42,3.36-.02.55-.02,1.66.02,2.21.18.73.7,1.77,1.22,2.31.78.87,2.29,1.42,3.02.19.44-.62.37-1.67.43-2.39.05-1.13,0-2.7-.24-3.81,0-.63-.38-1.81-.55-2.41-.22-.52-.35-1.48-.89-1.77-2.48-.16-2.11,4.08-2.2,5.72.13.8.66,3.74,1.71,3.57l.22-.12c.21-.43.55-1.12.56-1.61.21-.58.34-1.45.34-2.07-.01-.93.28-4.71-.91-4.87l-.23.06c-.41.49-.62,1.43-.68,2.06-.06.41-.25.94-.28,1.36-.03.96-.15,2.55,0,3.5.22.66.39,2.14,1.39,1.86.83-1.01.77-2.78.57-4.01-.08-.7-.07-1.76-.77-2.16h-.19c-.46.26-.57,3.2-.25,3.57l.24.02c.18-.04.43-.36.53-.5"/><path class="cls-3" d="m313.05,184.63c-.13.18-.42.59-.46.81,0,.16-.03.48-.07.64-.34,1.35-.13,3.25.22,4.59.38.94.81,2.12,1.8,2.55,1.24.69,1.82-1.08,2.16-1.96.29-1.11.31-3.04.38-4.19.03-.64-.04-1.56-.29-2.15-.63-2.07-2.44-3.32-3.06-.45-.4,1-.36,2.4-.38,3.46.02,1.18.11,3.31,1.71,3.27l.28-.14c.71-1.06.51-2.75.52-3.96-.16-.81-.4-2.23-1.26-2.59-1.41-.17-.98,3.74-.88,4.61,0,.78.15,1.9.99,2.2l.33-.05.22-.18c.1-.31.43-1.19.44-1.5.03-.31,0-1.24-.02-1.56-.11-.59-.27-1.55-.67-2.01-.29.12-.3.73-.37.98-.06.82-.36,2.04-.09,2.83l.1.07c.22-.2.13-.8.15-1.06-.06-1.08-.23-2.47-1.02-3.26l-.25.02c-.31.18-.3.8-.38,1.11.04.42.46.63.85.56l.07.07-.34.24"/><path class="cls-3" d="m257.43,204.27c-.33.56.09,1.19.28,1.7"/><path class="cls-3" d="m260.54,204.55c.01.34.04.87.19,1.18.06.23.09.84.09,1.08"/><path class="cls-3" d="m317.32,203.14c.01.51.06.88.57,1.13"/><line class="cls-3" x1="320.43" y1="201.72" x2="320.43" y2="203.14"/><path class="cls-3" d="m639.34,201.14c.07,1.47-.95,3.14-1.58,4.41-.37.5-1.33,1.81-1.58,2.37"/><path class="cls-3" d="m286.11,226.51c-.43-.87.31-1.36,1.1-1.48.26-.08.82-.28,1.08-.3,1.16-.05,2.69-.43,3.85-.4,1.62-.02,3.61-.11,5.13.51.96.62,1.34,2.31,2.4,2.82,1.12.68,2.64,1.54,3.96,1.73.9.41,2.08.73,3.04.29"/><path class="cls-3" d="m269.97,234.73c-3.14,2.51-5.87,5.85-7.59,9.49"/><path class="cls-3" d="m203.02,216.13c.27.62.56,1.52.54,2.2.25,1.1,1.14,3.82,1.42,4.96.2,1.47.71,3.61,1.2,5.04.25.63.47,1.61,1.05,2.02.76.19,1.17-.32,1.6-.84"/><path class="cls-3" d="m210,216.13c2.42-.69,5.14-1.8,7.7-1.61l.43.26v.77"/><path class="cls-3" d="m212.91,224.27c2.96-.62,6.87-2.22,9.88-2.33"/><path class="cls-3" d="m216.39,232.99c1.47-.83,3.75-2.54,5.39-2.94.47-.09,2.52-.78,2.96-.48,1.49.62,1.36,2.66,1.54,4"/><line class="cls-3" x1="222.79" y1="227.18" x2="223.95" y2="231.25"/><path class="cls-3" d="m218.14,227.18c.26.79.95,2.95,1.32,3.65.22.24.58.79.74,1.07.81,1.68,1.83,3.84,3.18,5.16"/><path class="cls-3" d="m222.79,245.2c1.43.09,2.99-.15,3.88,1.26.26.48.09,1.19.13,1.71.05.48.11,2.46.4,2.85.65.72,1.13,1.91,1.67,2.72.75.83,1.89,1.67,2.65,2.51"/><path class="cls-3" d="m670.43,197.52c-1.78,3.08-3.84,6.54-3.92,10.2-.06.83-.08,1.96-.04,2.79,0,0,.27.74.27.74l.78.81"/><path class="cls-3" d="m676.83,202.17c1.27-.54,2.14-.05,3.33.33.89.3,2.2.83,2.82,1.55l.15.61-.48,1"/><path class="cls-3" d="m675.08,206.24c2.37.22,5.88.97,8.14,1.74"/><path class="cls-3" d="m678.57,205.08c-.04,1.09.08,3.82-.19,4.84-.41,1.13-.79,2.6-1.69,3.45-1.49,1.18-4.2.76-3.23-1.6,1.18-.98,3.66-.17,4.57.92.26.23.83.63,1.13.8.36.27.92,1.09,1.15,1.48"/><path class="cls-3" d="m665.2,221.94c-.32,2.33-.85,5.17.4,7.32l.45.14.9-.49"/><path class="cls-3" d="m671.59,220.78c.88.12,3.17.42,4.02.5.9-.03,2.13.35,2.96.66"/><path class="cls-3" d="m671.01,224.27c.88.12,3.17.42,4.02.5.9-.03,2.13.35,2.96.66"/><path class="cls-3" d="m675.02,223.94c-.74,1.37-.39,4.4-.72,5.88-.29,1.12-.84,3.37-2.41,2.81-.47-.42-.43-1.23-.13-1.74,1.35-1.07,3.05.28,3.91,1.37.24.24.77.66,1.06.84.34.28.87,1.08,1.09,1.45"/><path class="cls-3" d="m582.62,217.87c-2.99.13-6.04-1.33-8.08-3.48-.31-.42-.94-.99-1.25-1.41-.09-.28-.74-1.19-.59-1.5.59-.56,1.83-.27,2.56-.23,1.79.05,6.72.06,8.55.03.84-.1,2.22-.47,3.08-.5,1.83-.37,4.33-1.34,6.2-1.42.77-.25,1.83-.17,2.6.03,1.05.38,1.63.4,1.65,1.71-.04,1.16-1.54,2.12-2.29,2.84-.85.72-2.42,1.51-3.44,1.98"/><path class="cls-3" d="m298.55,226.47c.26.38,2.43.59,2.88.63,1.58.13,4.65-.11,5.32-.12"/><path class="cls-3" d="m596.22,185.21c-.24-.04-.88-.17-1.1-.03-.16.27-.67,1.01-.69,1.33-.17,1.31-.16,2.89.7,3.98.92.92,2.21,1.3,3.2.25.66-.77,1.36-1.8,1.32-2.86-.06-2.12-1.26-3.91-3.53-2.82-1.03.64-1.45,2.04-1.13,3.17.26,1.18.82,2.36,2.23,2.24.69-.07,1.14-.72,1.47-1.27.56-.98.51-2.35-.21-3.24-.72-.66-2.07-.69-2.62.2-.37.77-.33,1.32.36,1.85"/><path class="cls-3" d="m263.86,164.43c1.28-2.1,5.62-3.89,7.27-1.28"/><path class="cls-3" d="m302.86,163.2c.28-1.27,1.35-2.33,2.62-2.59,1.27-.26,2.67.28,3.43,1.34"/><path class="cls-15" d="m420.02,250.81c5.55,3.4,11.51,7.5,17.23,10.59,8.55-5.66,20.65-7.44,28.73-13.76.31-.25-8.54-7.51-9.45-8.12-3.59-2.39-5.78-3.8-9.91-2.79-8.37,2.03-19.5,9.34-26.59,14.09Z"/><path class="cls-1" d="m420.82,249.21c1.79-.9,5.69-2.84,7.49-3.56,2.01-1.08,6.99-3.73,9.12-4.78,2.05-1.35,5.48-2.95,7.77-3.9.79-.34,1.88-.76,2.76-.72,2.07.23,4.32,1.12,6.12,2.13.64.43,1.29,1.24,1.91,1.68,1.29.78,4.08,2.34,5.42,3.07,1.11.9,3.3,2.24,4.45,3.07l.12.43c-4.02,4.73-14.7,8.61-20.05,11.66-.61.27-2.68,1.33-3.29,1.52-.85.28-2.07.41-2.92.68-.9.35-2.37,1-3.37.9-3-.78-5.67-3.47-8.05-5.3-.61-.38-4.49-2.58-4.96-3.02-.88-.8-2.28-1.69-3.33-2.25"/></g></svg>