<?xml version="1.0" encoding="UTF-8"?><svg xmlns="http://www.w3.org/2000/svg" viewBox="0 0 855.67 556.53"><defs><style>.cls-1{fill:#fde8cf;}.cls-1,.cls-2,.cls-3,.cls-4,.cls-5,.cls-6,.cls-7,.cls-8,.cls-9,.cls-10,.cls-11,.cls-12,.cls-13{stroke-width:0px;}.cls-2{fill:#b88c67;}.cls-14{stroke-width:1.5px;}.cls-14,.cls-15,.cls-16,.cls-5{fill:none;}.cls-14,.cls-17{stroke:#63499b;stroke-linecap:round;stroke-linejoin:round;}.cls-15{stroke:#2c416b;stroke-dasharray:0 0 1.68 1.68;stroke-width:.84px;}.cls-15,.cls-16{stroke-miterlimit:10;}.cls-16{stroke:#172a88;stroke-width:4.27px;}.cls-18{isolation:isolate;}.cls-3{fill:#e83646;}.cls-4{fill:#172a88;}.cls-17{fill:#1180c3;stroke-width:2.23px;}.cls-6{fill:#fff;}.cls-7{fill:#2c416b;mix-blend-mode:hard-light;opacity:.5;}.cls-8{fill:#f5da4c;}.cls-9{fill:#95aab6;}.cls-10{fill:#f2ec4a;}.cls-11{fill:#e95a9a;}.cls-12{fill:#ef7c26;}.cls-13{fill:#a5a19f;}</style></defs><g class="cls-18"><g id="_レイヤー_2"><g id="_レイヤー_6"><rect class="cls-5" width="855.67" height="556.53"/></g><g id="_レイヤー_8"><rect class="cls-7" x="510.57" y="143.96" width="34.66" height="45.42" rx="3.08" ry="3.08" transform="translate(973.49 495.18) rotate(-161.12)"/><rect class="cls-7" x="407.89" y="216.58" width="34.66" height="45.42" rx="3.08" ry="3.08" transform="translate(774.16 580.34) rotate(-165.02)"/><rect class="cls-7" x="458.87" y="116.32" width="34.66" height="45.42" rx="3.08" ry="3.08" transform="translate(958.95 253.2) rotate(177.03)"/><rect class="cls-6" x="350.64" y="200.32" width="34.66" height="45.42" rx="3.08" ry="3.08" transform="translate(-2.42 4.04) rotate(-.63)"/><rect class="cls-15" x="350.64" y="200.32" width="34.66" height="45.42" rx="3.08" ry="3.08" transform="translate(-2.42 4.04) rotate(-.63)"/><rect class="cls-7" x="395.34" y="137.97" width="34.66" height="45.42" rx="3.08" ry="3.08" transform="translate(805.06 365.97) rotate(-173.66)"/><rect class="cls-7" x="339.63" y="137.09" width="34.66" height="45.42" rx="3.08" ry="3.08" transform="translate(742.13 227.64) rotate(165.87)"/><rect class="cls-7" x="466.69" y="200.32" width="34.66" height="45.42" rx="3.08" ry="3.08" transform="translate(986.55 400.45) rotate(174.71)"/><polyline class="cls-16" points="207.61 293.73 207.61 430.24 455.51 430.24"/><line class="cls-16" x1="521.44" y1="370.03" x2="207.61" y2="370.03"/><line class="cls-16" x1="207.61" y1="324.82" x2="521.44" y2="324.82"/><rect class="cls-6" x="264.82" y="419.42" width="146.73" height="30.36" rx="8.06" ry="8.06"/><path class="cls-4" d="m294.65,430.74h-8.59v3.03h7.71v10.29h-2.9v-1.1h-11.07v1.1h-2.88v-10.29h6.2v-8.49h2.94v2.82h8.59v2.65Zm-3.79,9.7v-4.15h-11.07v4.15h11.07Z"/><path class="cls-4" d="m307.6,441.59c-1.55,1.11-3.04,1.67-4.47,1.67-3.25,0-4.87-2.82-4.87-8.47,0-2.47.27-5.11.8-7.92h3.01c-.61,2.92-.91,5.67-.91,8.26,0,3.42.78,5.12,2.35,5.12.97,0,2.34-.71,4.09-2.12v3.45Zm7.85-.25h-3.01c0-2.89-.23-5.33-.7-7.3-.54-2.31-1.5-4.57-2.9-6.75h3.32c1.1,1.81,1.9,3.73,2.41,5.78.58,2.31.87,5.07.87,8.28Z"/><path class="cls-4" d="m326.02,442.8h-4.7v1.23h-2.65v-16.51h1.99c.27-.66.54-1.48.83-2.46l2.79.34c-.17.49-.42,1.2-.74,2.12h2.41v6.84h-4.64v1.35h4.7v7.09Zm-2.52-10.75v-1.99h-2.18v1.99h2.18Zm.04,8.17v-2.2h-2.22v2.2h2.22Zm13.91-11.94h-4.15v1.69h3.66v9.36c0,1.07-.12,1.75-.36,2.04-.24.29-.79.43-1.65.43h-.87l-.83-2.48h.74c.28,0,.45-.04.51-.13.06-.08.08-.28.08-.57v-6.16h-1.38v11.66h-2.58v-11.66h-1.19v9.36h-2.37v-11.85h3.51v-1.69h-3.94v-2.5h10.8v2.5Z"/><path class="cls-4" d="m356.95,438.57c0,1.64-.37,2.83-1.1,3.59-.73.75-1.91,1.13-3.51,1.13h-3.81v-2.82h3.13c.78,0,1.33-.17,1.65-.5.32-.33.49-.88.49-1.64v-6.67h-5.44c-.18,3.09-1.07,5.69-2.67,7.81-1.44,1.91-3.29,3.25-5.55,4.02v-3.03c3.32-1.86,5.03-4.8,5.14-8.81h-5.14v-2.75h5.14v-3.22h3.09v3.22h8.57v9.65Z"/><path class="cls-4" d="m378.66,435.22h-17.31v-2.9h17.31v2.9Z"/><path class="cls-4" d="m399.45,437.21c-3.66-.99-7.54-1.9-11.64-2.73v9.19h-3.13v-17.95h3.13v5.76c4.92.96,8.81,1.83,11.64,2.62v3.11Zm-4.21-7.77h-1.95v-3.17h1.95v3.17Zm2.79,0h-1.93v-3.17h1.93v3.17Z"/><rect class="cls-6" x="145.25" y="36.04" width="310.67" height="31.36" rx="8.06" ry="8.06"/><path class="cls-4" d="m168.33,60.36h-10.52v-2.71h3.87v-10.25l-2.77,2.12-1.57-2.22,4.7-3.56h2.79v13.91h3.49v2.71Z"/><path class="cls-4" d="m174.64,53.75c-.66,1.19-1.41,2.36-2.24,3.54l-1.21-2.82c1.37-1.83,2.52-3.71,3.45-5.63v-.4h-3.05v-2.52h3.05v-3.28h2.65v3.28h2.73v2.52h-2.73v.61c.55.88,1.16,1.72,1.82,2.54,1.51-2.61,2.62-5.7,3.32-9.27l2.65.44c-.23.96-.46,1.86-.7,2.69h6.41v2.6h-1.48c-.24,3.02-1,5.6-2.29,7.75.99,1.13,2.34,2.25,4.04,3.37l-1.74,2.41c-1.57-1.14-2.88-2.33-3.94-3.58-1.17,1.34-2.62,2.55-4.36,3.62l-1.78-2.35c2-1.1,3.53-2.26,4.57-3.47-.8-1.35-1.41-2.8-1.82-4.34-.42.85-.84,1.62-1.25,2.31l-.72-.89-1.08,2.39c-.59-.71-1.15-1.45-1.67-2.22v8.4h-2.65v-7.71Zm10.73-.34c.71-1.48,1.16-3.27,1.35-5.36h-2.88c.2,2.02.71,3.8,1.52,5.36Z"/><path class="cls-4" d="m195.89,59.55c-.83.78-1.74,1.51-2.71,2.2l-.76-3.05c1-.63,1.87-1.27,2.6-1.9v-4.04h-2.31v-2.65h4.89v7.03c.17.79.68,1.29,1.54,1.48l-1.04-1.29c1.65-.37,2.99-.83,4.02-1.4h-3.96v-2.07h2.88v-.97h-2.48v-1.99h2.48v-.68h-.97c-.58,0-.96-.09-1.15-.28s-.29-.59-.29-1.23v-2.9h3.07v-.8h-3.09v-2.1h5.65v4.51l.61.15c0,.86-.09,1.49-.27,1.88-.18.4-.52.64-1,.72v.72h2.41v-.72c-.38-.06-.63-.23-.76-.53-.08-.2-.13-.53-.13-.99v-2.84h3.03v-.8h-3.05v-2.1h5.61v4.36l.87.17c0,1.02-.13,1.72-.38,2.12-.28.44-.79.66-1.52.66h-1.1v.68h2.5v1.99h-2.5v.97h2.92v2.07h-4.15c1.03.55,2.39,1.02,4.08,1.4l-1.12,1.42h1.71l-.63,2.39h-11.49c-1.91,0-3.25-.53-4.02-1.59Zm1.99-13.44l-1.99,1.9c-.9-1.17-1.9-2.24-3.01-3.2l1.91-1.88c1.1.89,2.13,1.95,3.09,3.18Zm4.76,1.4h-1.76v.53c0,.18.02.29.07.33.05.04.16.05.33.05h.76c.35,0,.55-.3.59-.91Zm1.74,9.46c-1.04.73-2.13,1.33-3.26,1.78h7.32c-1.16-.47-2.26-1.06-3.32-1.78l1.4-1.04h-3.53l1.4,1.04Zm1.65-3.11v-.97h-2.41v.97h2.41Zm3.22-6.35h-1.74v.53c0,.18.02.29.07.33.05.04.16.05.33.05h.76c.35,0,.54-.3.57-.91Z"/><path class="cls-4" d="m232.85,53.96c-1.37-.93-2.35-1.74-2.94-2.41.11.48.17,1.04.17,1.67,0,2.29-.63,4.14-1.9,5.55-1.33,1.5-3.15,2.24-5.46,2.24s-4.04-.61-5.31-1.82-1.91-2.84-1.91-4.89c0-2.91,1.23-5.47,3.68-7.68h-4.23v-2.71h7.83v2.73c-1.4,1.23-2.43,2.37-3.11,3.43-.83,1.31-1.25,2.67-1.25,4.08s.45,2.46,1.35,3.18c.75.59,1.67.89,2.75.89,1.45,0,2.6-.45,3.43-1.35.95-1.02,1.42-2.53,1.42-4.53s-.82-4.77-2.46-8.51h3.01c.79,1.68,1.52,2.97,2.18,3.87.75,1.03,1.66,1.92,2.75,2.67v3.6Zm-2.14-8.38h-1.84v-3.03h1.84v3.03Zm2.67,0h-1.84v-3.03h1.84v3.03Z"/><path class="cls-4" d="m252.54,61.39h-2.86v-1.12h-9.84v1.12h-2.88v-16.28h5.42c.42-.9.77-1.83,1.04-2.77l3.01.44c-.2.62-.49,1.4-.89,2.33h7.01v16.28Zm-2.86-11.88v-1.86h-9.84v1.86h9.84Zm0,4v-1.71h-9.84v1.71h9.84Zm0,4.21v-1.95h-9.84v1.95h9.84Z"/><path class="cls-4" d="m265.7,51.02c-.2,2.51-.84,4.61-1.93,6.29-1.09,1.68-2.71,3.01-4.87,3.98l-2.43-2.12c2.05-.82,3.57-1.86,4.57-3.11,1.07-1.33,1.66-3.01,1.76-5.04h-3.43v-.53c-.45.48-.9.92-1.33,1.33l-2.41-1.67c1.4-1.16,2.55-2.31,3.45-3.47.86-1.09,1.7-2.43,2.52-4.04l2.52.99c-.95,1.86-1.95,3.48-3.01,4.85h9.14c-1.09-1.35-2.14-2.99-3.15-4.91l2.56-.95c.83,1.59,1.71,2.94,2.62,4.02.93,1.14,2.13,2.29,3.6,3.45l-2.46,1.71c-.49-.45-.95-.89-1.38-1.31v5.44c0,2.16-.36,3.58-1.08,4.28-.65.64-1.95.95-3.89.95h-2.03l-.95-2.67h2.35c1.21,0,1.96-.17,2.24-.51.28-.34.42-1.16.42-2.46v-4.51h-3.41Z"/><path class="cls-4" d="m293.86,47.99h-9.78c-.75,4.21-1.73,8.38-2.94,12.53h-3.09c1.34-3.95,2.39-8.12,3.15-12.51h-2.94v-2.67h3.37c.1-.72.2-1.47.3-2.26h2.96c-.04.27-.16,1.02-.36,2.26h9.33v2.65Zm1.78,12.28c-1.83.31-3.74.47-5.72.47s-3.44-.35-4.47-1.04c-.97-.65-1.46-1.56-1.46-2.73s.45-2.26,1.35-3.43h3.17c-1.1,1.18-1.65,2.15-1.65,2.9,0,1.06,1.1,1.59,3.3,1.59,1.76,0,3.58-.22,5.46-.66v2.9Zm-.44-8.13h-10.01v-2.56h10.01v2.56Zm-2.46-7.43h-1.84v-3.03h1.84v3.03Zm2.67,0h-1.84v-3.03h1.84v3.03Z"/><path class="cls-4" d="m303.59,43.34c-.31,3.22-.47,6.43-.47,9.63,0,2.27.08,4.73.25,7.37h-2.94c-.13-2.37-.19-4.75-.19-7.15,0-3.65.15-6.94.47-9.84h2.88Zm13.99,6.27h-2.94v1.93c0,3.22-.91,5.6-2.73,7.13-1.35,1.14-3.31,1.87-5.86,2.18v-2.71c1.81-.34,3.14-.92,4-1.74,1.13-1.07,1.69-2.73,1.69-4.97v-1.82h-6.82v-2.75h6.82v-3.56h2.9v3.56h2.94v2.75Z"/><path class="cls-4" d="m338.2,48.84h-3.39v12.15h-3.11v-12.15h-.8c-.76,2.89-2.07,5.37-3.92,7.43-1.79,2-3.92,3.42-6.37,4.23v-3.01c3.5-1.71,5.88-4.59,7.13-8.66h-6.96v-2.79h10.92v-3.09h3.11v3.09h3.39v2.79Z"/><path class="cls-4" d="m359.41,52.59h-9.74v2.88c0,.85.13,1.42.4,1.71.34.35,1.01.53,2.01.53h6.63v2.84h-7.6c-3.06,0-4.59-1.43-4.59-4.3v-3.66h-5.1v-2.77h5.1v-3.3h-4.19v-2.77h16.13v2.77h-8.78v3.3h9.74v2.77Z"/><path class="cls-4" d="m380.5,51.78h-6.01c-.35,2.77-1.48,4.92-3.37,6.46-1.68,1.37-3.89,2.21-6.63,2.54v-2.86c1.96-.3,3.5-.97,4.62-2.03,1.12-1.06,1.8-2.43,2.02-4.11h-8.49v-2.73h17.84v2.73Zm-1.16-5.29h-15.41v-2.79h15.41v2.79Z"/><path class="cls-4" d="m401.37,52.23c-1.54.13-3,.35-4.38.66.14,1.04.21,2.42.21,4.13h-2.73c0-1.4-.04-2.51-.13-3.34-2.26.85-3.39,1.77-3.39,2.77,0,1.2,1.52,1.8,4.55,1.8,1.47,0,3.2-.16,5.19-.47v2.79c-1.83.23-3.57.34-5.21.34-2.36,0-4.13-.28-5.31-.85-1.47-.69-2.2-1.86-2.2-3.49,0-2.09,1.86-3.87,5.57-5.36-.25-.24-.55-.36-.89-.36-1.48,0-2.99.71-4.53,2.12-.79.76-2.13,2-4.02,3.73v-3.54c1.96-1.68,3.58-3.56,4.87-5.65h-4.3v-2.56h5.67c.25-.55.51-1.2.76-1.95h3.07c-.31.86-.56,1.51-.76,1.95h7.3v2.56h-8.59c-.32.55-.7,1.12-1.12,1.71.65-.37,1.39-.55,2.22-.55,1.44,0,2.46.55,3.05,1.65,1.71-.45,3.41-.73,5.1-.85v2.75Z"/><path class="cls-4" d="m412.61,54.81c-.17,3.44-2.23,5.74-6.18,6.9l-2.26-2.22c1.85-.51,3.17-1.08,3.98-1.71.93-.72,1.47-1.71,1.61-2.96h-3.07v-11.85h14.39v11.85h-3.6v3.32c0,.3.03.48.1.54s.24.09.54.09h1.21c.68,0,1.08-.31,1.21-.93.01-.07.02-.66.02-1.78l2.69.78c0,1.99-.22,3.25-.66,3.79-.37.45-1.26.68-2.67.68h-3.13c-.86,0-1.43-.12-1.71-.36-.28-.24-.42-.75-.42-1.54v-4.59h-2.03Zm5.63-8.42v-1.06h-8.72v1.06h8.72Zm0,3.05v-1.06h-8.72v1.06h8.72Zm0,3.07v-1.08h-8.72v1.08h8.72Z"/><path class="cls-4" d="m443.83,54.64c0,1.95-.76,3.49-2.27,4.64-1.51,1.14-3.53,1.71-6.05,1.71-2.03,0-3.68-.35-4.93-1.04-1.33-.72-1.99-1.7-1.99-2.94,0-.82.33-1.52.99-2.09.76-.66,1.8-1,3.11-1,1.17,0,2.32.25,3.45.76.68.31,1.2.63,1.57.95v2.48c2.07-.58,3.11-1.71,3.11-3.39,0-.9-.41-1.63-1.22-2.19s-1.94-.84-3.38-.84c-1.71,0-3.17.2-4.38.59-1.59.51-3.42,1.49-5.46,2.94v-3.11l9.46-5.88h-7.49v-2.65h12.89v2.31l-5.82,3.64c.58-.14,1.24-.21,1.99-.21,1.92,0,3.47.48,4.65,1.43,1.18.95,1.77,2.25,1.77,3.88Zm-6.71,3.6c-1.68-1.31-3.17-1.97-4.49-1.97-.86,0-1.29.22-1.29.66,0,.47.44.84,1.31,1.12.76.25,1.59.38,2.5.38.66,0,1.32-.06,1.97-.19Z"/><path class="cls-4" d="m480.9,436.47c-1.34-.92-2.75-1.68-4.22-2.27,0,2.27-1.35,3.4-4.05,3.4-1.2,0-2.15-.27-2.85-.81-.74-.55-1.1-1.31-1.1-2.28,0-.88.34-1.58,1.03-2.1.76-.57,1.86-.86,3.3-.86.51,0,1.04.04,1.58.12v-1.12h-5.89v-1.72h5.89v-1.18h-5.89v-1.79h5.89v-1.33h2.12v1.33h4.16v1.79h-4.16v1.18h4.16v1.76h-4.16v1.58c1.45.46,2.85,1.12,4.2,1.98v2.32Zm-6.32-2.84v-.11c-.63-.14-1.23-.21-1.79-.21-1.37,0-2.05.39-2.05,1.18,0,.37.16.66.48.87.32.21.77.32,1.34.32.74,0,1.26-.16,1.56-.47s.46-.84.46-1.59Z"/><path class="cls-4" d="m479.72,443.46h-7.08c-.55,3.08-1.26,6.1-2.13,9.08h-2.24c.97-2.86,1.73-5.88,2.28-9.06h-2.13v-1.93h2.44c.07-.53.14-1.08.21-1.64h2.15l-.25,1.64h6.75v1.92Zm1.29,8.89c-1.33.22-2.71.34-4.14.34s-2.49-.25-3.24-.75c-.71-.47-1.06-1.13-1.06-1.98s.33-1.63.98-2.48h2.3c-.8.86-1.2,1.56-1.2,2.1,0,.77.8,1.15,2.39,1.15,1.28,0,2.6-.16,3.96-.48v2.1Zm-.32-5.89h-7.25v-1.86h7.25v1.86Z"/><path class="cls-4" d="m471.27,455.36c-.26,3.04-.38,5.72-.38,8.05,0,1.54.05,3.1.14,4.66h-2.13c-.05-1.26-.08-2.8-.08-4.62,0-2.92.11-5.62.34-8.1h2.12Zm10.17,11.53c-.59-.55-1.37-1.11-2.33-1.69-.14,1.98-1.35,2.97-3.62,2.97-1.11,0-2-.25-2.65-.74-.73-.55-1.09-1.34-1.09-2.38,0-.84.33-1.54.98-2.09.65-.56,1.54-.84,2.65-.84.53,0,1.09.06,1.67.18v-2.81h-4.98v-1.93h4.98v-2.22h2.07v2.22h2.15v1.93h-2.15v3.5c.82.37,1.59.82,2.32,1.36v2.52Zm-4.39-2.33v-.34c-.61-.21-1.15-.32-1.61-.32-.55,0-.99.11-1.31.33-.32.22-.48.51-.48.87,0,.8.59,1.2,1.78,1.2,1.08,0,1.62-.58,1.62-1.73Z"/><polyline class="cls-16" points="528.32 476.94 455.51 476.94 455.51 415.78 520.22 415.78"/><rect class="cls-6" x="500.58" y="442.91" width="233.37" height="81.46" rx="8.06" ry="8.06"/><path class="cls-4" d="m532,454.23h-8.59v3.03h7.71v10.29h-2.9v-1.1h-11.07v1.1h-2.88v-10.29h6.2v-8.49h2.94v2.82h8.59v2.65Zm-3.79,9.7v-4.15h-11.07v4.15h11.07Z"/><path class="cls-4" d="m544.96,465.09c-1.55,1.11-3.04,1.67-4.47,1.67-3.25,0-4.87-2.82-4.87-8.47,0-2.47.27-5.11.8-7.92h3.01c-.61,2.92-.91,5.67-.91,8.26,0,3.42.78,5.12,2.35,5.12.97,0,2.34-.71,4.09-2.12v3.45Zm7.85-.25h-3.01c0-2.89-.23-5.33-.7-7.3-.54-2.31-1.5-4.57-2.9-6.75h3.32c1.1,1.81,1.9,3.73,2.41,5.78.58,2.31.87,5.07.87,8.28Z"/><path class="cls-4" d="m563.37,466.3h-4.7v1.23h-2.65v-16.51h1.99c.27-.66.54-1.48.83-2.46l2.79.34c-.17.49-.42,1.2-.74,2.12h2.41v6.84h-4.64v1.35h4.7v7.09Zm-2.52-10.75v-1.99h-2.18v1.99h2.18Zm.04,8.17v-2.2h-2.22v2.2h2.22Zm13.91-11.94h-4.15v1.69h3.66v9.36c0,1.07-.12,1.75-.36,2.04-.24.29-.79.43-1.65.43h-.87l-.83-2.48h.74c.28,0,.45-.04.51-.13.06-.08.08-.28.08-.57v-6.16h-1.38v11.66h-2.58v-11.66h-1.19v9.36h-2.37v-11.85h3.51v-1.69h-3.94v-2.5h10.8v2.5Z"/><path class="cls-4" d="m594.3,462.06c0,1.64-.37,2.83-1.1,3.59-.73.75-1.91,1.13-3.51,1.13h-3.81v-2.82h3.13c.78,0,1.33-.17,1.65-.5.32-.33.49-.88.49-1.64v-6.67h-5.44c-.18,3.09-1.07,5.69-2.67,7.81-1.44,1.91-3.29,3.25-5.55,4.02v-3.03c3.32-1.86,5.03-4.8,5.14-8.81h-5.14v-2.75h5.14v-3.22h3.09v3.22h8.57v9.65Z"/><path class="cls-4" d="m616.01,458.72h-17.31v-2.9h17.31v2.9Z"/><path class="cls-4" d="m636.8,460.71c-3.66-.99-7.54-1.9-11.64-2.73v9.19h-3.13v-17.95h3.13v5.76c4.92.96,8.81,1.83,11.64,2.62v3.11Zm-4.21-7.77h-1.95v-3.17h1.95v3.17Zm2.79,0h-1.93v-3.17h1.93v3.17Z"/><path class="cls-4" d="m658.31,458.44c-1.54.13-3,.35-4.38.66.14,1.04.21,2.42.21,4.13h-2.73c0-1.4-.04-2.51-.13-3.34-2.26.85-3.39,1.77-3.39,2.77,0,1.2,1.52,1.8,4.55,1.8,1.47,0,3.2-.16,5.19-.47v2.79c-1.83.23-3.57.34-5.21.34-2.36,0-4.13-.28-5.31-.85-1.47-.69-2.2-1.86-2.2-3.49,0-2.09,1.86-3.87,5.57-5.36-.25-.24-.55-.36-.89-.36-1.48,0-2.99.71-4.53,2.12-.79.76-2.13,2-4.02,3.73v-3.54c1.96-1.68,3.58-3.56,4.87-5.65h-4.3v-2.56h5.67c.25-.55.51-1.2.76-1.95h3.07c-.31.86-.56,1.51-.76,1.95h7.3v2.56h-8.59c-.32.55-.7,1.12-1.12,1.71.65-.37,1.39-.55,2.22-.55,1.44,0,2.46.55,3.05,1.65,1.71-.45,3.41-.73,5.1-.85v2.75Z"/><path class="cls-4" d="m669.42,449.72c-1.43,3.25-3.33,6.11-5.72,8.59l-2.56-1.61c1.35-1.24,2.46-2.46,3.3-3.66.79-1.13,1.56-2.53,2.31-4.19l2.67.87Zm6.37,15.96c-4.26.79-8.6,1.37-13.02,1.74l-.93-2.77c1.16-.06,2.29-.13,3.39-.21,1.45-3.25,2.62-6.41,3.51-9.48l2.96.57c-.97,3.06-2.05,5.93-3.24,8.61,1.93-.21,3.89-.49,5.88-.83-.72-1.14-1.45-2.24-2.2-3.28l2.65-.83c1.57,2.03,3.21,4.46,4.93,7.28l-2.88,1.1c-.34-.62-.69-1.26-1.06-1.91Zm4.95-9.04l-2.6,1.63c-2.46-2.46-4.44-5.32-5.95-8.59l2.71-.89c.76,1.65,1.56,3.05,2.39,4.19.89,1.2,2.04,2.42,3.45,3.66Z"/><path class="cls-4" d="m691.31,456.6h-5.55v10.96h-2.75v-18.44h8.3v7.47Zm-2.54-4.55v-.85h-3.01v.85h3.01Zm0,2.6v-.87h-3.01v.87h3.01Zm2.46,8.4c-.23,1.62-.97,3.06-2.24,4.32l-2.5-1.42c1.19-.95,1.89-1.91,2.12-2.9h-2.1v-2.18h2.24v-1.31h-1.76v-2.16h10.1v2.16h-1.67v1.31h2.05v2.18h-2.05v4.08h-2.58v-4.08h-1.61Zm.11-3.49v1.31h1.5v-1.31h-1.5Zm9.72,5.06c0,1.19-.17,1.96-.5,2.34s-1.05.56-2.15.56h-2.03l-.61-2.48h1.55c.34,0,.57-.04.7-.11.2-.11.3-.42.3-.91v-7.43h-5.63v-7.47h8.38v15.5Zm-2.75-12.57v-.85h-3.07v.85h3.07Zm0,2.6v-.87h-3.07v.87h3.07Z"/><path class="cls-4" d="m721.85,456.52c-.17,3.42-1.03,6.03-2.59,7.84-1.56,1.81-3.69,2.72-6.4,2.72-4.6,0-6.9-2.17-6.9-6.5v-10.94h2.92v10.86c0,2.47,1.33,3.7,4,3.7,3.63,0,5.62-2.56,5.99-7.68h2.98Z"/><path class="cls-4" d="m519.3,488.67c-1.74.73-3.79,1.37-6.16,1.91l-.47-2.86c.82-.11,1.64-.27,2.48-.46v-5.76h-2.12v-2.69h2.12v-4.57h2.67v4.57h1.88v2.69h-1.88v4.97c.62-.21,1.24-.47,1.86-.76v.66c.75-.66,1.42-1.35,2.01-2.07h-2.46v-2.12h13.29v2.12h-8.06c-.13.17-.31.42-.55.74h7.87v4.11c0,1.74-.15,2.82-.43,3.25-.29.43-1.04.65-2.25.65h-1.5l-.59-2.14h1.25c.49,0,.8-.11.91-.34.11-.23.17-.84.17-1.84v-1.65h-.25c-.92,2.27-2.21,4.3-3.87,6.08l-2.31-.99c1.55-1.57,2.81-3.26,3.77-5.08h-.89c-1.26,1.99-2.76,3.73-4.51,5.23l-2.24-1.16c1.59-1.19,2.97-2.54,4.13-4.06h-.97c-.69.73-1.41,1.4-2.16,2.01l-.72-.4Zm11.92-7.24h-10.84v-6.92h10.84v6.92Zm-2.67-4.15v-.72h-5.5v.72h5.5Zm0,2.37v-.72h-5.5v.72h5.5Z"/><path class="cls-4" d="m539.49,474.83c-.41,4.11-.61,7.83-.61,11.18,0,2.23.05,4.33.15,6.31h-2.92c-.08-1.95-.13-4.04-.13-6.27,0-3.58.18-7.32.55-11.22h2.96Zm12.85,16.47c-1.65.32-3.28.49-4.89.49-4.84,0-7.26-1.57-7.26-4.7,0-1.55.62-3.1,1.86-4.66h3.39c-1.57,1.65-2.35,3.09-2.35,4.32,0,1.44,1.45,2.16,4.36,2.16,1.48,0,3.11-.2,4.89-.59v2.99Zm-.42-12.17h-10.86v-2.86h10.86v2.86Z"/><path class="cls-4" d="m563.26,482.07c-.44,2.61-1.13,4.76-2.07,6.46-.89,1.61-2.22,3.17-3.98,4.7l-1.99-2.01c1.81-1.3,3.17-2.77,4.09-4.42-.64-.62-1.16-1.12-1.57-1.48l-.06.08c-.34.52-.7,1.01-1.08,1.46l-1.52-2.33c1.51-1.9,2.52-4.28,3.03-7.13h-2.35v-2.6h8.04v2.5l2.27-.25c-.06-1.03-.11-1.98-.15-2.84h2.54c.03.89.06,1.74.11,2.56l1.8-.21c-.38-.45-.81-.9-1.29-1.33l1.71-1.29c.69.59,1.31,1.23,1.86,1.91l-.74.55,2.29-.25v2.24l-5.5.66c0,.08.03.45.08,1.1l4.85-.61v2.05l-4.66.63c.04.42.08.8.13,1.14l5.52-.76v2.22l-5.21.74c.1.59.2,1.12.32,1.59.51-.49,1.01-1.08,1.5-1.76l2.18.74c-.8,1.23-1.76,2.34-2.88,3.34.28.54.56.8.83.8.18,0,.52-.29,1.02-.87.55-.64.99-1.28,1.31-1.95l1,3.11c-1.12,1.69-2.31,2.54-3.58,2.54-1.13,0-2.04-.67-2.73-2.01-1.37.89-2.82,1.57-4.36,2.05l-1.57-2.35c2.06-.56,3.75-1.25,5.08-2.05-.23-.82-.42-1.75-.59-2.79l-3.85.57v-2.35l3.54-.49c-.03-.27-.07-.66-.13-1.16l-2.75.38v-2.12l2.56-.34c-.01-.24-.04-.61-.08-1.12l-2.94.36v2.39Zm-2.92,2.35c.25-.79.47-1.71.63-2.77h-1.42c-.2.52-.42,1.04-.66,1.57.31.25.79.66,1.44,1.21Zm-.04-5.21h2.94v-1.82h-2.54c-.1.52-.23,1.13-.4,1.82Z"/><path class="cls-4" d="m594.93,486.26c0,1.95-.76,3.49-2.27,4.64-1.51,1.14-3.53,1.71-6.05,1.71-2.03,0-3.68-.35-4.93-1.04-1.33-.72-1.99-1.7-1.99-2.94,0-.82.33-1.52.99-2.09.76-.66,1.8-1,3.11-1,1.17,0,2.32.25,3.45.76.68.31,1.2.63,1.57.95v2.48c2.07-.58,3.11-1.71,3.11-3.39,0-.9-.41-1.63-1.22-2.19s-1.94-.84-3.38-.84c-1.71,0-3.17.2-4.38.59-1.59.51-3.42,1.49-5.46,2.94v-3.11l9.46-5.88h-7.49v-2.65h12.89v2.31l-5.82,3.64c.58-.14,1.24-.21,1.99-.21,1.92,0,3.47.48,4.65,1.43,1.18.95,1.77,2.25,1.77,3.88Zm-6.71,3.6c-1.68-1.31-3.17-1.97-4.49-1.97-.86,0-1.29.22-1.29.66,0,.47.44.84,1.31,1.12.76.25,1.59.38,2.5.38.66,0,1.32-.06,1.97-.19Z"/><path class="cls-4" d="m615.46,487.46c0,1.64-.37,2.83-1.1,3.59-.73.75-1.91,1.13-3.51,1.13h-3.81v-2.82h3.13c.78,0,1.33-.17,1.65-.5.32-.33.49-.88.49-1.64v-6.67h-5.44c-.18,3.09-1.07,5.69-2.67,7.81-1.44,1.91-3.29,3.25-5.55,4.02v-3.03c3.32-1.86,5.03-4.8,5.14-8.81h-5.14v-2.75h5.14v-3.22h3.09v3.22h8.57v9.65Z"/><path class="cls-4" d="m637.18,484.12h-17.31v-2.9h17.31v2.9Z"/><path class="cls-4" d="m657.97,486.11c-3.66-.99-7.54-1.9-11.64-2.73v9.19h-3.13v-17.95h3.13v5.76c4.92.96,8.81,1.83,11.64,2.62v3.11Zm-4.21-7.77h-1.95v-3.17h1.95v3.17Zm2.79,0h-1.93v-3.17h1.93v3.17Z"/><path class="cls-4" d="m675.64,483.72c0,3.13-.38,5.36-1.14,6.68s-2.03,1.98-3.81,1.98c-1.12,0-2.17-.19-3.15-.57v-2.9c1.1.41,2.02.61,2.77.61.86,0,1.47-.49,1.84-1.46.35-.9.53-2.35.53-4.34,0-1.28-.15-2.12-.43-2.51-.29-.39-.9-.58-1.83-.58h-2.12c-.79,3.99-1.83,7.89-3.13,11.68h-3.32c1.55-3.6,2.73-7.49,3.54-11.68h-3.43v-2.67h3.87c.17-1.14.3-2.22.4-3.22h3.05c-.13.96-.29,2.03-.49,3.22h1.95c1.83,0,3.08.33,3.73,1,.79.79,1.19,2.38,1.19,4.76Zm5.23,1.9h-3.03c-.34-3.58-1.35-6.62-3.05-9.1h3.32c1.47,2.46,2.38,5.49,2.75,9.1Z"/><path class="cls-4" d="m700.77,485.98c0,1.98-.81,3.51-2.44,4.59-1.63,1.09-3.95,1.63-6.95,1.63-1.74,0-3.49-.12-5.25-.36v-2.79c1.92.28,3.63.42,5.14.42,1.88,0,3.39-.29,4.55-.87,1.24-.61,1.86-1.46,1.86-2.56,0-.76-.31-1.36-.93-1.8-.66-.48-1.6-.72-2.82-.72-1.64,0-3.15.36-4.55,1.08-1.13.56-2.07,1.29-2.84,2.18h-2.62l.89-8.17h2.92l-.66,4.47c1.91-1.47,4.23-2.2,6.96-2.2,2.2,0,3.9.48,5.08,1.44,1.1.9,1.65,2.12,1.65,3.66Zm-2.16-7.79c-4.15-.31-8.54-.46-13.19-.46v-2.67c4.92,0,9.32.13,13.19.38v2.75Z"/><path class="cls-4" d="m525.59,517.37h-10.52v-2.71h3.87v-10.25l-2.77,2.12-1.57-2.22,4.7-3.56h2.79v13.91h3.49v2.71Z"/><path class="cls-4" d="m531.89,510.77c-.66,1.19-1.41,2.36-2.24,3.54l-1.21-2.82c1.37-1.83,2.52-3.71,3.45-5.63v-.4h-3.05v-2.52h3.05v-3.28h2.65v3.28h2.73v2.52h-2.73v.61c.55.88,1.16,1.72,1.82,2.54,1.51-2.61,2.62-5.7,3.32-9.27l2.65.44c-.23.96-.46,1.86-.7,2.69h6.41v2.6h-1.48c-.24,3.02-1,5.6-2.29,7.75.99,1.13,2.34,2.25,4.04,3.37l-1.74,2.41c-1.57-1.14-2.88-2.33-3.94-3.58-1.17,1.34-2.62,2.55-4.36,3.62l-1.78-2.35c2-1.1,3.53-2.26,4.57-3.47-.8-1.35-1.41-2.8-1.82-4.34-.42.85-.84,1.62-1.25,2.31l-.72-.89-1.08,2.39c-.59-.71-1.15-1.45-1.67-2.22v8.4h-2.65v-7.71Zm10.73-.34c.71-1.48,1.16-3.27,1.35-5.36h-2.88c.2,2.02.71,3.8,1.52,5.36Z"/><path class="cls-4" d="m568.11,509.25c-1.54.13-3,.35-4.38.66.14,1.04.21,2.42.21,4.13h-2.73c0-1.4-.04-2.51-.13-3.34-2.26.85-3.39,1.77-3.39,2.77,0,1.2,1.52,1.8,4.55,1.8,1.47,0,3.2-.16,5.19-.47v2.79c-1.83.23-3.57.34-5.21.34-2.36,0-4.13-.28-5.31-.85-1.47-.69-2.2-1.86-2.2-3.49,0-2.09,1.86-3.87,5.57-5.36-.25-.24-.55-.36-.89-.36-1.48,0-2.99.71-4.53,2.12-.79.76-2.13,2-4.02,3.73v-3.54c1.96-1.68,3.58-3.56,4.87-5.65h-4.3v-2.56h5.67c.25-.55.51-1.2.76-1.95h3.07c-.31.86-.56,1.51-.76,1.95h7.3v2.56h-8.59c-.32.55-.7,1.12-1.12,1.71.65-.37,1.39-.55,2.22-.55,1.44,0,2.46.55,3.05,1.65,1.71-.45,3.41-.73,5.1-.85v2.75Z"/><path class="cls-4" d="m588.71,516.78c-2.54.4-4.98.59-7.32.59-5.97,0-8.95-1.68-8.95-5.04,0-1.69.78-3.38,2.33-5.06h3.73c-1.99,1.74-2.98,3.27-2.98,4.61,0,1.72,1.95,2.58,5.84,2.58,1.92,0,4.37-.23,7.37-.7v3.01Zm-.83-12.51h-13.95v-2.84h13.95v2.84Z"/><path class="cls-4" d="m609.69,509.58c0,2.27-.94,4.01-2.82,5.23-2.03,1.31-5.04,1.92-9.04,1.82v-2.58c5.96,0,8.93-1.44,8.93-4.32,0-.92-.34-1.64-1.02-2.16-.73-.55-1.81-.83-3.22-.83-2.37,0-5.21.54-8.51,1.61v-2.73c3.4-1.02,6.26-1.52,8.57-1.52s4.23.53,5.44,1.59c1.1.96,1.65,2.26,1.65,3.9Z"/><path class="cls-4" d="m631.72,509.56l-5.25.19c-1.2.04-2.25.38-3.15,1.03-.9.64-1.35,1.34-1.35,2.11,0,1.48,1.5,2.22,4.51,2.22.89,0,2.03-.1,3.43-.3v2.86c-1.31.15-2.58.23-3.81.23-2.44,0-4.3-.46-5.59-1.38-1.13-.82-1.69-1.88-1.69-3.2s.61-2.46,1.82-3.49l-6.6.4v-2.5c.66-.07,1.38-.17,2.16-.3.75-.39,3.26-1.79,7.54-4.19h-7.24v-2.73h12.91v2.31l-7.87,4.42,10.2-.42v2.73Z"/><path class="cls-4" d="m651.91,507.95c0,3.3-.9,5.75-2.69,7.34-1.92,1.72-4.94,2.58-9.06,2.58v-2.77c2.92-.13,5.04-.66,6.35-1.61,1.51-1.1,2.26-2.92,2.26-5.46,0-1.27-.23-2.33-.68-3.2-.58-1.11-1.45-1.67-2.62-1.67-1.38,0-2.6.9-3.66,2.69-.97,1.67-1.64,3.8-1.99,6.39h-2.71c.04-4.19.13-8.06.25-11.6h2.9c-.03.24-.11,1.52-.25,3.83.44-.9.99-1.68,1.65-2.33,1.2-1.16,2.6-1.74,4.21-1.74,1.96,0,3.49.78,4.57,2.33.97,1.37,1.46,3.11,1.46,5.21Z"/><path class="cls-4" d="m664.02,511.83c-.17,3.44-2.23,5.74-6.18,6.9l-2.26-2.22c1.85-.51,3.17-1.08,3.98-1.71.93-.72,1.47-1.71,1.61-2.96h-3.07v-11.85h14.39v11.85h-3.6v3.32c0,.3.03.48.1.54s.24.09.54.09h1.21c.68,0,1.08-.31,1.21-.93.01-.07.02-.66.02-1.78l2.69.78c0,1.99-.22,3.25-.66,3.79-.37.45-1.26.68-2.67.68h-3.13c-.86,0-1.43-.12-1.71-.36-.28-.24-.42-.75-.42-1.54v-4.59h-2.03Zm5.63-8.42v-1.06h-8.72v1.06h8.72Zm0,3.05v-1.06h-8.72v1.06h8.72Zm0,3.07v-1.08h-8.72v1.08h8.72Z"/><path class="cls-4" d="m695.24,511.66c0,1.95-.76,3.49-2.27,4.64-1.51,1.14-3.53,1.71-6.05,1.71-2.03,0-3.68-.35-4.93-1.04-1.33-.72-1.99-1.7-1.99-2.94,0-.82.33-1.52.99-2.09.76-.66,1.8-1,3.11-1,1.17,0,2.32.25,3.45.76.68.31,1.2.63,1.57.95v2.48c2.07-.58,3.11-1.71,3.11-3.39,0-.9-.41-1.63-1.22-2.19s-1.94-.84-3.38-.84c-1.71,0-3.17.2-4.38.59-1.59.51-3.42,1.49-5.46,2.94v-3.11l9.46-5.88h-7.49v-2.65h12.89v2.31l-5.82,3.64c.58-.14,1.24-.21,1.99-.21,1.92,0,3.47.48,4.65,1.43,1.18.95,1.77,2.25,1.77,3.88Zm-6.71,3.6c-1.68-1.31-3.17-1.97-4.49-1.97-.86,0-1.29.22-1.29.66,0,.47.44.84,1.31,1.12.76.25,1.59.38,2.5.38.66,0,1.32-.06,1.97-.19Z"/><path class="cls-10" d="m121.77,68.35c-9.07,2.38-18.35-3.04-20.74-12.11-2.38-9.07,3.04-18.35,12.11-20.74,9.07-2.38,18.35,3.04,20.74,12.11.18.67.3,1.34.4,2.01.86.29,1.79.67,2.64,1.16,2.63,1.51,3.45,2.68,3.45,2.68,0,0-2.1-.18-5.01.11-.35.03-.68.08-1.01.12-.72,6.82-5.55,12.81-12.58,14.66Z"/><path class="cls-11" d="m111.92,56.88c2.19-1.99,3.83-3.67,4.93-5.05,1.1-1.38,1.65-2.6,1.65-3.67,0-.71-.18-1.25-.54-1.64-.36-.39-.86-.58-1.51-.58-.49,0-.95.13-1.37.4-.42.27-.85.64-1.3,1.12l-2.05-2.03c.8-.85,1.6-1.46,2.4-1.85.8-.39,1.74-.58,2.83-.58,1.02,0,1.91.21,2.69.61.78.41,1.38.99,1.82,1.74s.66,1.62.66,2.6c0,2.23-1.58,4.94-4.74,8.13,1.04-.14,1.91-.21,2.58-.21h2.88v3.17h-10.92v-2.16Z"/><rect class="cls-6" x="500.64" y="400.05" width="232.42" height="30.59" rx="8.06" ry="8.06"/><path class="cls-4" d="m530.43,415.94l-5.25.19c-1.2.04-2.25.38-3.15,1.03-.9.64-1.35,1.34-1.35,2.11,0,1.48,1.5,2.22,4.51,2.22.89,0,2.03-.1,3.43-.3v2.86c-1.31.15-2.58.23-3.81.23-2.44,0-4.3-.46-5.59-1.38-1.13-.82-1.69-1.88-1.69-3.2s.61-2.46,1.82-3.49l-6.6.4v-2.5c.66-.07,1.38-.17,2.16-.3.75-.39,3.26-1.79,7.54-4.19h-7.24v-2.73h12.91v2.31l-7.87,4.42,10.2-.42v2.73Z"/><path class="cls-4" d="m551.98,415.1c0,2.91-.9,5.15-2.71,6.73-1.57,1.37-3.59,2.1-6.08,2.2v-2.79c1.65-.18,2.98-.74,4-1.67,1.19-1.1,1.78-2.63,1.78-4.59,0-1.24-.35-2.31-1.04-3.2-.73-.96-1.77-1.59-3.11-1.88-.69,5.22-1.72,8.95-3.09,11.2-.83,1.37-1.93,2.05-3.28,2.05-1.16,0-2.19-.58-3.09-1.74-1-1.27-1.5-2.89-1.5-4.87,0-2.67.87-4.9,2.6-6.71,1.79-1.85,4.1-2.77,6.92-2.77,2.65,0,4.76.75,6.33,2.26,1.51,1.47,2.27,3.39,2.27,5.78Zm-10.03-5.29c-1.64.25-2.95,1.04-3.94,2.37-.92,1.26-1.38,2.71-1.38,4.36,0,1.03.22,1.92.66,2.67.38.65.75.97,1.12.97.47,0,.99-.66,1.57-1.97.85-1.95,1.5-4.75,1.97-8.4Z"/><path class="cls-4" d="m572.62,422.82c-1.85-1.27-3.79-2.31-5.82-3.13,0,3.13-1.86,4.7-5.59,4.7-1.65,0-2.96-.37-3.94-1.12-1.02-.76-1.52-1.81-1.52-3.15,0-1.21.47-2.18,1.42-2.9,1.04-.79,2.56-1.18,4.55-1.18.71,0,1.43.06,2.18.17v-1.54h-8.13v-2.37h8.13v-1.63h-8.13v-2.48h8.13v-1.84h2.92v1.84h5.74v2.48h-5.74v1.63h5.74v2.43h-5.74v2.18c2,.64,3.94,1.55,5.8,2.73v3.2Zm-8.72-3.92v-.15c-.88-.2-1.7-.3-2.48-.3-1.89,0-2.84.54-2.84,1.63,0,.51.22.91.67,1.21.44.3,1.06.44,1.85.44,1.02,0,1.74-.21,2.16-.65s.63-1.16.63-2.19Z"/><path class="cls-4" d="m593.78,422.82c-1.85-1.27-3.79-2.31-5.82-3.13,0,3.13-1.86,4.7-5.59,4.7-1.65,0-2.96-.37-3.94-1.12-1.02-.76-1.52-1.81-1.52-3.15,0-1.21.47-2.18,1.42-2.9,1.04-.79,2.56-1.18,4.55-1.18.71,0,1.43.06,2.18.17v-1.54h-8.13v-2.37h8.13v-1.63h-8.13v-2.48h8.13v-1.84h2.92v1.84h5.74v2.48h-5.74v1.63h5.74v2.43h-5.74v2.18c2,.64,3.94,1.55,5.8,2.73v3.2Zm-8.72-3.92v-.15c-.88-.2-1.7-.3-2.48-.3-1.89,0-2.84.54-2.84,1.63,0,.51.22.91.67,1.21.44.3,1.06.44,1.85.44,1.02,0,1.74-.21,2.16-.65s.63-1.16.63-2.19Z"/><path class="cls-4" d="m616.11,418.76h-8.09v2.71c0,1.37-.2,2.24-.6,2.62-.4.38-1.25.57-2.55.57h-3.2l-.83-2.65h3.01c.52,0,.85-.07.99-.2s.21-.46.21-.98v-2.07h-8.32v-2.6h8.32v-1.93h-7.03v-2.54h7.03v-1.97c-1.92.16-3.88.28-5.88.36l-1.31-2.62c5.81-.13,10.65-.58,14.52-1.35l1.8,2.46c-2.05.37-4.1.66-6.16.89v2.24h6.77v2.54h-6.77v1.93h8.09v2.6Z"/><path class="cls-4" d="m626.08,415.01c0,2.27-.44,4.19-1.31,5.76-.92,1.65-2.36,3.01-4.34,4.08l-2.48-2.07c1.93-.95,3.28-1.99,4.03-3.12.75-1.14,1.15-2.68,1.17-4.65h-4.95v-2.67h18.67v2.67h-5.55v6.01c0,.33.05.53.15.61.1.08.31.13.63.13h.7c.68,0,1.08-.47,1.21-1.4v-2.26l2.77.89c0,2.43-.25,3.98-.76,4.66-.42.56-1.38.85-2.86.85h-2.43c-.9,0-1.51-.13-1.82-.4-.35-.3-.53-.89-.53-1.78v-7.3h-2.31Zm9-5.5h-15.05v-2.65h15.05v2.65Z"/><path class="cls-4" d="m644.35,406.61c-.41,4.11-.61,7.83-.61,11.18,0,2.23.05,4.33.15,6.31h-2.92c-.08-1.95-.13-4.04-.13-6.27,0-3.58.18-7.32.55-11.22h2.96Zm12.85,16.47c-1.65.32-3.28.49-4.89.49-4.84,0-7.26-1.57-7.26-4.7,0-1.55.62-3.1,1.86-4.66h3.39c-1.57,1.65-2.35,3.09-2.35,4.32,0,1.44,1.45,2.16,4.36,2.16,1.48,0,3.11-.2,4.89-.59v2.99Zm-.42-12.17h-10.86v-2.86h10.86v2.86Z"/><path class="cls-4" d="m665.48,424.83h-2.75v-9.33c-.47.75-1,1.51-1.61,2.29l-1.52-2.48c1.96-2.65,3.41-5.86,4.34-9.61l2.67.49c-.32,1.31-.7,2.54-1.12,3.68v14.97Zm14.03-1.93l-2.07,2.1c-2.4-2.48-4-5.03-4.81-7.64-.38,1.38-1,2.76-1.86,4.14s-1.82,2.53-2.88,3.46l-1.99-1.95c1.47-1.23,2.67-2.75,3.62-4.55.87-1.69,1.38-3.37,1.52-5.02h-4.59v-2.62h4.78v-4.72h2.67v4.72h5.23v2.62h-4.93c.62,3.63,2.39,6.78,5.31,9.46Zm-.89-13.63l-2.2,1.1c-.63-1.16-1.33-2.21-2.1-3.17l2.12-1.02c.71.76,1.43,1.79,2.18,3.09Z"/><path class="cls-4" d="m700.57,413.42h-3.56v5.14h-2.82v-5.14h-6.39v5.23c0,1.03.27,1.73.8,2.1.61.41,1.86.61,3.75.61s3.92-.18,6.03-.53v2.9c-1.96.25-4.08.38-6.35.38-2.46,0-4.23-.35-5.33-1.06-1.14-.72-1.71-1.91-1.71-3.56v-6.08h-3.47v-2.73h3.47v-4.06h2.82v4.06h6.39v-4.06h2.82v4.06h3.56v2.73Z"/><path class="cls-4" d="m720.96,418.04c0,1.95-.76,3.49-2.27,4.64-1.51,1.14-3.53,1.71-6.05,1.71-2.03,0-3.68-.35-4.93-1.04-1.33-.72-1.99-1.7-1.99-2.94,0-.82.33-1.52.99-2.09.76-.66,1.8-1,3.11-1,1.17,0,2.32.25,3.45.76.68.31,1.2.63,1.57.95v2.48c2.07-.58,3.11-1.71,3.11-3.39,0-.9-.41-1.63-1.22-2.19s-1.94-.84-3.38-.84c-1.71,0-3.17.2-4.38.59-1.59.51-3.42,1.49-5.46,2.94v-3.11l9.46-5.88h-7.49v-2.65h12.89v2.31l-5.82,3.64c.58-.14,1.24-.21,1.99-.21,1.92,0,3.47.48,4.65,1.43,1.18.95,1.77,2.25,1.77,3.88Zm-6.71,3.6c-1.68-1.31-3.17-1.97-4.49-1.97-.86,0-1.29.22-1.29.66,0,.47.44.84,1.31,1.12.76.25,1.59.38,2.5.38.66,0,1.32-.06,1.97-.19Z"/><rect class="cls-6" x="266.96" y="309.76" width="142.33" height="30.45" rx="8.06" ry="8.06"/><path class="cls-4" d="m299.08,332.25l-2.18,2.24c-3.78-2.37-6.35-5.52-7.71-9.46-1.28,3.58-3.86,6.75-7.73,9.48l-2.41-2.08c5.62-3.43,8.42-7.89,8.42-13.38v-3.43h3.18v3.03c0,2.57.71,5.09,2.14,7.56,1.57,2.7,3.66,4.71,6.29,6.03Z"/><path class="cls-4" d="m308.73,327.09c-.97,1.28-2.16,2.56-3.56,3.83l-1.04-2.54c1.57-1.38,2.96-2.93,4.17-4.64-.1-.48-.2-.91-.32-1.29-.95.85-1.88,1.59-2.79,2.24l-.97-2.46c1-.63,1.95-1.39,2.86-2.26-.51-1.12-1.16-2.27-1.95-3.47l2.39-.89c.52.69,1,1.45,1.44,2.29.66-.83,1.24-1.67,1.74-2.5l1.63,2.03c-.56.95-1.32,1.93-2.26,2.96.86,2.4,1.29,5.02,1.29,7.87,0,1.6-.11,2.82-.34,3.66.54-.08,1.04-.17,1.52-.25v-14.63h3.56v-1.65h2.86v1.65h3.79v9.36h-.85l1.9,1.42c-.88.89-1.79,1.73-2.73,2.52.73.65,1.75,1.3,3.05,1.95l-2.1,2.18c-1.95-1.16-3.4-2.5-4.36-4.04v2.5c-1.96.68-3.97,1.22-6.01,1.63l-.66-2.54c-.45,1.59-1.53,2.39-3.24,2.39h-1.23l-.83-2.52h1.38c.76,0,1.26-.41,1.5-1.23.11-.42.17-1.16.17-2.2,0-.61,0-1.06-.02-1.38Zm6.46,4c.69-.18,1.5-.44,2.41-.76-.68-1.11-1.21-2.42-1.59-3.92h-.83v4.68Zm4.83-10.31v-1.33h-4.76v1.33h4.76Zm0,3.43v-1.33h-4.76v1.33h4.76Zm-1.46,2.2c.23.75.55,1.45.97,2.12.76-.66,1.49-1.37,2.18-2.12h-3.15Z"/><path class="cls-4" d="m347.07,328.74c0,1.64-.37,2.83-1.1,3.59-.73.75-1.91,1.13-3.51,1.13h-3.81v-2.82h3.13c.78,0,1.33-.17,1.65-.5.32-.33.49-.88.49-1.64v-6.67h-5.44c-.18,3.09-1.07,5.69-2.67,7.81-1.44,1.91-3.29,3.25-5.55,4.02v-3.03c3.32-1.86,5.03-4.8,5.14-8.81h-5.14v-2.75h5.14v-3.22h3.09v3.22h8.57v9.65Z"/><path class="cls-4" d="m372.6,325.39h-17.31v-2.9h17.31v2.9Z"/><path class="cls-4" d="m397.19,327.38c-3.66-.99-7.54-1.9-11.64-2.73v9.19h-3.13v-17.95h3.13v5.76c4.92.96,8.81,1.83,11.64,2.62v3.11Zm-4.21-7.77h-1.95v-3.17h1.95v3.17Zm2.79,0h-1.93v-3.17h1.93v3.17Z"/><rect class="cls-6" x="267.12" y="355.07" width="142.22" height="30.3" rx="8.06" ry="8.06"/><path class="cls-4" d="m282.65,372.04c-.63,1.13-1.38,2.29-2.22,3.49l-1.21-2.82c1.35-1.82,2.5-3.68,3.43-5.59v-.47h-2.98v-2.5h2.98v-3.45h2.62v3.45h2.77v2.5h-2.77v.53c.79,1.3,1.79,2.64,3.01,4.02l-1.16,2.52c-.65-.79-1.26-1.62-1.84-2.48v8.28h-2.62v-7.49Zm10.5.68l-2.29,1.25c-.78-1.62-1.67-3.08-2.67-4.38l2.24-1.14c.93,1.14,1.83,2.57,2.71,4.28Zm5.76-5.93h-2.22v9.06c0,1.41-.23,2.33-.68,2.77-.4.39-1.2.59-2.41.59h-2.27l-.78-2.67h2.27c.58,0,.92-.15,1.02-.47.06-.17.08-.43.08-.78v-8.51h-5.31v-2.65h5.29v-3.39h2.79v3.39h2.22v2.65Z"/><path class="cls-4" d="m324.12,377.46l-2.18,2.24c-3.78-2.37-6.35-5.52-7.71-9.46-1.28,3.58-3.86,6.75-7.73,9.48l-2.41-2.08c5.62-3.43,8.42-7.89,8.42-13.38v-3.43h3.18v3.03c0,2.57.71,5.09,2.14,7.56,1.57,2.7,3.66,4.71,6.29,6.03Z"/><path class="cls-4" d="m347.12,373.94c0,1.64-.37,2.83-1.1,3.59-.73.75-1.91,1.13-3.51,1.13h-3.81v-2.82h3.13c.78,0,1.33-.17,1.65-.5.32-.33.49-.88.49-1.64v-6.67h-5.44c-.18,3.09-1.07,5.69-2.67,7.81-1.44,1.91-3.29,3.25-5.55,4.02v-3.03c3.32-1.86,5.03-4.8,5.14-8.81h-5.14v-2.75h5.14v-3.22h3.09v3.22h8.57v9.65Z"/><path class="cls-4" d="m372.65,370.6h-17.31v-2.9h17.31v2.9Z"/><path class="cls-4" d="m397.25,372.59c-3.66-.99-7.54-1.9-11.64-2.73v9.19h-3.13v-17.95h3.13v5.76c4.92.96,8.81,1.83,11.64,2.62v3.11Zm-4.21-7.77h-1.95v-3.17h1.95v3.17Zm2.79,0h-1.93v-3.17h1.93v3.17Z"/><rect class="cls-6" x="500.17" y="309.71" width="232.42" height="30.59" rx="8.06" ry="8.06"/><path class="cls-4" d="m529.96,325.6l-5.25.19c-1.2.04-2.25.38-3.15,1.03-.9.64-1.35,1.34-1.35,2.11,0,1.48,1.5,2.22,4.51,2.22.89,0,2.03-.1,3.43-.3v2.86c-1.31.15-2.58.23-3.81.23-2.44,0-4.3-.46-5.59-1.38-1.13-.82-1.69-1.88-1.69-3.2s.61-2.46,1.82-3.49l-6.6.4v-2.5c.66-.07,1.38-.17,2.16-.3.75-.39,3.26-1.79,7.54-4.19h-7.24v-2.73h12.91v2.31l-7.87,4.42,10.2-.42v2.73Z"/><path class="cls-4" d="m551.51,324.76c0,2.91-.9,5.15-2.71,6.73-1.57,1.37-3.59,2.1-6.08,2.2v-2.79c1.65-.18,2.98-.74,4-1.67,1.19-1.1,1.78-2.63,1.78-4.59,0-1.24-.35-2.31-1.04-3.2-.73-.96-1.77-1.59-3.11-1.88-.69,5.22-1.72,8.95-3.09,11.2-.83,1.37-1.93,2.05-3.28,2.05-1.16,0-2.19-.58-3.09-1.74-1-1.27-1.5-2.89-1.5-4.87,0-2.67.87-4.9,2.6-6.71,1.79-1.85,4.1-2.77,6.92-2.77,2.65,0,4.76.75,6.33,2.26,1.51,1.47,2.27,3.39,2.27,5.78Zm-10.03-5.29c-1.64.25-2.95,1.04-3.94,2.37-.92,1.26-1.38,2.71-1.38,4.36,0,1.03.22,1.92.66,2.67.38.65.75.97,1.12.97.47,0,.99-.66,1.57-1.97.85-1.95,1.5-4.75,1.97-8.4Z"/><path class="cls-4" d="m572.15,332.48c-1.85-1.27-3.79-2.31-5.82-3.13,0,3.13-1.86,4.7-5.59,4.7-1.65,0-2.96-.37-3.94-1.12-1.02-.76-1.52-1.81-1.52-3.15,0-1.21.47-2.18,1.42-2.9,1.04-.79,2.56-1.18,4.55-1.18.71,0,1.43.06,2.18.17v-1.54h-8.13v-2.37h8.13v-1.63h-8.13v-2.48h8.13v-1.84h2.92v1.84h5.74v2.48h-5.74v1.63h5.74v2.43h-5.74v2.18c2,.64,3.94,1.55,5.8,2.73v3.2Zm-8.72-3.92v-.15c-.88-.2-1.7-.3-2.48-.3-1.89,0-2.84.54-2.84,1.63,0,.51.22.91.67,1.21.44.3,1.06.44,1.85.44,1.02,0,1.74-.21,2.16-.65s.63-1.16.63-2.19Z"/><path class="cls-4" d="m593.32,332.48c-1.85-1.27-3.79-2.31-5.82-3.13,0,3.13-1.86,4.7-5.59,4.7-1.65,0-2.96-.37-3.94-1.12-1.02-.76-1.52-1.81-1.52-3.15,0-1.21.47-2.18,1.42-2.9,1.04-.79,2.56-1.18,4.55-1.18.71,0,1.43.06,2.18.17v-1.54h-8.13v-2.37h8.13v-1.63h-8.13v-2.48h8.13v-1.84h2.92v1.84h5.74v2.48h-5.74v1.63h5.74v2.43h-5.74v2.18c2,.64,3.94,1.55,5.8,2.73v3.2Zm-8.72-3.92v-.15c-.88-.2-1.7-.3-2.48-.3-1.89,0-2.84.54-2.84,1.63,0,.51.22.91.67,1.21.44.3,1.06.44,1.85.44,1.02,0,1.74-.21,2.16-.65s.63-1.16.63-2.19Z"/><path class="cls-4" d="m615.65,328.42h-8.09v2.71c0,1.37-.2,2.24-.6,2.62-.4.38-1.25.57-2.55.57h-3.2l-.83-2.65h3.01c.52,0,.85-.07.99-.2s.21-.46.21-.98v-2.07h-8.32v-2.6h8.32v-1.93h-7.03v-2.54h7.03v-1.97c-1.92.16-3.88.28-5.88.36l-1.31-2.62c5.81-.13,10.65-.58,14.52-1.35l1.8,2.46c-2.05.37-4.1.66-6.16.89v2.24h6.77v2.54h-6.77v1.93h8.09v2.6Z"/><path class="cls-4" d="m625.62,324.67c0,2.27-.44,4.19-1.31,5.76-.92,1.65-2.36,3.01-4.34,4.08l-2.48-2.07c1.93-.95,3.28-1.99,4.03-3.12.75-1.14,1.15-2.68,1.17-4.65h-4.95v-2.67h18.67v2.67h-5.55v6.01c0,.33.05.53.15.61.1.08.31.13.63.13h.7c.68,0,1.08-.47,1.21-1.4v-2.26l2.77.89c0,2.43-.25,3.98-.76,4.66-.42.56-1.38.85-2.86.85h-2.43c-.9,0-1.51-.13-1.82-.4-.35-.3-.53-.89-.53-1.78v-7.3h-2.31Zm9-5.5h-15.05v-2.65h15.05v2.65Z"/><path class="cls-4" d="m643.88,316.27c-.41,4.11-.61,7.83-.61,11.18,0,2.23.05,4.33.15,6.31h-2.92c-.08-1.95-.13-4.04-.13-6.27,0-3.58.18-7.32.55-11.22h2.96Zm12.85,16.47c-1.65.32-3.28.49-4.89.49-4.84,0-7.26-1.57-7.26-4.7,0-1.55.62-3.1,1.86-4.66h3.39c-1.57,1.65-2.35,3.09-2.35,4.32,0,1.44,1.45,2.16,4.36,2.16,1.48,0,3.11-.2,4.89-.59v2.99Zm-.42-12.17h-10.86v-2.86h10.86v2.86Z"/><path class="cls-4" d="m665.01,334.49h-2.75v-9.33c-.47.75-1,1.51-1.61,2.29l-1.52-2.48c1.96-2.65,3.41-5.86,4.34-9.61l2.67.49c-.32,1.31-.7,2.54-1.12,3.68v14.97Zm14.03-1.93l-2.07,2.1c-2.4-2.48-4-5.03-4.81-7.64-.38,1.38-1,2.76-1.86,4.14s-1.82,2.53-2.88,3.46l-1.99-1.95c1.47-1.23,2.67-2.75,3.62-4.55.87-1.69,1.38-3.37,1.52-5.02h-4.59v-2.62h4.78v-4.72h2.67v4.72h5.23v2.62h-4.93c.62,3.63,2.39,6.78,5.31,9.46Zm-.89-13.63l-2.2,1.1c-.63-1.16-1.33-2.21-2.1-3.17l2.12-1.02c.71.76,1.43,1.79,2.18,3.09Z"/><path class="cls-4" d="m700.11,323.08h-3.56v5.14h-2.82v-5.14h-6.39v5.23c0,1.03.27,1.73.8,2.1.61.41,1.86.61,3.75.61s3.92-.18,6.03-.53v2.9c-1.96.25-4.08.38-6.35.38-2.46,0-4.23-.35-5.33-1.06-1.14-.72-1.71-1.91-1.71-3.56v-6.08h-3.47v-2.73h3.47v-4.06h2.82v4.06h6.39v-4.06h2.82v4.06h3.56v2.73Z"/><path class="cls-4" d="m720.49,327.7c0,1.95-.76,3.49-2.27,4.64-1.51,1.14-3.53,1.71-6.05,1.71-2.03,0-3.68-.35-4.93-1.04-1.33-.72-1.99-1.7-1.99-2.94,0-.82.33-1.52.99-2.09.76-.66,1.8-1,3.11-1,1.17,0,2.32.25,3.45.76.68.31,1.2.63,1.57.95v2.48c2.07-.58,3.11-1.71,3.11-3.39,0-.9-.41-1.63-1.22-2.19s-1.94-.84-3.38-.84c-1.71,0-3.17.2-4.38.59-1.59.51-3.42,1.49-5.46,2.94v-3.11l9.46-5.88h-7.49v-2.65h12.89v2.31l-5.82,3.64c.58-.14,1.24-.21,1.99-.21,1.92,0,3.47.48,4.65,1.43,1.18.95,1.77,2.25,1.77,3.88Zm-6.71,3.6c-1.68-1.31-3.17-1.97-4.49-1.97-.86,0-1.29.22-1.29.66,0,.47.44.84,1.31,1.12.76.25,1.59.38,2.5.38.66,0,1.32-.06,1.97-.19Z"/><rect class="cls-6" x="500.17" y="354.89" width="232.42" height="30.59" rx="8.06" ry="8.06"/><path class="cls-4" d="m529.96,370.78l-5.25.19c-1.2.04-2.25.38-3.15,1.03-.9.64-1.35,1.34-1.35,2.11,0,1.48,1.5,2.22,4.51,2.22.89,0,2.03-.1,3.43-.3v2.86c-1.31.15-2.58.23-3.81.23-2.44,0-4.3-.46-5.59-1.38-1.13-.82-1.69-1.88-1.69-3.2s.61-2.46,1.82-3.49l-6.6.4v-2.5c.66-.07,1.38-.17,2.16-.3.75-.39,3.26-1.79,7.54-4.19h-7.24v-2.73h12.91v2.31l-7.87,4.42,10.2-.42v2.73Z"/><path class="cls-4" d="m551.51,369.93c0,2.91-.9,5.15-2.71,6.73-1.57,1.37-3.59,2.1-6.08,2.2v-2.79c1.65-.18,2.98-.74,4-1.67,1.19-1.1,1.78-2.63,1.78-4.59,0-1.24-.35-2.31-1.04-3.2-.73-.96-1.77-1.59-3.11-1.88-.69,5.22-1.72,8.95-3.09,11.2-.83,1.37-1.93,2.05-3.28,2.05-1.16,0-2.19-.58-3.09-1.74-1-1.27-1.5-2.89-1.5-4.87,0-2.67.87-4.9,2.6-6.71,1.79-1.85,4.1-2.77,6.92-2.77,2.65,0,4.76.75,6.33,2.26,1.51,1.47,2.27,3.39,2.27,5.78Zm-10.03-5.29c-1.64.25-2.95,1.04-3.94,2.37-.92,1.26-1.38,2.71-1.38,4.36,0,1.03.22,1.92.66,2.67.38.65.75.97,1.12.97.47,0,.99-.66,1.57-1.97.85-1.95,1.5-4.75,1.97-8.4Z"/><path class="cls-4" d="m572.15,377.65c-1.85-1.27-3.79-2.31-5.82-3.13,0,3.13-1.86,4.7-5.59,4.7-1.65,0-2.96-.37-3.94-1.12-1.02-.76-1.52-1.81-1.52-3.15,0-1.21.47-2.18,1.42-2.9,1.04-.79,2.56-1.18,4.55-1.18.71,0,1.43.06,2.18.17v-1.54h-8.13v-2.37h8.13v-1.63h-8.13v-2.48h8.13v-1.84h2.92v1.84h5.74v2.48h-5.74v1.63h5.74v2.43h-5.74v2.18c2,.64,3.94,1.55,5.8,2.73v3.2Zm-8.72-3.92v-.15c-.88-.2-1.7-.3-2.48-.3-1.89,0-2.84.54-2.84,1.63,0,.51.22.91.67,1.21.44.3,1.06.44,1.85.44,1.02,0,1.74-.21,2.16-.65s.63-1.16.63-2.19Z"/><path class="cls-4" d="m593.32,377.65c-1.85-1.27-3.79-2.31-5.82-3.13,0,3.13-1.86,4.7-5.59,4.7-1.65,0-2.96-.37-3.94-1.12-1.02-.76-1.52-1.81-1.52-3.15,0-1.21.47-2.18,1.42-2.9,1.04-.79,2.56-1.18,4.55-1.18.71,0,1.43.06,2.18.17v-1.54h-8.13v-2.37h8.13v-1.63h-8.13v-2.48h8.13v-1.84h2.92v1.84h5.74v2.48h-5.74v1.63h5.74v2.43h-5.74v2.18c2,.64,3.94,1.55,5.8,2.73v3.2Zm-8.72-3.92v-.15c-.88-.2-1.7-.3-2.48-.3-1.89,0-2.84.54-2.84,1.63,0,.51.22.91.67,1.21.44.3,1.06.44,1.85.44,1.02,0,1.74-.21,2.16-.65s.63-1.16.63-2.19Z"/><path class="cls-4" d="m615.65,373.59h-8.09v2.71c0,1.37-.2,2.24-.6,2.62-.4.38-1.25.57-2.55.57h-3.2l-.83-2.65h3.01c.52,0,.85-.07.99-.2s.21-.46.21-.98v-2.07h-8.32v-2.6h8.32v-1.93h-7.03v-2.54h7.03v-1.97c-1.92.16-3.88.28-5.88.36l-1.31-2.62c5.81-.13,10.65-.58,14.52-1.35l1.8,2.46c-2.05.37-4.1.66-6.16.89v2.24h6.77v2.54h-6.77v1.93h8.09v2.6Z"/><path class="cls-4" d="m625.62,369.84c0,2.27-.44,4.19-1.31,5.76-.92,1.65-2.36,3.01-4.34,4.08l-2.48-2.07c1.93-.95,3.28-1.99,4.03-3.12.75-1.14,1.15-2.68,1.17-4.65h-4.95v-2.67h18.67v2.67h-5.55v6.01c0,.33.05.53.15.61.1.08.31.13.63.13h.7c.68,0,1.08-.47,1.21-1.4v-2.26l2.77.89c0,2.43-.25,3.98-.76,4.66-.42.56-1.38.85-2.86.85h-2.43c-.9,0-1.51-.13-1.82-.4-.35-.3-.53-.89-.53-1.78v-7.3h-2.31Zm9-5.5h-15.05v-2.65h15.05v2.65Z"/><path class="cls-4" d="m643.88,361.44c-.41,4.11-.61,7.83-.61,11.18,0,2.23.05,4.33.15,6.31h-2.92c-.08-1.95-.13-4.04-.13-6.27,0-3.58.18-7.32.55-11.22h2.96Zm12.85,16.47c-1.65.32-3.28.49-4.89.49-4.84,0-7.26-1.57-7.26-4.7,0-1.55.62-3.1,1.86-4.66h3.39c-1.57,1.65-2.35,3.09-2.35,4.32,0,1.44,1.45,2.16,4.36,2.16,1.48,0,3.11-.2,4.89-.59v2.99Zm-.42-12.17h-10.86v-2.86h10.86v2.86Z"/><path class="cls-4" d="m665.01,379.67h-2.75v-9.33c-.47.75-1,1.51-1.61,2.29l-1.52-2.48c1.96-2.65,3.41-5.86,4.34-9.61l2.67.49c-.32,1.31-.7,2.54-1.12,3.68v14.97Zm14.03-1.93l-2.07,2.1c-2.4-2.48-4-5.03-4.81-7.64-.38,1.38-1,2.76-1.86,4.14s-1.82,2.53-2.88,3.46l-1.99-1.95c1.47-1.23,2.67-2.75,3.62-4.55.87-1.69,1.38-3.37,1.52-5.02h-4.59v-2.62h4.78v-4.72h2.67v4.72h5.23v2.62h-4.93c.62,3.63,2.39,6.78,5.31,9.46Zm-.89-13.63l-2.2,1.1c-.63-1.16-1.33-2.21-2.1-3.17l2.12-1.02c.71.76,1.43,1.79,2.18,3.09Z"/><path class="cls-4" d="m700.11,368.26h-3.56v5.14h-2.82v-5.14h-6.39v5.23c0,1.03.27,1.73.8,2.1.61.41,1.86.61,3.75.61s3.92-.18,6.03-.53v2.9c-1.96.25-4.08.38-6.35.38-2.46,0-4.23-.35-5.33-1.06-1.14-.72-1.71-1.91-1.71-3.56v-6.08h-3.47v-2.73h3.47v-4.06h2.82v4.06h6.39v-4.06h2.82v4.06h3.56v2.73Z"/><path class="cls-4" d="m720.49,372.87c0,1.95-.76,3.49-2.27,4.64-1.51,1.14-3.53,1.71-6.05,1.71-2.03,0-3.68-.35-4.93-1.04-1.33-.72-1.99-1.7-1.99-2.94,0-.82.33-1.52.99-2.09.76-.66,1.8-1,3.11-1,1.17,0,2.32.25,3.45.76.68.31,1.2.63,1.57.95v2.48c2.07-.58,3.11-1.71,3.11-3.39,0-.9-.41-1.63-1.22-2.19s-1.94-.84-3.38-.84c-1.71,0-3.17.2-4.38.59-1.59.51-3.42,1.49-5.46,2.94v-3.11l9.46-5.88h-7.49v-2.65h12.89v2.31l-5.82,3.64c.58-.14,1.24-.21,1.99-.21,1.92,0,3.47.48,4.65,1.43,1.18.95,1.77,2.25,1.77,3.88Zm-6.71,3.6c-1.68-1.31-3.17-1.97-4.49-1.97-.86,0-1.29.22-1.29.66,0,.47.44.84,1.31,1.12.76.25,1.59.38,2.5.38.66,0,1.32-.06,1.97-.19Z"/></g><g id="_レイヤー_9"><path class="cls-8" d="m239.13,224.18c-4.93-.4-9.4,2.63-13.41,5.52-1.81,1.3-4.56,1.92-6.37,3.23-1.06.77-2.64,2.5-3.48,3.51-2.51,2.98-3.45,10.38-3.12,14.26.22,2.61,2.08,5.62,4.53,6.56,1.94.75,6.5.03,8.25-1.09,1.75-1.12,22.92-1.44,30.37-1.95,1.33-.09,2.67-.19,3.98.04,2.47.44,4.68,2.02,7.19,2.12,2.25.09,4.53-1.18,5.51-3.21,1.45-3-.11-6.61-2.19-9.22-2.08-2.61-4.74-4.87-5.95-7.98-.74-1.91-4.69,1.74-5.67-.06-1.01-1.85-3.91-6.56-5.98-6.91-4.34-.73-4.27.2-8.12-1.93-1.16-.64-2.02-1.7-3.15-2.4s-2.76-.93-3.65.04"/><path class="cls-2" d="m284.37,183.74l-14.88-3.99c.74,8.81-3.97,17.42-10.58,23.3-6.51,5.79-14.69,9.32-22.9,12.27-1.9-2.56-7.72-4.93-8.93-7.28-3.6-6.92-8.34-13.24-13.98-18.63-5.14-4.91-11.64-9.23-18.74-8.85l-10.75,12.24c-1.49,5.34-.3,11.21,2.52,15.98s7.13,8.53,11.89,11.37c6,3.58,12.79,5.83,19.74,6.53,3,.3,13.5-.05,15.96-1.8.65-.47.8-.52,1.21-1.14.87.5,5.59-.17,6.53.19,3.14,1.2,3.6,2.01,6.96,2.02,4.5,0,8.57-2,12.55-4.11,3.57-1.89,7.7-2.05,11.27-3.94,2.36-1.25,4.13-2.16,5.79-4.26,1.4-1.78,3.64-5.78,4.21-7.97,1.8-6.88,3.03-14.89,2.13-21.94Z"/><path class="cls-2" d="m193.6,150.91c-1.37-1.96-3.67-3.05-5.93-3.84-1.41-.49-2.9-.9-4.37-.67-2.71.42-5.88,4.06-6.45,6.74s1.2,4.37,1.92,7.01c.2.71.4,1.46.24,2.18-.12.53-.43,1-.75,1.44-1.58,2.22-3.47,4.21-5.6,5.91,3.76.99,7.72,1.46,11.53.73,3.82-.73,7.48-2.74,9.68-5.94"/><path class="cls-2" d="m271.91,148.41c1.01-2.84,3.85-4.93,6.87-5.03s6,1.78,7.19,4.55c1.18,2.71.68,5.87,1.49,8.72.95,3.33,2.65,7.56,7.17,6.84.29-.05.6.13.78.36.26.32.14.8-.06,1.17-.83,1.57-2.78,1.92-4.42,2.6-6.53,2.72-10.07-2.05-14.53-4.73-1.04-.62-2.1-1.27-2.79-2.26s-.91-2.42-.18-3.38"/><path class="cls-3" d="m198.54,150.26c-.49-1.48-2.38-2.1-3.88-1.67s-2.65,1.61-3.64,2.81c-2.06,2.48-3.79,5.25-5.08,8.21-.1.23-.2.48-.15.73.07.35.42.57.74.74.94.52,1.88,1.03,2.82,1.55.29.16.61.32.94.29.36-.03.65-.29.91-.54,1.29-1.28,2.26-2.84,3.21-4.39,1.87-3.04,3.74-6.08,5.61-9.12"/><path class="cls-3" d="m267.24,148.71c.9-1.08,2.03-1.96,3.29-2.58.34-.17.73-.31,1.08-.19.22.07.4.24.56.41,2.73,2.72,5.07,5.82,6.94,9.19.29.52.57,1.09.47,1.67-.09.48-.42.87-.75,1.23-.9.99-1.84,1.94-2.81,2.85-.14.13-.32.28-.51.23-.14-.04-.23-.16-.31-.28-2.8-4.16-5.6-8.32-8.4-12.48"/><path class="cls-1" d="m200.57,176.11c-3.69,7.36-1.72,14.56-1.5,22.93.07,2.68.73,5.32,2.01,7.68,2.32,4.28,4.11,8.73,8.62,10.52,4.34,1.72,9.54.8,14.18,1.34.53,2.58.24,6.79.13,9.42-.75-.93-2.42-.87-3.3-1.53-.51-.39-1.2-.23-1.47.35-.19.41-.19.88-.16,1.33.28,3.93,2.88,7.62,6.49,9.2,3.82,1.67,8.58.91,11.66-1.91.51-.47.81-1.16.75-1.85-.14-1.52-.76-3.08-1.94-4.04-.47-.39-2.02.17-2.39-.23-.72-.78-1.09-1.81-1.14-2.93-.03-.62-.7-1-1.23-.67l-2.47,1.52-.84-7.37c1.63-.02,3.27-.22,4.86-.59,1.03-.24,2.03.51,2.05,1.57l.08,3.88c2.01-.22,2.78-.22,4.57-1.17.38-.2.37-2.39.55-3.28.19-.95-.11-.65.69-1.2s3.91-.31,4.86-.48c4.14-.74,8.43-1.55,11.9-3.92,6.49-4.43,11.77-11.59,11.77-19.76s-.59-16.6-4.58-23.54c-4.07-7.09-11.8-11.5-19.49-14.27-7.08-2.55-16-3.81-23.23-1.08-2.17.82-3.82,2.32-5.64,3.7-2.9,2.2-5.99,4.02-8.62,6.59-2.91,2.84-5.34,6.18-7.17,9.82Z"/><path class="cls-6" d="m263.34,187.56c-1.54-2.69-4.53-4.38-7.61-4.73-3.08-.35-6.21.53-8.9,2.06-.97.56-.94,1.08-1.67,1.94-1.33,1.55-2.21,3.82-2.51,5.84-.21,1.42-.95,2.83-.39,4.15.63,1.48,2,2.5,3.34,3.42,2.19,1.5,4.57,2.94,7.21,3.1,2.19.13,4.71.53,6.72-.34,1.17-.51,1.98-2.24,2.97-3.04,1.79-1.46,2.88-3.75,2.89-6.06"/><path class="cls-6" d="m224.39,185.7c-.74-.71-1.5-1.42-2.4-1.91-2.18-1.17-4.83-.89-7.28-.57-1.04.14-2.1.28-3.06.73-1.09.51-1.96,1.39-2.77,2.28-1.13,1.25-2.17,2.56-3.14,3.94-.86,1.23-1.67,2.55-1.85,4.04-.26,2.1.79,4.16,2.13,5.8,3.84,4.71,10.69,7.02,16.37,4.84,1.39-.53,2.68-1.3,3.9-2.15,1.2-.84,2.35-1.78,3.17-2.99,3.14-4.69-1.79-10.83-5.06-14.01Z"/><path class="cls-2" d="m272.87,152.68c-1.53-2.2-3.36-4.41-5.84-5.35-2.21-2.32-4.62-4.42-7.3-6.17-4.2-2.73-9.1-4.52-14.09-4.64l.23-.12c-1.31-.24-2.61-.48-3.92-.72-2.79-.51-5.67-1.02-8.45-.42-1.11.24-2.19.7-3.14,1.35-6.07-.1-12.16.83-17.89,3.02-5.98,2.29-11.95,5.98-16.47,10.5-6.95,6.95-9.6,16.98-11.99,26.51-1.62,6.5-3.11,13.91.59,19.5.26.39.63.8,1.04.97.18,1.19.44,2.38.78,3.55.37,1.27.94,2.63,2.11,3.23,2.28,1.18,4.77-1.21,5.97-3.48,3.81-7.25,4.22-15.87,7.79-23.23,3-6.18,7.93-10.97,13.51-15.08-.63,1.38-1.32,2.71-2.34,3.83-.99,1.09-2.23,1.93-3.18,3.05-.95,1.12-.66,2.07-.13,3.44,2.99-.86,4.71-1.95,7.32-3.64,2.46-1.59,4.93-3.18,7.39-4.78,1.42-.92,2.84-1.84,4.17-2.88,2.23-1.76,4.82-3,6.39-5.37.66.37.66-.13,1.32.24,1.76.99,2.8,2.33,4.27,3.73,1.77,1.68,4.45,2.68,6.07,4.5,1.83,2.06,3.42,4.48,5.68,6.06.3.21.82,1.25,1.17,1.18.28-.06,1.05-1.35,1.2-1.6.88-1.37-.4-2.93-.93-4.47-.21-.61-.41-1.22-.6-1.83,7.31,6.52,13.32,14.59,15.44,24.05.33,1.45,1.13,2.55,1.8,3.87.49.96,1.28,1.82,2.25,2.25.32,2.02.79,4.01,1.7,5.82,1.31,2.62,3.74,4.87,6.66,5.15.39.04.81.03,1.15-.17.5-.3.67-.93.77-1.5,4.29-24.12-.43-35.9-10.52-50.34Z"/><path class="cls-14" d="m204.87,212.63c.51.7,1.13,1.44,1.83,1.95.63.33,1.46,1,2.06,1.36,4.54,2.19,9.77,2.47,14.72,2.21"/><path class="cls-14" d="m228.92,219.22c4.81-.12,5.57-1.66,5.83,4.14"/><path class="cls-14" d="m268.71,200.74c-1.18,2.81-2.64,5.79-4.5,8.21-4.36,5.22-10.8,8.64-17.51,9.64-4.35.78-6.99-1.8-7.17,4.42"/><path class="cls-14" d="m236.03,155.31c-3.19,2.23-6.25,5.04-9.27,7.47-2.9,2.3-6.07,4.46-9.23,6.39-1.37.77-6.71,4.11-7.95,3.03-.96-1.75,5.93-9.43,7.52-10.62-2.01,2.16-4.68,3.8-6.97,5.66-2.85,2.24-5.45,4.97-7.11,8.22-3.93,7.2-5.59,15.74-4.17,23.85,1.29,7.3,4.91,14.14,11.5,17.91"/><path class="cls-14" d="m253.36,163.35c3.08,2.88,6.14,6.06,8.57,9.51,1.34,1.49,2.47,3.4,3.52,5.11,1.57,2.55,2.56,5.54,3.06,8.49.72,4.2.57,8.6.41,12.83-.34,4.51-.63,10.37-3.8,13.84"/><path class="cls-14" d="m231.4,136.06c-20.16-.54-38.77,12.1-44.29,31.72-11.45,27.02.61,55.97,31.46,58.56"/><path class="cls-14" d="m242.56,136.78c35.24-.26,57.22,54.42,33.01,79.06,0,0-7.11,4.66-11.78,6.33"/><path class="cls-14" d="m223.79,228.82c.23-3.67-.41-7.44.21-11.1.21-.84.26-2.59,1.05-3.06.91.55,1.83,4,2.22,5.12.54,2.32.49,5.03,1.37,7.26l.17.13c.63-.35,1.06-1.13,1.68-1.52.72-.5,1.89-.64,2.53.06.55.76.22,2.17.21,3.05,0,.19-.08.99.1,1.14.72.17,1.72.04,2.34.52.46.39.89,1.31,1.29,1.76.23.45.11,1.24.1,1.73-.06.75-.93,1.38-1.46,1.82-.19.18-.66.67-.87.81-.3.16-.67.45-.9.71-.53.43-1.3.42-1.94.54-.55.14-1.54.41-2.11.31-.29-.04-1.11-.09-1.38-.22-.3-.09-1.42-.72-1.72-.85-.7-.27-1.55-.57-2.21-.94"/><path class="cls-14" d="m223.37,228.48c-.96-.7-2.06-1.59-3.28-1.71-1.5-.06-1.4,1.52-.93,2.51.34.75.83,1.54,1.24,2.26.61,1.11,1.37,2.3,2.53,2.91"/><path class="cls-14" d="m221.85,235.98c-2.89,4.03-7.91,11.39-7.61,16.32.55,4.97,6.05,4.42,9.44,2.38,1.36-.89,2.57-2.39,2.92-3.95.93-2.96,1.37-9.83,2.65-12.7"/><path class="cls-14" d="m269.3,148.31c.04-.2.08-.74.23-.89.36-.23.95-.66,1.36-.79.31-.08.75-.13,1.05.02.67.54,1.32,1.81,1.87,2.46.89.95,1.78,2.25,2.63,3.23.27.19.57.52.73.81.46.47,1.02,1.32,1.35,1.89.54.68,1.24,1.73,1.51,2.56l-.04.26c-.59.65-1.44,1.44-2.23,1.84"/><path class="cls-14" d="m272.81,146.36c.38-.28,1.26-1.18,1.65-1.42.33-.14.96-.48,1.29-.58,1.28-.33,2.96-.55,4.28-.53,1.3.25,2.74.91,3.85,1.63,1.33,1.1,2.39,2.92,2.96,4.53.06.63.4,1.7.45,2.33.16,1.51.08,4.03.3,5.53.5,2.77.9,3.76,3.09,5.6.49.35,1.17.59,1.76.68,1.04.36,2.45.44,3.55.46"/><path class="cls-14" d="m280.37,164.26c2.07,6.19,12.32,5.16,14.64.98"/><path class="cls-14" d="m195.85,149.55c-.92-.36-2.41-1.27-3.25-.37-.17.13-1.09,1.85-1.22,2.07-.67.89-1.34,2.26-1.99,3.16-.13.24-.93,1.9-1.1,2.05-.48.47-.96,1.42-1.37,1.96-.24.56-.85.97-.99,1.57-.08.58.15,1.27.51,1.72.33.37.78.41,1.24.34"/><path class="cls-14" d="m191.57,148.58c-.93-.79-2.6-1.3-3.58-2.03-.32-.11-1.22-.58-1.55-.57-.89-.07-2.04-.16-2.92,0-1.19.35-2.55.85-3.43,1.76-1.25.78-2.31,1.98-2.92,3.33-.32,1.05-.35,2.51-.36,3.6.3,1.7,1.07,3.99,1.75,5.58.56,1.11,1.38,2.67,1.36,3.95"/><path class="cls-14" d="m179.07,161.7c-.07.15-1.57,3.48-1.6,3.49-.39.64-1.04,1.36-1.55,1.91-.84.69-1.91,1.48-2.77,2.16l-.03.17c.89.87,2.67,1.41,3.89,1.58,1.32.38,3.26.33,4.63.29.26,0,.78-.08,1.03-.19.4-.3,1.06-.61,1.53-.81"/><path class="cls-14" d="m236.1,155.74c5.96,5.01,13.02,8.54,16.94,15.6,4,.49,1.59-7.23-.58-8.28"/><path class="cls-14" d="m231.35,207.9c-.19.37-.57.95-.45,1.39.23.82.89,1.54,1.64,1.92.5.32,1.27.11,1.79-.05.84-.31,1.67-.94,2.36-1.49l.19.03c.26.32.69.91,1.1,1.05.72.24,1.73.26,2.48.21,1.46-.36,1.54-1.8,1.59-3.06"/><path class="cls-14" d="m203.73,196.45c.15-1.46.82-3.58,1.61-5.04,1.01-1.88,2.02-3.16,3.58-4.65,3.55-3.39,9.25-4.31,13.66-2.14,4.26,2.25,7.71,7.73,7.71,12.75"/><path class="cls-14" d="m203.73,196.45c1.19,4.09,5.02,7.44,8.93,8.63,4.91,1.42,10.73.71,14.68-2.69,1.48-1.29,2.38-3.16,2.95-5.01"/><path class="cls-14" d="m206.35,182.86c.54,1.28,1.18,2.72,1.8,3.97"/><path class="cls-14" d="m212.98,179.94c.23.86.49,1.84.72,2.7"/><path class="cls-14" d="m219.74,180.17c.05.65.13,2.28.19,2.93"/><path class="cls-14" d="m241.92,195.5c.51-2.8.58-5.6,3.25-8.67,2.45-2.83,5-3.41,6.95-3.88,4.1-.99,7.2.05,9.93,2.35,2.35,1.98,3.81,6.39,4.02,10.2"/><path class="cls-14" d="m241.97,196.12c1.56,5.62,8.04,8.14,13.41,8.03,5.32-.36,9.57-4.83,10.67-8.65"/><line class="cls-14" x1="248.42" y1="181.29" x2="249.13" y2="183.79"/><path class="cls-14" d="m255.33,179.93c.12.87-.3,1.84-.18,2.71"/><path class="cls-14" d="m261.46,181.6c-.17.7-.35,1.49-.5,2.19"/><path class="cls-14" d="m220.49,191.41c-.15.31-.58,1.06-.67,1.38,0,.15-.08.45-.12.6-.33.75-.28,1.89-.34,2.69-.02.44-.02,1.33.01,1.77.15.59.56,1.42.98,1.86.63.7,1.84,1.14,2.42.15.35-.5.3-1.34.35-1.92.04-.91,0-2.17-.2-3.06,0-.51-.3-1.45-.44-1.94-.17-.42-.28-1.19-.72-1.42-1.99-.12-1.69,3.28-1.77,4.59.1.64.53,3,1.37,2.87l.17-.1c.16-.35.44-.9.45-1.29.17-.46.28-1.17.27-1.66,0-.75.22-3.78-.73-3.91l-.19.05c-.33.39-.5,1.15-.54,1.65-.05.33-.2.76-.23,1.09-.02.77-.12,2.05,0,2.81.18.53.31,1.72,1.12,1.49.66-.81.62-2.23.46-3.22-.07-.56-.06-1.41-.62-1.73h-.16c-.37.21-.46,2.57-.2,2.86h.19c.14-.02.34-.28.42-.39"/><path class="cls-14" d="m254.88,191.92c-.1.15-.34.47-.37.65,0,.13-.03.38-.06.51-.28,1.09-.1,2.61.17,3.68.3.75.65,1.7,1.45,2.05,1,.55,1.46-.86,1.73-1.57.23-.89.25-2.44.3-3.36.03-.51-.03-1.25-.23-1.73-.5-1.66-1.96-2.66-2.45-.36-.32.8-.29,1.93-.3,2.77.01.95.09,2.66,1.37,2.62l.22-.12c.57-.85.41-2.2.42-3.18-.13-.65-.32-1.79-1.01-2.08-1.13-.13-.78,3-.71,3.7,0,.62.12,1.52.79,1.77l.26-.04.18-.14c.08-.25.34-.96.35-1.21.02-.24,0-.99-.01-1.25-.09-.47-.22-1.24-.54-1.61-.23.1-.24.58-.3.78-.05.66-.29,1.64-.07,2.27l.08.06c.18-.16.1-.65.12-.85-.05-.87-.18-1.98-.82-2.61l-.2.02c-.25.14-.24.64-.3.89.03.33.37.51.68.45l.06.06-.27.19"/><path class="cls-14" d="m210.26,207.67c-.26.45.07.95.23,1.36"/><path class="cls-14" d="m212.75,207.89c.01.28.03.7.15.95.05.19.07.67.08.87"/><path class="cls-14" d="m258.31,206.76c0,.41.05.71.45.91"/><line class="cls-14" x1="260.8" y1="205.63" x2="260.8" y2="206.76"/><path class="cls-14" d="m233.27,225.51c-.35-.7.25-1.09.88-1.18.21-.06.65-.22.87-.24.93-.04,2.16-.35,3.09-.32,1.3-.02,2.89-.09,4.11.41.77.49,1.07,1.85,1.93,2.26.9.55,2.12,1.23,3.18,1.39.72.33,6.99.11,8.89,4.29"/><path class="cls-14" d="m220.32,232.11c-2.52,2.02-4.71,4.7-6.09,7.61"/><path class="cls-14" d="m243.25,225.48c.21.3,1.95.47,2.31.5,1.26.11,7.26-.95,11.6-1.92"/><path class="cls-14" d="m215.41,175.71c1.03-1.68,4.51-3.12,5.84-1.03"/><path class="cls-14" d="m246.71,174.72c.22-1.02,1.08-1.87,2.1-2.08s2.15.23,2.75,1.07"/><path class="cls-12" d="m607.59,253.68c-.72-4.73-.74-10.08,1.46-14.33,1.06-2.04,2.53-4.78,4-6.54,1.6-1.91,4.35-2.36,6.26-3.96.83-.7,1.73-1.4,2.8-1.63.63-.14,1.4-.04,1.75.5.16.25.21.56.3.84.52,1.65,2.58,2.4,4.27,2.01s3.05-1.59,4.28-2.82c.33-.33.66-.66,1.08-.84.31-.13.65-.17.99-.2,1.07-.11,1.82-1.61,2.75-1.07.61.35,1.44,2.33,1.91,2.86,2.18,2.45,5.38,3.85,7.41,6.42,2.07,2.62,2.63,6.08,3.85,9.2.51,1.31,1.16,2.62,1.18,4.03.04,2.59-2.03,4.72-4.17,6.18-5.21,3.55-11.56,5.02-17.81,5.77-3.9.47-7.86.69-11.74.08s-7.69-2.08-10.64-4.67"/><path class="cls-1" d="m590.6,174.58c-2.88,6.38-5.4,13.05-5.92,20.03s1.18,14.37,5.85,19.58c2.99,3.32,7.1,5.62,11.49,6.42,6.35,1.15,13.04-.75,19.27.93.92.25,1.88.61,2.46,1.38.65.88,1.1,4.83,1.67,5.76.72,1.16,3.42,1.28,4.79,1.18.55-.04,2.61-1.71,2.91-2.13.45-.62-1.32-3.02-.58-3.36-.44-1.31-.68-.84-.46-2.2,6.6-1.65,13.2-3.31,19.8-4.96,2.38-.6,4.82-1.22,6.84-2.62,2.52-1.74,4.11-4.49,5.62-7.15,4.21.57,8.65-.8,11.81-3.64.76-.68,1.46-1.47,1.81-2.42.85-2.28,1.18-7.15-.84-8.49-2.03-1.34-4.04-2.38-6.45-2.71,1.46-6.58-2.65-10.67-6.23-16.39-3.57-5.72-8.69-10.31-14.04-14.41-3.89-2.99-7.99-5.79-12.58-7.49-4.54-1.68-9.44-2.23-14.28-2.28-4.63-.04-9.34.38-13.68,1.99-4.76,1.77-7.71,4.31-10.32,8.46-3.09,4.94-6.51,9.14-8.95,14.55Z"/><path class="cls-6" d="m609.33,184.26c-2.71-2.08-6.46-3.06-9.65-1.83-3.56,1.38-5.68,5.14-6.49,8.87-.67,3.09-.62,6.39.52,9.35,1.14,2.95,3.43,5.52,6.38,6.65,4.43,1.69,9.83-.28,12.49-4.2,1.82-2.69,3.22-7.39,2.54-10.65-.63-3-3.43-6.37-5.8-8.19Z"/><path class="cls-6" d="m625.5,198.63c.63,1.48,1.51,2.85,2.52,4.1,1,1.23,2.14,2.37,3.48,3.22,3.2,2.04,7.46,2.29,10.87.63,3.82-1.85,6.32-5.84,7.08-10.01.59-3.24.22-6.69-1.35-9.59s-4.37-5.16-7.6-5.78c-1.19-.23-2.42-.23-3.63-.24-1.85,0-4.3-.45-6.06.3-1.8.76-3.3,2.81-4.25,4.43-1.14,1.93-1.84,4.13-2.04,6.36-.1,1.16-.07,2.33.11,3.48.15.96.88,2.18.88,3.09Z"/><path class="cls-13" d="m648.93,190.27c-.09,2.94-.23,6.03-1.68,8.55-1.43,2.48-3.96,4.06-6.54,5.13-1.64.68-3.37,1.2-5.13,1.15-2.57-.07-4.95-1.31-7.24-2.53.95,2.66,3.5,4.46,6.18,4.98,2.68.52,5.45-.1,7.99-1.15,2.11-.87,4.18-2.12,5.42-4.1.64-1.02,1.03-2.19,1.33-3.36.75-2.91.95-6.12-.29-8.84"/><path class="cls-13" d="m614.66,193.01c.52,4.65-2.17,9.5-6.32,11.36-4.53,2.03-9.88.54-14.09-2.14,1.1,1.09,1.57,2.73,2.68,3.81,1.31,1.27,3.24,1.51,5.03,1.69,1.83.18,3.72.36,5.49-.16,3.03-.89,5.2-3.68,6.58-6.61,1.2-2.56,1.94-5.62.82-8.22"/><path class="cls-9" d="m683.72,165.74c-1.86-7.82-6.49-14.94-12.51-20.01-6.02-5.07-12.44-7.4-19.63-9.37-3.6-.98-6.32-1.19-9.91-1.02-.17.15-.4.26-.6.38-.05-.1-.09-.15-.17-.24-1.73-1.86-5.13-1.75-7.16-2.7-2.99-1.4-5.05-3.29-6.68-5.94-2.13-3.45-3.13-7.58-5.83-10.51-.85-.92-.16-2.83-1.61-2.8-3.06.07-6.11,3.45-6.85,6.31-1.23,4.76-.26,8.81,1.9,13.02.42.82,1.02,1.41,1.55,2.12-3.18-.92-5.87-2.25-8.74-3.91-.69-.4-1.78-.15-1.88.88-.42,4.55,1.99,7.99,5.31,10.95-4.38-1.24-8.49-1.77-13.1-2.38-1.94-.25-4.34-.21-6.42.29s-3.85,1.59-4.88,3.56c5.88,1.77,11.77,3.12,17.87,3.9-7.59.57-13.17,3.98-18.03,9.73-2.2,2.6-4.88,4.64-5.83,8.05-.95,3.41-.17,7.02,2.36,9.54,8.14-6.72,16.43-13.2,24.87-19.52.82-.62,1.9.22,1.54,1.19-1.72,4.63-3.64,9.15-4.97,13.94-.56,2.01,1.33,4.96,3.45,4.57,4.94-.91,8.23-4.48,11.45-7.77,4.15-4.25,7.37-7.62,9.59-13.05-.83,7.34.72,9.41,7.01,13.3.44.27,3.02.29,3.75.02,1.11,1,1.82,1.85,3.1,2.69,1.14.76,2.58,1.28,4.04,1.64,1.46.36,3.28-.21,4.75-.48.86,1.12,1.35,1.96,2.41,3.06,1.61,1.67,4.76,3.43,6.53,4.75,3.25,2.41,5.94,4.45,9.13,6.6.91.62,1.73,1.18,2.8,1.31,1.32.16,2.49-.33,3.62-.96,2.68-1.51,4.99-3.37,7.05-5.63.55-.6,1.05-1.2,1.16-2.04.2-1.49-.58-2.71-1.46-3.92-1.91-2.6-4.23-5.01-6.07-7.67.7.1,1.42.19,2.11.27,1.11.14,2.17.29,3.29.35.41.02.9.1,1.26-.22.64-.57.63-1.38.42-2.27Z"/><path class="cls-14" d="m595.53,166.09c-8.29,13.65-10.84,28.52-7.07,42.15,1,3.62,2.88,7.34,6.23,9.27,6.85,3.66,14.97,2.68,22.4,3.94,2.04.4,4.61.42,6.28,1.77,1.09,1.08,2.63,3.89,2.06,5.45"/><path class="cls-14" d="m659.04,213.15c-6.3,3.66-13.4,6.07-20.65,6.81-1.66.24-3.49.41-5.12.8-2.17.47-.39,4.71.27,6.36"/><path class="cls-14" d="m601.99,182.22c-3.28.77-5.69,1.49-7.43,4.64-1.85,3.89-2.48,9.31-1.39,13.49,1.93,4.89,7.17,8.56,12.5,7.92,1.65-.32,3.66-.82,5.07-1.78,1.65-1.37,3-3.34,3.62-5.4.86-2.98,1.38-6.37.45-9.38-1.03-3.21-3.34-6.13-6.15-7.97-1.6-1.01-3.58-1.47-5.45-1.63"/><path class="cls-14" d="m594.03,201.66c.62,1.36,2.07,2.1,3.43,2.54,2.32.86,4.92.94,7.36.68,1.17-.19,2.82-.55,3.89-1.06,1.89-1.02,3.71-2.59,4.69-4.52.8-1.73,1.08-3.81,1.44-5.67"/><path class="cls-14" d="m632.2,181.58c-1.16.28-2.55.6-3.46,1.42-1.94,1.61-2.89,4.16-3.65,6.49-.25.81-.29,1.83-.44,2.66-.18.54-.27,1.3-.25,1.87.28,1.84.85,4.42,1.6,6.12.36.95,1.17,1.95,1.75,2.78,1.22,1.53,2.98,2.76,4.78,3.51,1.6.65,3.44,1.3,5.18,1.3,6.69-.31,10.76-4.68,11.78-11.13.49-3.09,0-6.37-1.57-9.09-.94-1.68-2.1-3.39-3.68-4.53-3.03-2.08-8.13-1.76-11.69-1.58"/><path class="cls-14" d="m627.01,201.75c2.52,3.12,7.08,2.97,10.73,2.77,7.51-.42,11.06-6.52,11.19-13.48"/><path class="cls-14" d="m635.73,164.01c2.54,3.5,5.39,7.6,9.83,8.66,1.17.21,2.43-.1,3.6-.19,1.29-.12,2.59.45,3.51,1.33,1.79,1.72,3.53,3.71,5.57,5.16,2.08,1.69,4.65,3,6.82,4.55"/><path class="cls-14" d="m643.37,135.69c2.48-.19,4.69-.45,7.19.04,1.9.37,3.61,1.06,5.61,1.74,2.23.75,4.71,2.26,6.86,3.41,7.59,5.66,14.31,12.03,19.02,20.3.95,1.99,2.33,4.36.67,6.31-1.26.38-2.4.07-3.66-.27-.79-.21-1.72-.4-2.5-.67-.55-.19-.98-.54-1.56-.62-.06.05-.12.1-.18.15,0,1.14.97,2.02,1.51,2.93.53.91,1.14,1.49,1.78,2.31,1.05,1.34,2.04,2.85,3.06,4.24.77.85,1.33,1.81,1.89,2.81.16.84.37,1.77-.11,2.56-.54.88-1.42,1.49-2.13,2.27-.48.53-1.18.89-1.71,1.42-.68.68-1.34,1.39-2.17,1.95-.26.17-.58.28-.93.42-.49.21-1.21.7-1.67.94-.63.33-1.18.39-1.79.68-.06-.02-.12-.04-.18-.06-.02-.27.02-.52.11-.78-.01,0-.03,0-.04,0-.07.16-.15.32-.22.49"/><path class="cls-14" d="m666.53,193.55c.41-1,.77-2.64,1.85-3.15.65-.59,1.53-.41,2.31-.25,2.07.44,3.95,1.78,5.29,3.39.83.97,1.74,2.11,2.27,3.29,1.42,3.13.05,6.31-2.75,8.08-.93.5-2.21,1.11-3.23,1.4-.62.06-1.31.34-1.93.43-1.78.09-4.31.22-5.07-1.8"/><path class="cls-14" d="m598.72,192.15c-.79,1.25-2.2,3.04-1.26,4.54,1.11,1.89,4.07.84,4.58-1.02.47-1.47-.41-3.54-2.15-3.43-1.58.12-2.52,2.18-1.82,3.52.56.75,1.69.63,2.36.1.59-.44.95-1.22.95-1.95-.04-1.59-1.64-2.08-2.36-.57-.5,1.01.23,2.38,1.39,1.63.3-.25.59-.68.49-1.09l-.05-.05-.87-.46c-.39.58.62,1.89.71,2.53"/><path class="cls-14" d="m629.99,191.52c-.76.74-1.73,1.64-1.54,2.81.22,1.34,1.87,2.08,3.05,1.47,1.12-.48,1.52-2.32.32-2.94-.92-.42-1.93.67-1.54,1.56.35.7,1.36.44,1.67-.16.36-.88-.63-.81-1-.26-.46.52-.67,1.88.28,1.94,1-.25.98-1.7.37-2.35-.35-.4-1.02-.51-1.4-.11-.59.61-.37,1.69.24,2.21.95.68,1.84-.17,1.78-1.2-.04-.93-.57-1.83-1.31-2.38-.88-.61-1.77-.24-1.78.87-.02,1.93,2.38,2.75,3.04.73.36-1.32-1.06-2.61-2.19-1.58-.62.65-.48,1.66-.33,2.47"/><path class="cls-14" d="m640.53,135.33c-2.41-.41-4.97-1.02-7.04-2.36-4.02-2.91-6.71-7.32-9.02-11.62-.93-1.69-1.68-3.7-2.63-5.38-.54-.62-1.19-2.02-2.16-1.99-.16.08-.79.42-.98.48-.45.24-1.1.75-1.54,1-.64.53-1.35,1.34-1.86,2-1.46,2.07-2.82,4.5-3.02,7.07-.17,2.28.46,4.6,1.56,6.6.8,1.64,2.09,3.33,3.41,4.57,1.73,1.73,5.31,3.28,7.72,3.63"/><path class="cls-14" d="m624.52,139.93c-3.03-.72-6.37-1.73-9.06-3.34-.37-.23-1.35-.81-1.67-1.09-.38-.39-.98-.84-1.43-1.13-1.21-1.1-3.14-1.85-4.47-2.77-.25-.27-.64-.61-.96-.81-.25-.17-.5-.56-.83-.59-.36.06-.56.34-.64.68-.56,1.02-.58,2.41-.49,3.54.44,2.82,1.91,4.26,4.37,5.52"/><path class="cls-14" d="m609.02,143.35c-1.42-.92-3.19-2.11-4.85-2.51-.74-.08-1.7-.13-2.43-.33-1.02-.17-2.45-.36-3.48-.42-1.31-.01-4.08.37-5.41.5-.31.05-1.6.17-1.87.31-1.41.63-3.93,1.73-5.11,2.74l-.04.21c.52.84,2.44,1.26,3.29,1.6.89.39,2.89,1.21,3.82,1.42,1.11.32,2.81.47,3.93.7.7.07,2.19.26,2.87.42.46.11,3.28.2,3.8.23-2.31.1-5.61,1.75-7.77,2.52-1.24.62-2.69,1.34-3.74,2.26-2.19,1.56-4.43,3.48-6.15,5.55-2.47,2.96-5.01,6.28-5.43,10.24-.27,2.03-.35,4.49,1.22,6.05,2.09,1.89,2.22.06,3.51-1.38,1.18-1.47,2.71-2.77,4.21-3.9,4.83-3.62,10.14-6.9,15.12-10.32.92-.54,4.1-3.21,4.87-2.94l.09.17c0,.62-.4,1.33-.64,1.89-.36.74-.87,1.76-1.24,2.51-1.41,3.07-2.97,6.32-3.02,9.77,0,1.1-.14,2.57.27,3.62.92,2.17,3.61,1.73,5.42,1.09,1.81-.72,3.13-2.46,4.61-3.66,1.24-1,2.66-2.09,3.79-3.21.97-.74,2.23-1.63,3.09-2.51,2.13-2.23,4.11-4.92,5.49-7.68.62-1.4,1.77-3.26,1.86-4.8-.51.64-.49,1.71-.6,2.49-.37,3.57,1.38,7.07,3.44,9.87,1.47,1.88,3.59,2.43,5.83,2.81"/><path class="cls-14" d="m594.96,177.87c.4-1.18,1.07-2.04,2.31-2.39,1.13-.22,2.43-.31,3.51.16"/><path class="cls-14" d="m629.81,172.55c.3-.31,1.06-1.17,1.45-1.36.87-.1,1.97-.36,2.86-.3,1.28.03,2.68.3,3.75,1.04.23.17.87.63,1.11.77.22.16.57.64.71.87"/><path class="cls-14" d="m665.39,204.74c.05,1.18-.76,2.52-1.27,3.54-.3.4-1.07,1.45-1.27,1.9"/><path class="cls-14" d="m630.8,191.96c-.19-.03-.7-.14-.88-.03-.13.22-.54.81-.56,1.06-.14,1.05-.13,2.32.56,3.19.74.74,1.77,1.05,2.57.2.53-.62,1.09-1.44,1.06-2.29-.05-1.7-1.01-3.14-2.83-2.26-.82.51-1.16,1.63-.91,2.55.21.95.66,1.89,1.79,1.8.55-.06.92-.57,1.18-1.02.45-.79.41-1.89-.17-2.6-.58-.53-1.66-.56-2.1.16-.29.62-.26,1.06.29,1.49"/><path class="cls-14" d="m624.04,227.56c-.21,1,.66,1.97,1.65,2.23s2.64.73,3.6.4c1.26-.43,2.68-1.02,3.75-1.81,3.14-2.28,2.49-3.29,4-3.04.8.13,1.15,1.83,1.82,2.28,5.58,3.72,9.92,9.27,12.18,15.59"/><path class="cls-14" d="m621.83,227.14c-3.56,1.77-7.18,3.7-10.1,6.44l-.71,2.59c-2.53,2.76-3.85,6.6-3.54,10.33"/><rect class="cls-17" x="256.51" y="199.04" width="28.03" height="35.51" rx="3.07" ry="3.07" transform="translate(30 -32.86) rotate(7.36)"/><path class="cls-1" d="m253.86,232.27c1.7,1.06,3.49,1.96,5.36,2.68.74.29,1.77.45,2.16-.24.18-.33.13-.74.07-1.11-.3-1.88.33-4.08.44-6.11.02-.33.47-.4.58-.09.84,2.38,1.4,4.78,3.26,6.53.33-2.43.2-4.28.83-6.45.11-.39.68-.37.78.02.43,1.67.77,3.04,1.82,4.68.42-2.37,1.54-4.62,3.18-6.38.68,3.29,1.78,6.79-.19,10.74,1.2-.58,2.6-.73,3.89-.43-1.7,1.95-2.89,4.33-3.44,6.85-.2.92-.37,1.95-1.1,2.53-.36.29-.81.43-1.25.56-1.5.46-4.24,1.96-5.78,1.17-1.16-.6-2.04-2.92-2.83-3.93-1.41-1.81-2.86-3.57-4.18-5.45-.97-1.38-2.26-4.7-3.61-5.58Z"/><path class="cls-14" d="m263.76,245.79c-2.14-3.06-4.83-6.21-6.96-9.28-.68-1.28-1.99-2.83-2.67-4.12v-.19c.35-.13.94.25,1.24.39.82.4,1.64,1.05,2.4,1.53,1.18.48,3.99,2.23,4.09.81.11-1.56-1.39-6.97-.44-8.37.56.17.81.88,1.09,1.34.48.82,1.06,1.82,1.46,2.68.41.69,1.02,2.77,1.73,2.97,1.26-.39.57-6.05,1.11-7.44l.14-.03c.67,1.24.96,2.79,1.46,4.11.27.67.48,1.57,1.04,2.06l.17.03c.56-.26.6-1.25.79-1.78.24-.94.55-2.07.82-3,.14-.41.31-1.07.59-1.41l.17.04c1.01,2.14.87,4.64,1.16,6.94.01.39-.06,1.23-.11,1.62-.07.51-.29,1.47-.1,1.98l.19.13c.83-.21,1.65-.94,2.57-.75l.21.17c.22.92-.41,1.8-1,2.45-.35.45-.9,1.12-1.28,1.53-1.17,1.73-1.36,4.34-2.57,6.02l-.1-.02c-.04-.14,0-.57.02-.71"/><path class="cls-14" d="m263.44,245.17c1.19,1.34,2.3,2.04,4.14,1.67.77-.14,1.65-.45,2.38-.72.86-.32,1.71-.68,2.13.44.67,2.45,1.77,5.2.73,7.69-.97,2.09-3.84,3.53-6.07,2.83-2.1-.73-2.51-3.18-2.71-5.12-.28-2.02-.39-4.13-.17-6.16"/><path class="cls-14" d="m616.71,215.35c1.19.06,8.5.14,9.68,0"/><path class="cls-12" d="m301.86,229.3c-2.54-1.77-4.83-4.06-6.48-6.69l-.11-.17c-.1-.21-.12-.24-.07-.08-.01.02-.03.44-.06.4s.68-.4.74-.43c.83-.41,1.66-.81,2.49-1.22,1.74-.85,3.48-1.71,5.22-2.56.73-.36.93-1.39.54-2.05-.43-.74-1.32-.9-2.05-.54-2.02.99-4.03,1.98-6.05,2.97-1.69.83-4.46,1.87-3.67,4.32.29.9.97,1.71,1.53,2.45.6.79,1.22,1.56,1.9,2.29,1.37,1.47,2.91,2.76,4.55,3.91.67.46,1.67.12,2.05-.54.44-.75.13-1.59-.54-2.05h0Z"/><path class="cls-12" d="m295.98,224.51c8.64.97,17.29,1.93,25.93,2.88,8.8.97,17.62,2.23,26.46,2.78,5.52.34,11.11.31,16.55-.8,1.89-.38,1.09-3.28-.8-2.89-9.15,1.86-18.68.53-27.85-.49-8.83-.99-17.65-1.96-26.48-2.94-4.61-.51-9.21-1.02-13.81-1.54-1.92-.22-1.9,2.79,0,3h0Z"/></g></g></g></svg>