<?xml version="1.0" encoding="UTF-8"?><svg xmlns="http://www.w3.org/2000/svg" viewBox="0 0 855.67 311.23"><defs><style>.cls-1{fill:#fde8cf;}.cls-1,.cls-2,.cls-3,.cls-4,.cls-5,.cls-6,.cls-7,.cls-8,.cls-9,.cls-10,.cls-11,.cls-12,.cls-13{stroke-width:0px;}.cls-2{fill:#b88c67;}.cls-14,.cls-15{stroke-width:1.5px;}.cls-14,.cls-15,.cls-16{stroke:#63499b;stroke-linecap:round;stroke-linejoin:round;}.cls-14,.cls-17,.cls-5{fill:none;}.cls-15,.cls-12{fill:#ef7c26;}.cls-17{stroke:#2c416b;stroke-dasharray:0 0 1.68 1.68;stroke-miterlimit:10;stroke-width:.84px;}.cls-18{isolation:isolate;}.cls-3{fill:#e83646;}.cls-4{fill:#172a88;}.cls-16{fill:#1180c3;stroke-width:2.23px;}.cls-6{fill:#fff;}.cls-7{fill:#2c416b;mix-blend-mode:hard-light;opacity:.5;}.cls-8{fill:#f5da4c;}.cls-9{fill:#95aab6;}.cls-10{fill:#f2ec4a;}.cls-11{fill:#e95a9a;}.cls-13{fill:#a5a19f;}</style></defs><g class="cls-18"><g id="_レイヤー_2"><g id="_レイヤー_6"><rect class="cls-5" width="855.67" height="311.23"/></g><g id="_レイヤー_8"><rect class="cls-6" x="143.43" y="34.88" width="355.42" height="30.85" rx="8.06" ry="8.06"/><path class="cls-4" d="m162.15,55.42c-1.74.73-3.79,1.37-6.16,1.91l-.47-2.86c.82-.11,1.64-.27,2.48-.46v-5.76h-2.12v-2.69h2.12v-4.57h2.67v4.57h1.88v2.69h-1.88v4.97c.62-.21,1.24-.47,1.86-.76v.66c.75-.66,1.42-1.35,2.01-2.07h-2.46v-2.12h13.29v2.12h-8.06c-.13.17-.31.42-.55.74h7.87v4.11c0,1.74-.15,2.82-.43,3.25-.29.43-1.04.65-2.25.65h-1.5l-.59-2.14h1.25c.49,0,.8-.11.91-.34.11-.23.17-.84.17-1.84v-1.65h-.25c-.92,2.27-2.21,4.3-3.87,6.08l-2.31-.99c1.55-1.57,2.81-3.26,3.77-5.08h-.89c-1.26,1.99-2.76,3.73-4.51,5.23l-2.24-1.16c1.59-1.19,2.97-2.54,4.13-4.06h-.97c-.69.73-1.41,1.4-2.16,2.01l-.72-.4Zm11.92-7.24h-10.84v-6.92h10.84v6.92Zm-2.67-4.15v-.72h-5.5v.72h5.5Zm0,2.37v-.72h-5.5v.72h5.5Z"/><path class="cls-4" d="m182.35,41.58c-.41,4.11-.61,7.83-.61,11.18,0,2.23.05,4.33.15,6.31h-2.92c-.08-1.95-.13-4.04-.13-6.27,0-3.58.18-7.32.55-11.22h2.96Zm12.85,16.47c-1.65.32-3.28.49-4.89.49-4.84,0-7.26-1.57-7.26-4.7,0-1.55.62-3.1,1.86-4.66h3.39c-1.57,1.65-2.35,3.09-2.35,4.32,0,1.44,1.45,2.16,4.36,2.16,1.48,0,3.11-.2,4.89-.59v2.99Zm-.42-12.17h-10.86v-2.86h10.86v2.86Z"/><path class="cls-4" d="m210.77,58.72h-10.52v-2.71h3.87v-10.25l-2.77,2.12-1.57-2.22,4.7-3.56h2.79v13.91h3.49v2.71Z"/><path class="cls-4" d="m217.08,52.12c-.66,1.19-1.41,2.36-2.24,3.54l-1.21-2.82c1.37-1.83,2.52-3.71,3.45-5.63v-.4h-3.05v-2.52h3.05v-3.28h2.65v3.28h2.73v2.52h-2.73v.61c.55.88,1.16,1.72,1.82,2.54,1.51-2.61,2.62-5.7,3.32-9.27l2.65.44c-.23.96-.46,1.86-.7,2.69h6.41v2.6h-1.48c-.24,3.02-1,5.6-2.29,7.75.99,1.13,2.34,2.25,4.04,3.37l-1.74,2.41c-1.57-1.14-2.88-2.33-3.94-3.58-1.17,1.34-2.62,2.55-4.36,3.62l-1.78-2.35c2-1.1,3.53-2.26,4.57-3.47-.8-1.35-1.41-2.8-1.82-4.34-.42.85-.84,1.62-1.25,2.31l-.72-.89-1.08,2.39c-.59-.71-1.15-1.45-1.67-2.22v8.4h-2.65v-7.71Zm10.73-.34c.71-1.48,1.16-3.27,1.35-5.36h-2.88c.2,2.02.71,3.8,1.52,5.36Z"/><path class="cls-4" d="m249.47,50.49c0,3.13-.38,5.36-1.14,6.67s-2.03,1.97-3.81,1.97c-1.12,0-2.17-.19-3.15-.57v-2.88c1.07.4,2,.59,2.77.59.86,0,1.47-.48,1.84-1.44.35-.9.53-2.35.53-4.34,0-1.28-.15-2.12-.43-2.51-.29-.39-.9-.58-1.83-.58h-2.12c-.78,3.95-1.82,7.84-3.13,11.66h-3.32c1.55-3.61,2.73-7.5,3.54-11.66h-3.43v-2.69h3.87c.17-1.14.3-2.22.4-3.22h3.05c-.13.96-.29,2.03-.49,3.22h1.95c1.83,0,3.08.33,3.73,1,.79.8,1.19,2.4,1.19,4.78Zm.97-6.88h-1.84v-3.03h1.84v3.03Zm4.25,8.97h-3.03c-.31-3.25-1.14-6-2.5-8.28h3.22c1.21,2.37,1.98,5.13,2.31,8.28Zm-1.59-8.97h-1.84v-3.03h1.84v3.03Z"/><path class="cls-4" d="m264.09,48.82c-.44,2.61-1.13,4.76-2.07,6.46-.89,1.61-2.22,3.17-3.98,4.7l-1.99-2.01c1.81-1.3,3.17-2.77,4.09-4.42-.64-.62-1.16-1.12-1.57-1.48l-.06.08c-.34.52-.7,1.01-1.08,1.46l-1.52-2.33c1.51-1.9,2.52-4.28,3.03-7.13h-2.35v-2.6h8.04v2.5l2.27-.25c-.06-1.03-.11-1.98-.15-2.84h2.54c.03.89.06,1.74.11,2.56l1.8-.21c-.38-.45-.81-.9-1.29-1.33l1.71-1.29c.69.59,1.31,1.23,1.86,1.91l-.74.55,2.29-.25v2.24l-5.5.66c0,.08.03.45.08,1.1l4.85-.61v2.05l-4.66.63c.04.42.08.8.13,1.14l5.52-.76v2.22l-5.21.74c.1.59.2,1.12.32,1.59.51-.49,1.01-1.08,1.5-1.76l2.18.74c-.8,1.23-1.76,2.34-2.88,3.34.28.54.56.8.83.8.18,0,.52-.29,1.02-.87.55-.64.99-1.28,1.31-1.95l1,3.11c-1.12,1.69-2.31,2.54-3.58,2.54-1.13,0-2.04-.67-2.73-2.01-1.37.89-2.82,1.57-4.36,2.05l-1.57-2.35c2.06-.56,3.75-1.25,5.08-2.05-.23-.82-.42-1.75-.59-2.79l-3.85.57v-2.35l3.54-.49c-.03-.27-.07-.66-.13-1.16l-2.75.38v-2.12l2.56-.34c-.01-.24-.04-.61-.08-1.12l-2.94.36v2.39Zm-2.92,2.35c.25-.79.47-1.71.63-2.77h-1.42c-.2.52-.42,1.04-.66,1.57.31.25.79.66,1.44,1.21Zm-.04-5.21h2.94v-1.82h-2.54c-.1.52-.23,1.13-.4,1.82Z"/><path class="cls-4" d="m295.76,53.01c0,1.95-.76,3.49-2.27,4.64-1.51,1.14-3.53,1.71-6.05,1.71-2.03,0-3.68-.35-4.93-1.04-1.33-.72-1.99-1.7-1.99-2.94,0-.82.33-1.52.99-2.09.76-.66,1.8-1,3.11-1,1.17,0,2.32.25,3.45.76.68.31,1.2.63,1.57.95v2.48c2.07-.58,3.11-1.71,3.11-3.39,0-.9-.41-1.63-1.22-2.19s-1.94-.84-3.38-.84c-1.71,0-3.17.2-4.38.59-1.59.51-3.42,1.49-5.46,2.94v-3.11l9.46-5.88h-7.49v-2.65h12.89v2.31l-5.82,3.64c.58-.14,1.24-.21,1.99-.21,1.92,0,3.47.48,4.65,1.43,1.18.95,1.77,2.25,1.77,3.88Zm-6.71,3.6c-1.68-1.31-3.17-1.97-4.49-1.97-.86,0-1.29.22-1.29.66,0,.47.44.84,1.31,1.12.76.25,1.59.38,2.5.38.66,0,1.32-.06,1.97-.19Z"/><path class="cls-4" d="m316.76,57.79c-1.85-1.27-3.79-2.31-5.82-3.13,0,3.13-1.86,4.7-5.59,4.7-1.65,0-2.96-.37-3.94-1.12-1.02-.76-1.52-1.81-1.52-3.15,0-1.21.47-2.18,1.42-2.9,1.04-.79,2.56-1.18,4.55-1.18.71,0,1.43.06,2.18.17v-1.54h-8.13v-2.37h8.13v-1.63h-8.13v-2.48h8.13v-1.84h2.92v1.84h5.74v2.48h-5.74v1.63h5.74v2.43h-5.74v2.18c2,.64,3.94,1.55,5.8,2.73v3.2Zm-8.72-3.92v-.15c-.88-.2-1.7-.3-2.48-.3-1.89,0-2.84.54-2.84,1.63,0,.51.22.91.67,1.21.44.3,1.06.44,1.85.44,1.02,0,1.74-.21,2.16-.65s.63-1.16.63-2.19Z"/><path class="cls-4" d="m337.97,45.28l-1.84.06c-2,.07-3.84.73-5.5,1.97-1.71,1.3-2.56,2.73-2.56,4.3,0,1.67.8,2.85,2.39,3.56,1.31.59,3.22.89,5.74.89v2.98c-3.6.1-6.38-.5-8.34-1.8-1.88-1.26-2.82-3.02-2.82-5.29,0-2.64,1.31-4.84,3.94-6.6l-8.15.28v-2.86l17.15-.34v2.86Zm-2.14,4.51h-1.84v-3.03h1.84v3.03Zm2.67,0h-1.84v-3.03h1.84v3.03Z"/><path class="cls-4" d="m355.71,50.15c-.9,1.42-1.93,2.69-3.07,3.79,2.12,1.41,4.71,2.55,7.79,3.41l-1.88,2.43c-3.33-1.19-6-2.53-8.02-4.04-2.07,1.54-4.73,2.89-7.98,4.04l-1.86-2.43c3.13-.9,5.72-2.03,7.77-3.39-1.13-1.11-2.14-2.36-3.03-3.73-.73.59-1.57,1.19-2.5,1.8l-1.97-2.08c2.19-1.28,3.91-2.61,5.17-3.98h-4.87v-2.62h7.92v-2.39h2.79v2.39h7.92v2.62h-4.78c1.26,1.37,2.98,2.7,5.19,3.98l-1.97,2.05c-.96-.61-1.83-1.23-2.6-1.86Zm-5.17,2.18c1.28-1.17,2.34-2.5,3.15-4-.41-.42-.85-.9-1.31-1.44l1.31-.91h-6.18l1.31.91c-.54.63-.99,1.14-1.38,1.52.8,1.47,1.83,2.77,3.09,3.92Z"/><path class="cls-4" d="m381.13,59.08h-18.86v-2.65h11.11l.36-2.03h-8.89l1.93-9.88h-4.09v-2.62h17.87v2.62h-10.96l-.38,1.97h8.85l-1.69,9.95h4.76v2.65Zm-6.96-7.09l.53-3.09h-5.95l-.61,3.09h6.03Z"/><path class="cls-4" d="m388.5,41.58c-.41,4.11-.61,7.83-.61,11.18,0,2.23.05,4.33.15,6.31h-2.92c-.08-1.95-.13-4.04-.13-6.27,0-3.58.18-7.32.55-11.22h2.96Zm12.85,16.47c-1.65.32-3.28.49-4.89.49-4.84,0-7.26-1.57-7.26-4.7,0-1.55.62-3.1,1.86-4.66h3.39c-1.57,1.65-2.35,3.09-2.35,4.32,0,1.44,1.45,2.16,4.36,2.16,1.48,0,3.11-.2,4.89-.59v2.99Zm-.42-12.17h-10.86v-2.86h10.86v2.86Z"/><path class="cls-4" d="m407,53.01c-.21,2.07-.54,3.98-1,5.71l-1.95-1.16c.48-1.45.83-3.1,1.04-4.95l1.91.4Zm2.71,6.96h-2.43v-7.94c-.73.08-1.64.16-2.71.21l-.36-2.37,1.23-.02c.3-.38.71-.92,1.23-1.63-.73-.93-1.55-1.88-2.46-2.86l1.33-2.43c.08.1.3.36.63.78.61-1.03,1.16-2.1,1.67-3.2l2.18.93c-.69,1.26-1.51,2.61-2.46,4.06l.53.68c.72-1.07,1.43-2.2,2.12-3.39l2.1,1.06c-.79,1.21-1.69,2.51-2.71,3.89l1.46-.55c.41.89.81,1.9,1.21,3.03v-3.58h5.08v4.04h.74v-4.04h5.31v4.59h-4.3v.72h4.64v2.18h-3.24c.89,1.09,2.14,2.19,3.75,3.3l-1.74,1.84c-1.41-1.11-2.6-2.35-3.56-3.7v4.23h-2.41v-4.11c-.93,1.33-2.1,2.54-3.51,3.64l-1.74-1.82c1.61-1.11,2.87-2.24,3.79-3.39h-3.05v-2.18h4.36v-.78h-3.79l.15.44-1.93.68c-.06-.17-.13-.42-.23-.76-.08.01-.38.06-.89.15v8.28Zm-1.52-10.29c.71-.07,1.28-.13,1.71-.19-.17-.45-.35-.91-.55-1.38-.25.35-.64.88-1.16,1.57Zm4.32,6.92l-1.84.68c-.31-1.31-.56-2.82-.74-4.51l1.71-.42c.18,1.41.47,2.83.87,4.25Zm9.5-10.56h-8.42v-4.89h8.42v4.89Zm-6.6,3.37v-.97h-1.16v.97h1.16Zm4.15-5.29v-.85h-3.51v.85h3.51Zm1.76,5.29v-.97h-1.27v.97h1.27Z"/><path class="cls-4" d="m442.94,49.31c0,3.3-.9,5.75-2.69,7.34-1.92,1.72-4.94,2.58-9.06,2.58v-2.77c2.92-.13,5.04-.66,6.35-1.61,1.51-1.1,2.26-2.92,2.26-5.46,0-1.27-.23-2.33-.68-3.2-.58-1.11-1.45-1.67-2.62-1.67-1.38,0-2.6.9-3.66,2.69-.97,1.67-1.64,3.8-1.99,6.39h-2.71c.04-4.19.13-8.06.25-11.6h2.9c-.03.24-.11,1.52-.25,3.83.44-.9.99-1.68,1.65-2.33,1.2-1.16,2.6-1.74,4.21-1.74,1.96,0,3.49.78,4.57,2.33.97,1.37,1.46,3.11,1.46,5.21Z"/><path class="cls-4" d="m450.45,57.81c-1.02.86-2,1.62-2.96,2.26l-.85-3.03c1.06-.63,2.01-1.29,2.86-1.97v-3.89h-2.62v-2.65h5.25v6.77c.32,1.07,1.36,1.61,3.11,1.61h10.86l-.66,2.54h-10.63c-1.07,0-1.92-.11-2.54-.32-.73-.25-1.34-.7-1.82-1.33Zm1.9-13.31l-2.03,1.95c-1-1.23-2.09-2.31-3.26-3.24l1.97-1.88c1.14.86,2.25,1.92,3.32,3.17Zm12.45,3.28c-.49,1.69-1.25,3.2-2.27,4.53.83.61,1.98,1.24,3.43,1.88l-1.59,2.33c-1.38-.69-2.58-1.47-3.58-2.35-.97.88-2.08,1.66-3.32,2.35l-2.14-1.82c-.2.55-.44,1.1-.72,1.65l-2.43-1.44c.71-1.44,1.19-2.88,1.44-4.32.21-1.19.32-2.68.32-4.49v-4.62h11.47v2.58h-8.85v1.67h8.23v2.03Zm-9.42,6.79c1.54-.66,2.78-1.38,3.73-2.16-1-1.28-1.7-2.75-2.1-4.4h-.57c-.07,2.6-.42,4.78-1.06,6.56Zm5.4-3.92c.56-.79.99-1.67,1.29-2.65h-2.58c.27,1,.7,1.88,1.29,2.65Z"/><path class="cls-4" d="m486.76,46.24h-4.49v3.96c0,3.19-.88,5.51-2.62,6.96-1.61,1.31-4.14,2.04-7.58,2.18v-2.71c3.19-.13,5.29-.92,6.31-2.39-.71.27-1.5.4-2.37.4-1.44,0-2.6-.32-3.47-.97-.93-.69-1.4-1.65-1.4-2.88,0-1.14.46-2.07,1.39-2.77.92-.71,2.18-1.06,3.78-1.06,1.11,0,2.11.17,2.98.51v-1.23h-10.82v-2.69h10.82v-2.27h2.98v2.27h4.49v2.69Zm-7.43,4.28c0-.95-.93-1.42-2.79-1.42-.78,0-1.4.15-1.88.46-.48.3-.72.7-.72,1.17,0,1.06.88,1.59,2.65,1.59.85,0,1.52-.17,2.01-.51.49-.34.74-.77.74-1.29Z"/><path class="cls-10" d="m121.77,66.72c-9.07,2.38-18.35-3.04-20.74-12.11-2.38-9.07,3.04-18.35,12.11-20.74,9.07-2.38,18.35,3.04,20.74,12.11.18.67.3,1.34.4,2.01.86.29,1.79.67,2.64,1.16,2.63,1.51,3.45,2.68,3.45,2.68,0,0-2.1-.18-5.01.11-.35.03-.68.08-1.01.12-.72,6.82-5.55,12.81-12.58,14.66Z"/><path class="cls-11" d="m112.03,55.5l1.74-2.37c1.09,1.02,2.18,1.52,3.28,1.52.75,0,1.34-.16,1.77-.47.43-.31.65-.75.65-1.33,0-.48-.11-.88-.33-1.19-.22-.31-.62-.55-1.21-.72-.59-.17-1.42-.25-2.49-.25v-2.67c1.28,0,2.19-.18,2.73-.53s.8-.86.8-1.52c0-.54-.16-.95-.47-1.24-.31-.29-.76-.43-1.33-.43-.51,0-.98.11-1.41.32-.43.21-.9.54-1.41,1l-1.91-2.31c.76-.63,1.54-1.12,2.34-1.45.8-.33,1.65-.5,2.55-.5,1.66,0,2.98.38,3.95,1.13.97.75,1.45,1.82,1.45,3.21,0,.79-.21,1.48-.63,2.08s-1.05,1.06-1.88,1.4v.11c.92.28,1.65.75,2.2,1.4.55.65.83,1.46.83,2.43s-.26,1.77-.78,2.47c-.52.7-1.23,1.23-2.12,1.59-.89.36-1.86.54-2.92.54-2.34,0-4.14-.73-5.4-2.2Z"/><rect class="cls-6" x="517.66" y="155.99" width="45.42" height="34.66" rx="3.08" ry="3.08" transform="translate(201.54 628.55) rotate(-71.12)"/><path class="cls-17" d="m519.54,190.19l26.97,9.22c1.61.55,3.36-.31,3.91-1.92l12.71-37.16c.55-1.61-.31-3.36-1.92-3.91l-26.97-9.22c-1.61-.55-3.36.31-3.91,1.92l-12.71,37.16c-.55,1.61.31,3.36,1.92,3.91Z"/><rect class="cls-6" x="414.98" y="228.6" width="45.42" height="34.66" rx="3.08" ry="3.08" transform="translate(87 605.2) rotate(-75.02)"/><path class="cls-17" d="m418.06,264.19l27.54,7.37c1.64.44,3.33-.54,3.77-2.18l10.15-37.94c.44-1.64-.54-3.33-2.18-3.77l-27.54-7.37c-1.64-.44-3.33.54-3.77,2.18l-10.15,37.93c-.44,1.64.54,3.33,2.18,3.77Z"/><rect class="cls-6" x="471.33" y="122.96" width="34.66" height="45.42" rx="3.08" ry="3.08" transform="translate(-6.89 25.52) rotate(-2.97)"/><path class="cls-17" d="m475.61,169.09l28.47-1.48c1.7-.09,3-1.54,2.91-3.23l-2.04-39.22c-.09-1.7-1.53-3-3.23-2.91l-28.47,1.48c-1.7.09-3,1.53-2.91,3.23l2.04,39.22c.09,1.7,1.53,3,3.23,2.91Z"/><rect class="cls-6" x="363.11" y="206.96" width="34.66" height="45.42" rx="3.08" ry="3.08" transform="translate(-2.49 4.18) rotate(-.63)"/><path class="cls-17" d="m366.43,252.54l28.5-.31c1.7-.02,3.06-1.41,3.04-3.11l-.43-39.27c-.02-1.7-1.41-3.06-3.11-3.04l-28.5.31c-1.7.02-3.06,1.41-3.04,3.11l.43,39.27c.02,1.7,1.41,3.06,3.11,3.04Z"/><rect class="cls-7" x="407.81" y="144.62" width="34.66" height="45.42" rx="3.08" ry="3.08" transform="translate(829.18 380.6) rotate(-173.66)"/><rect class="cls-6" x="352.1" y="143.74" width="34.66" height="45.42" rx="3.08" ry="3.08" transform="translate(-29.45 95.2) rotate(-14.13)"/><rect class="cls-17" x="352.1" y="143.74" width="34.66" height="45.42" rx="3.08" ry="3.08" transform="translate(-29.45 95.2) rotate(-14.13)"/><rect class="cls-6" x="479.16" y="206.96" width="34.66" height="45.42" rx="3.08" ry="3.08" transform="translate(-19.07 46.79) rotate(-5.29)"/><rect class="cls-17" x="479.16" y="206.96" width="34.66" height="45.42" rx="3.08" ry="3.08" transform="translate(-19.07 46.78) rotate(-5.29)"/></g><g id="_レイヤー_9"><path class="cls-8" d="m239.13,223.55c-4.93-.4-9.4,2.63-13.41,5.52-1.81,1.3-4.56,1.92-6.37,3.23-1.06.77-2.64,2.5-3.48,3.51-2.51,2.98-3.45,10.38-3.12,14.26.22,2.61,2.08,5.62,4.53,6.56,1.94.75,6.5.03,8.25-1.09,1.75-1.12,22.92-1.44,30.37-1.95,1.33-.09,2.67-.19,3.98.04,2.47.44,4.68,2.02,7.19,2.12,2.25.09,4.53-1.18,5.51-3.21,1.45-3-.11-6.61-2.19-9.22-2.08-2.61-4.74-4.87-5.95-7.98-.74-1.91-4.69,1.74-5.67-.06-1.01-1.85-3.91-6.56-5.98-6.91-4.34-.73-4.27.2-8.12-1.93-1.16-.64-2.02-1.7-3.15-2.4s-2.76-.93-3.65.04"/><path class="cls-2" d="m284.37,183.1l-14.88-3.99c.74,8.81-3.97,17.42-10.58,23.3-6.51,5.79-14.69,9.32-22.9,12.27-1.9-2.56-7.72-4.93-8.93-7.28-3.6-6.92-8.34-13.24-13.98-18.63-5.14-4.91-11.64-9.23-18.74-8.85l-10.75,12.24c-1.49,5.34-.3,11.21,2.52,15.98s7.13,8.53,11.89,11.37c6,3.58,12.79,5.83,19.74,6.53,3,.3,13.5-.05,15.96-1.8.65-.47.8-.52,1.21-1.14.87.5,5.59-.17,6.53.19,3.14,1.2,3.6,2.01,6.96,2.02,4.5,0,8.57-2,12.55-4.11,3.57-1.89,7.7-2.05,11.27-3.94,2.36-1.25,4.13-2.16,5.79-4.26,1.4-1.78,3.64-5.78,4.21-7.97,1.8-6.88,3.03-14.89,2.13-21.94Z"/><path class="cls-2" d="m193.6,150.27c-1.37-1.96-3.67-3.05-5.93-3.84-1.41-.49-2.9-.9-4.37-.67-2.71.42-5.88,4.06-6.45,6.74s1.2,4.37,1.92,7.01c.2.71.4,1.46.24,2.18-.12.53-.43,1-.75,1.44-1.58,2.22-3.47,4.21-5.6,5.91,3.76.99,7.72,1.46,11.53.73,3.82-.73,7.48-2.74,9.68-5.94"/><path class="cls-2" d="m271.91,147.78c1.01-2.84,3.85-4.93,6.87-5.03s6,1.78,7.19,4.55c1.18,2.71.68,5.87,1.49,8.72.95,3.33,2.65,7.56,7.17,6.84.29-.05.6.13.78.36.26.32.14.8-.06,1.17-.83,1.57-2.78,1.92-4.42,2.6-6.53,2.72-10.07-2.05-14.53-4.73-1.04-.62-2.1-1.27-2.79-2.26s-.91-2.42-.18-3.38"/><path class="cls-3" d="m198.54,149.63c-.49-1.48-2.38-2.1-3.88-1.67s-2.65,1.61-3.64,2.81c-2.06,2.48-3.79,5.25-5.08,8.21-.1.23-.2.48-.15.73.07.35.42.57.74.74.94.52,1.88,1.03,2.82,1.55.29.16.61.32.94.29.36-.03.65-.29.91-.54,1.29-1.28,2.26-2.84,3.21-4.39,1.87-3.04,3.74-6.08,5.61-9.12"/><path class="cls-3" d="m267.24,148.08c.9-1.08,2.03-1.96,3.29-2.58.34-.17.73-.31,1.08-.19.22.07.4.24.56.41,2.73,2.72,5.07,5.82,6.94,9.19.29.52.57,1.09.47,1.67-.09.48-.42.87-.75,1.23-.9.99-1.84,1.94-2.81,2.85-.14.13-.32.28-.51.23-.14-.04-.23-.16-.31-.28-2.8-4.16-5.6-8.32-8.4-12.48"/><path class="cls-1" d="m200.57,175.48c-3.69,7.36-1.72,14.56-1.5,22.93.07,2.68.73,5.32,2.01,7.68,2.32,4.28,4.11,8.73,8.62,10.52,4.34,1.72,9.54.8,14.18,1.34.53,2.58.24,6.79.13,9.42-.75-.93-2.42-.87-3.3-1.53-.51-.39-1.2-.23-1.47.35-.19.41-.19.88-.16,1.33.28,3.93,2.88,7.62,6.49,9.2,3.82,1.67,8.58.91,11.66-1.91.51-.47.81-1.16.75-1.85-.14-1.52-.76-3.08-1.94-4.04-.47-.39-2.02.17-2.39-.23-.72-.78-1.09-1.81-1.14-2.93-.03-.62-.7-1-1.23-.67l-2.47,1.52-.84-7.37c1.63-.02,3.27-.22,4.86-.59,1.03-.24,2.03.51,2.05,1.57l.08,3.88c2.01-.22,2.78-.22,4.57-1.17.38-.2.37-2.39.55-3.28.19-.95-.11-.65.69-1.2s3.91-.31,4.86-.48c4.14-.74,8.43-1.55,11.9-3.92,6.49-4.43,11.77-11.59,11.77-19.76s-.59-16.6-4.58-23.54c-4.07-7.09-11.8-11.5-19.49-14.27-7.08-2.55-16-3.81-23.23-1.08-2.17.82-3.82,2.32-5.64,3.7-2.9,2.2-5.99,4.02-8.62,6.59-2.91,2.84-5.34,6.18-7.17,9.82Z"/><path class="cls-6" d="m263.34,186.92c-1.54-2.69-4.53-4.38-7.61-4.73-3.08-.35-6.21.53-8.9,2.06-.97.56-.94,1.08-1.67,1.94-1.33,1.55-2.21,3.82-2.51,5.84-.21,1.42-.95,2.83-.39,4.15.63,1.48,2,2.5,3.34,3.42,2.19,1.5,4.57,2.94,7.21,3.1,2.19.13,4.71.53,6.72-.34,1.17-.51,1.98-2.24,2.97-3.04,1.79-1.46,2.88-3.75,2.89-6.06"/><path class="cls-6" d="m224.39,185.07c-.74-.71-1.5-1.42-2.4-1.91-2.18-1.17-4.83-.89-7.28-.57-1.04.14-2.1.28-3.06.73-1.09.51-1.96,1.39-2.77,2.28-1.13,1.25-2.17,2.56-3.14,3.94-.86,1.23-1.67,2.55-1.85,4.04-.26,2.1.79,4.16,2.13,5.8,3.84,4.71,10.69,7.02,16.37,4.84,1.39-.53,2.68-1.3,3.9-2.15,1.2-.84,2.35-1.78,3.17-2.99,3.14-4.69-1.79-10.83-5.06-14.01Z"/><path class="cls-2" d="m272.87,152.04c-1.53-2.2-3.36-4.41-5.84-5.35-2.21-2.32-4.62-4.42-7.3-6.17-4.2-2.73-9.1-4.52-14.09-4.64l.23-.12c-1.31-.24-2.61-.48-3.92-.72-2.79-.51-5.67-1.02-8.45-.42-1.11.24-2.19.7-3.14,1.35-6.07-.1-12.16.83-17.89,3.02-5.98,2.29-11.95,5.98-16.47,10.5-6.95,6.95-9.6,16.98-11.99,26.51-1.62,6.5-3.11,13.91.59,19.5.26.39.63.8,1.04.97.18,1.19.44,2.38.78,3.55.37,1.27.94,2.63,2.11,3.23,2.28,1.18,4.77-1.21,5.97-3.48,3.81-7.25,4.22-15.87,7.79-23.23,3-6.18,7.93-10.97,13.51-15.08-.63,1.38-1.32,2.71-2.34,3.83-.99,1.09-2.23,1.93-3.18,3.05-.95,1.12-.66,2.07-.13,3.44,2.99-.86,4.71-1.95,7.32-3.64,2.46-1.59,4.93-3.18,7.39-4.78,1.42-.92,2.84-1.84,4.17-2.88,2.23-1.76,4.82-3,6.39-5.37.66.37.66-.13,1.32.24,1.76.99,2.8,2.33,4.27,3.73,1.77,1.68,4.45,2.68,6.07,4.5,1.83,2.06,3.42,4.48,5.68,6.06.3.21.82,1.25,1.17,1.18.28-.06,1.05-1.35,1.2-1.6.88-1.37-.4-2.93-.93-4.47-.21-.61-.41-1.22-.6-1.83,7.31,6.52,13.32,14.59,15.44,24.05.33,1.45,1.13,2.55,1.8,3.87.49.96,1.28,1.82,2.25,2.25.32,2.02.79,4.01,1.7,5.82,1.31,2.62,3.74,4.87,6.66,5.15.39.04.81.03,1.15-.17.5-.3.67-.93.77-1.5,4.29-24.12-.43-35.9-10.52-50.34Z"/><path class="cls-14" d="m204.87,211.99c.51.7,1.13,1.44,1.83,1.95.63.33,1.46,1,2.06,1.36,4.54,2.19,9.77,2.47,14.72,2.21"/><path class="cls-14" d="m228.92,218.59c4.81-.12,5.57-1.66,5.83,4.14"/><path class="cls-14" d="m268.71,200.1c-1.18,2.81-2.64,5.79-4.5,8.21-4.36,5.22-10.8,8.64-17.51,9.64-4.35.78-6.99-1.8-7.17,4.42"/><path class="cls-14" d="m236.03,154.68c-3.19,2.23-6.25,5.04-9.27,7.47-2.9,2.3-6.07,4.46-9.23,6.39-1.37.77-6.71,4.11-7.95,3.03-.96-1.75,5.93-9.43,7.52-10.62-2.01,2.16-4.68,3.8-6.97,5.66-2.85,2.24-5.45,4.97-7.11,8.22-3.93,7.2-5.59,15.74-4.17,23.85,1.29,7.3,4.91,14.14,11.5,17.91"/><path class="cls-14" d="m253.36,162.72c3.08,2.88,6.14,6.06,8.57,9.51,1.34,1.49,2.47,3.4,3.52,5.11,1.57,2.55,2.56,5.54,3.06,8.49.72,4.2.57,8.6.41,12.83-.34,4.51-.63,10.37-3.8,13.84"/><path class="cls-14" d="m231.4,135.42c-20.16-.54-38.77,12.1-44.29,31.72-11.45,27.02.61,55.97,31.46,58.56"/><path class="cls-14" d="m242.56,136.15c35.24-.26,57.22,54.42,33.01,79.06,0,0-7.11,4.66-11.78,6.33"/><path class="cls-14" d="m223.79,228.19c.23-3.67-.41-7.44.21-11.1.21-.84.26-2.59,1.05-3.06.91.55,1.83,4,2.22,5.12.54,2.32.49,5.03,1.37,7.26l.17.13c.63-.35,1.06-1.13,1.68-1.52.72-.5,1.89-.64,2.53.06.55.76.22,2.17.21,3.05,0,.19-.08.99.1,1.14.72.17,1.72.04,2.34.52.46.39.89,1.31,1.29,1.76.23.45.11,1.24.1,1.73-.06.75-.93,1.38-1.46,1.82-.19.18-.66.67-.87.81-.3.16-.67.45-.9.71-.53.43-1.3.42-1.94.54-.55.14-1.54.41-2.11.31-.29-.04-1.11-.09-1.38-.22-.3-.09-1.42-.72-1.72-.85-.7-.27-1.55-.57-2.21-.94"/><path class="cls-14" d="m223.37,227.85c-.96-.7-2.06-1.59-3.28-1.71-1.5-.06-1.4,1.52-.93,2.51.34.75.83,1.54,1.24,2.26.61,1.11,1.37,2.3,2.53,2.91"/><path class="cls-14" d="m221.85,235.35c-2.89,4.03-7.91,11.39-7.61,16.32.55,4.97,6.05,4.42,9.44,2.38,1.36-.89,2.57-2.39,2.92-3.95.93-2.96,1.37-9.83,2.65-12.7"/><path class="cls-14" d="m269.3,147.68c.04-.2.08-.74.23-.89.36-.23.95-.66,1.36-.79.31-.08.75-.13,1.05.02.67.54,1.32,1.81,1.87,2.46.89.95,1.78,2.25,2.63,3.23.27.19.57.52.73.81.46.47,1.02,1.32,1.35,1.89.54.68,1.24,1.73,1.51,2.56l-.04.26c-.59.65-1.44,1.44-2.23,1.84"/><path class="cls-14" d="m272.81,145.72c.38-.28,1.26-1.18,1.65-1.42.33-.14.96-.48,1.29-.58,1.28-.33,2.96-.55,4.28-.53,1.3.25,2.74.91,3.85,1.63,1.33,1.1,2.39,2.92,2.96,4.53.06.63.4,1.7.45,2.33.16,1.51.08,4.03.3,5.53.5,2.77.9,3.76,3.09,5.6.49.35,1.17.59,1.76.68,1.04.36,2.45.44,3.55.46"/><path class="cls-14" d="m280.37,163.62c2.07,6.19,12.32,5.16,14.64.98"/><path class="cls-14" d="m195.85,148.92c-.92-.36-2.41-1.27-3.25-.37-.17.13-1.09,1.85-1.22,2.07-.67.89-1.34,2.26-1.99,3.16-.13.24-.93,1.9-1.1,2.05-.48.47-.96,1.42-1.37,1.96-.24.56-.85.97-.99,1.57-.08.58.15,1.27.51,1.72.33.37.78.41,1.24.34"/><path class="cls-14" d="m191.57,147.95c-.93-.79-2.6-1.3-3.58-2.03-.32-.11-1.22-.58-1.55-.57-.89-.07-2.04-.16-2.92,0-1.19.35-2.55.85-3.43,1.76-1.25.78-2.31,1.98-2.92,3.33-.32,1.05-.35,2.51-.36,3.6.3,1.7,1.07,3.99,1.75,5.58.56,1.11,1.38,2.67,1.36,3.95"/><path class="cls-14" d="m179.07,161.07c-.07.15-1.57,3.48-1.6,3.49-.39.64-1.04,1.36-1.55,1.91-.84.69-1.91,1.48-2.77,2.16l-.03.17c.89.87,2.67,1.41,3.89,1.58,1.32.38,3.26.33,4.63.29.26,0,.78-.08,1.03-.19.4-.3,1.06-.61,1.53-.81"/><path class="cls-14" d="m236.1,155.1c5.96,5.01,13.02,8.54,16.94,15.6,4,.49,1.59-7.23-.58-8.28"/><path class="cls-14" d="m231.35,207.27c-.19.37-.57.95-.45,1.39.23.82.89,1.54,1.64,1.92.5.32,1.27.11,1.79-.05.84-.31,1.67-.94,2.36-1.49l.19.03c.26.32.69.91,1.1,1.05.72.24,1.73.26,2.48.21,1.46-.36,1.54-1.8,1.59-3.06"/><path class="cls-14" d="m203.73,195.82c.15-1.46.82-3.58,1.61-5.04,1.01-1.88,2.02-3.16,3.58-4.65,3.55-3.39,9.25-4.31,13.66-2.14,4.26,2.25,7.71,7.73,7.71,12.75"/><path class="cls-14" d="m203.73,195.82c1.19,4.09,5.02,7.44,8.93,8.63,4.91,1.42,10.73.71,14.68-2.69,1.48-1.29,2.38-3.16,2.95-5.01"/><path class="cls-14" d="m206.35,182.23c.54,1.28,1.18,2.72,1.8,3.97"/><path class="cls-14" d="m212.98,179.31c.23.86.49,1.84.72,2.7"/><path class="cls-14" d="m219.74,179.54c.05.65.13,2.28.19,2.93"/><path class="cls-14" d="m241.92,194.87c.51-2.8.58-5.6,3.25-8.67,2.45-2.83,5-3.41,6.95-3.88,4.1-.99,7.2.05,9.93,2.35,2.35,1.98,3.81,6.39,4.02,10.2"/><path class="cls-14" d="m241.97,195.49c1.56,5.62,8.04,8.14,13.41,8.03,5.32-.36,9.57-4.83,10.67-8.65"/><line class="cls-14" x1="248.42" y1="180.66" x2="249.13" y2="183.16"/><path class="cls-14" d="m255.33,179.3c.12.87-.3,1.84-.18,2.71"/><path class="cls-14" d="m261.46,180.96c-.17.7-.35,1.49-.5,2.19"/><path class="cls-14" d="m220.49,190.78c-.15.31-.58,1.06-.67,1.38,0,.15-.08.45-.12.6-.33.75-.28,1.89-.34,2.69-.02.44-.02,1.33.01,1.77.15.59.56,1.42.98,1.86.63.7,1.84,1.14,2.42.15.35-.5.3-1.34.35-1.92.04-.91,0-2.17-.2-3.06,0-.51-.3-1.45-.44-1.94-.17-.42-.28-1.19-.72-1.42-1.99-.12-1.69,3.28-1.77,4.59.1.64.53,3,1.37,2.87l.17-.1c.16-.35.44-.9.45-1.29.17-.46.28-1.17.27-1.66,0-.75.22-3.78-.73-3.91l-.19.05c-.33.39-.5,1.15-.54,1.65-.05.33-.2.76-.23,1.09-.02.77-.12,2.05,0,2.81.18.53.31,1.72,1.12,1.49.66-.81.62-2.23.46-3.22-.07-.56-.06-1.41-.62-1.73h-.16c-.37.21-.46,2.57-.2,2.86h.19c.14-.02.34-.28.42-.39"/><path class="cls-14" d="m254.88,191.28c-.1.15-.34.47-.37.65,0,.13-.03.38-.06.51-.28,1.09-.1,2.61.17,3.68.3.75.65,1.7,1.45,2.05,1,.55,1.46-.86,1.73-1.57.23-.89.25-2.44.3-3.36.03-.51-.03-1.25-.23-1.73-.5-1.66-1.96-2.66-2.45-.36-.32.8-.29,1.93-.3,2.77.01.95.09,2.66,1.37,2.62l.22-.12c.57-.85.41-2.2.42-3.18-.13-.65-.32-1.79-1.01-2.08-1.13-.13-.78,3-.71,3.7,0,.62.12,1.52.79,1.77l.26-.04.18-.14c.08-.25.34-.96.35-1.21.02-.24,0-.99-.01-1.25-.09-.47-.22-1.24-.54-1.61-.23.1-.24.58-.3.78-.05.66-.29,1.64-.07,2.27l.08.06c.18-.16.1-.65.12-.85-.05-.87-.18-1.98-.82-2.61l-.2.02c-.25.14-.24.64-.3.89.03.33.37.51.68.45l.06.06-.27.19"/><path class="cls-14" d="m210.26,207.03c-.26.45.07.95.23,1.36"/><path class="cls-14" d="m212.75,207.26c.01.28.03.7.15.95.05.19.07.67.08.87"/><path class="cls-14" d="m258.31,206.13c0,.41.05.71.45.91"/><line class="cls-14" x1="260.8" y1="204.99" x2="260.8" y2="206.13"/><path class="cls-14" d="m233.27,224.88c-.35-.7.25-1.09.88-1.18.21-.06.65-.22.87-.24.93-.04,2.16-.35,3.09-.32,1.3-.02,2.89-.09,4.11.41.77.49,1.07,1.85,1.93,2.26.9.55,2.12,1.23,3.18,1.39.72.33,6.99.11,8.89,4.29"/><path class="cls-14" d="m220.32,231.48c-2.52,2.02-4.71,4.7-6.09,7.61"/><path class="cls-14" d="m243.25,224.85c.21.3,1.95.47,2.31.5,1.26.11,7.26-.95,11.6-1.92"/><path class="cls-14" d="m215.41,175.08c1.03-1.68,4.51-3.12,5.84-1.03"/><path class="cls-14" d="m246.71,174.09c.22-1.02,1.08-1.87,2.1-2.08s2.15.23,2.75,1.07"/><path class="cls-12" d="m606.29,254.57c2.02-14.97,3.5-22.35,13.02-26.35,1.14-.97,3.25-2.55,4.55-1.13,1.04,4.63,6.64,2.96,8.84.04.54-.62,1.24-1.03,2.07-1.04,1.07-.11,1.82-1.61,2.75-1.07,2.06,4.03,17.08-2.26,20.03,1,2.85,5.73,5.96,33.22-1.85,37.52-10.33,5.92-30.85,7.14-43.01,1.05-2.27-1.14-6.15-2.11-6.54-4.63l.13-5.38Z"/><path class="cls-1" d="m590.6,173.94c-2.88,6.38-5.4,13.05-5.92,20.03s1.18,14.37,5.85,19.58c2.99,3.32,7.1,5.62,11.49,6.42,6.35,1.15,13.04-.75,19.27.93.92.25,1.88.61,2.46,1.38.65.88,1.1,4.83,1.67,5.76.72,1.16,3.42,1.28,4.79,1.18.55-.04,2.61-1.71,2.91-2.13.45-.62-1.32-3.02-.58-3.36-.44-1.31-.68-.84-.46-2.2,6.6-1.65,13.2-3.31,19.8-4.96,2.38-.6,4.82-1.22,6.84-2.62,2.52-1.74,4.11-4.49,5.62-7.15,4.21.57,8.65-.8,11.81-3.64.76-.68,1.46-1.47,1.81-2.42.85-2.28,1.18-7.15-.84-8.49-2.03-1.34-4.04-2.38-6.45-2.71,1.46-6.58-2.65-10.67-6.23-16.39-3.57-5.72-8.69-10.31-14.04-14.41-3.89-2.99-7.99-5.79-12.58-7.49-4.54-1.68-9.44-2.23-14.28-2.28-4.63-.04-9.34.38-13.68,1.99-4.76,1.77-7.71,4.31-10.32,8.46-3.09,4.94-6.51,9.14-8.95,14.55Z"/><path class="cls-6" d="m609.33,183.63c-2.71-2.08-6.46-3.06-9.65-1.83-3.56,1.38-5.68,5.14-6.49,8.87-.67,3.09-.62,6.39.52,9.35,1.14,2.95,3.43,5.52,6.38,6.65,4.43,1.69,9.83-.28,12.49-4.2,1.82-2.69,3.22-7.39,2.54-10.65-.63-3-3.43-6.37-5.8-8.19Z"/><path class="cls-6" d="m625.5,198c.63,1.48,1.51,2.85,2.52,4.1,1,1.23,2.14,2.37,3.48,3.22,3.2,2.04,7.46,2.29,10.87.63,3.82-1.85,6.32-5.84,7.08-10.01.59-3.24.22-6.69-1.35-9.59s-4.37-5.16-7.6-5.78c-1.19-.23-2.42-.23-3.63-.24-1.85,0-4.3-.45-6.06.3-1.8.76-3.3,2.81-4.25,4.43-1.14,1.93-1.84,4.13-2.04,6.36-.1,1.16-.07,2.33.11,3.48.15.96.88,2.18.88,3.09Z"/><path class="cls-13" d="m648.93,189.64c-.09,2.94-.23,6.03-1.68,8.55-1.43,2.48-3.96,4.06-6.54,5.13-1.64.68-3.37,1.2-5.13,1.15-2.57-.07-4.95-1.31-7.24-2.53.95,2.66,3.5,4.46,6.18,4.98,2.68.52,5.45-.1,7.99-1.15,2.11-.87,4.18-2.12,5.42-4.1.64-1.02,1.03-2.19,1.33-3.36.75-2.91.95-6.12-.29-8.84"/><path class="cls-13" d="m614.66,192.38c.52,4.65-2.17,9.5-6.32,11.36-4.53,2.03-9.88.54-14.09-2.14,1.1,1.09,1.57,2.73,2.68,3.81,1.31,1.27,3.24,1.51,5.03,1.69,1.83.18,3.72.36,5.49-.16,3.03-.89,5.2-3.68,6.58-6.61,1.2-2.56,1.94-5.62.82-8.22"/><path class="cls-9" d="m683.72,165.11c-1.86-7.82-6.49-14.94-12.51-20.01-6.02-5.07-12.44-7.4-19.63-9.37-3.6-.98-6.32-1.19-9.91-1.02-.17.15-.4.26-.6.38-.05-.1-.09-.15-.17-.24-1.73-1.86-5.13-1.75-7.16-2.7-2.99-1.4-5.05-3.29-6.68-5.94-2.13-3.45-3.13-7.58-5.83-10.51-.85-.92-.16-2.83-1.61-2.8-3.06.07-6.11,3.45-6.85,6.31-1.23,4.76-.26,8.81,1.9,13.02.42.82,1.02,1.41,1.55,2.12-3.18-.92-5.87-2.25-8.74-3.91-.69-.4-1.78-.15-1.88.88-.42,4.55,1.99,7.99,5.31,10.95-4.38-1.24-8.49-1.77-13.1-2.38-1.94-.25-4.34-.21-6.42.29s-3.85,1.59-4.88,3.56c5.88,1.77,11.77,3.12,17.87,3.9-7.59.57-13.17,3.98-18.03,9.73-2.2,2.6-4.88,4.64-5.83,8.05-.95,3.41-.17,7.02,2.36,9.54,8.14-6.72,16.43-13.2,24.87-19.52.82-.62,1.9.22,1.54,1.19-1.72,4.63-3.64,9.15-4.97,13.94-.56,2.01,1.33,4.96,3.45,4.57,4.94-.91,8.23-4.48,11.45-7.77,4.15-4.25,7.37-7.62,9.59-13.05-.83,7.34.72,9.41,7.01,13.3.44.27,3.02.29,3.75.02,1.11,1,1.82,1.85,3.1,2.69,1.14.76,2.58,1.28,4.04,1.64,1.46.36,3.28-.21,4.75-.48.86,1.12,1.35,1.96,2.41,3.06,1.61,1.67,4.76,3.43,6.53,4.75,3.25,2.41,5.94,4.45,9.13,6.6.91.62,1.73,1.18,2.8,1.31,1.32.16,2.49-.33,3.62-.96,2.68-1.51,4.99-3.37,7.05-5.63.55-.6,1.05-1.2,1.16-2.04.2-1.49-.58-2.71-1.46-3.92-1.91-2.6-4.23-5.01-6.07-7.67.7.1,1.42.19,2.11.27,1.11.14,2.17.29,3.29.35.41.02.9.1,1.26-.22.64-.57.63-1.38.42-2.27Z"/><path class="cls-14" d="m595.53,165.46c-8.29,13.65-10.84,28.52-7.07,42.15,1,3.62,2.88,7.34,6.23,9.27,6.85,3.66,14.97,2.68,22.4,3.94,2.04.4,4.61.42,6.28,1.77,1.09,1.08,2.63,3.89,2.06,5.45"/><path class="cls-14" d="m653.71,214.83c-6.3,3.66-13.4,6.07-20.65,6.81-1.66.24-3.49.41-5.12.8-2.17.47-.39,4.71.27,6.36"/><path class="cls-14" d="m601.99,181.59c-3.28.77-5.69,1.49-7.43,4.64-1.85,3.89-2.48,9.31-1.39,13.49,1.93,4.89,7.17,8.56,12.5,7.92,1.65-.32,3.66-.82,5.07-1.78,1.65-1.37,3-3.34,3.62-5.4.86-2.98,1.38-6.37.45-9.38-1.03-3.21-3.34-6.13-6.15-7.97-1.6-1.01-3.58-1.47-5.45-1.63"/><path class="cls-14" d="m594.03,201.03c.62,1.36,2.07,2.1,3.43,2.54,2.32.86,4.92.94,7.36.68,1.17-.19,2.82-.55,3.89-1.06,1.89-1.02,3.71-2.59,4.69-4.52.8-1.73,1.08-3.81,1.44-5.67"/><path class="cls-14" d="m632.2,180.95c-1.16.28-2.55.6-3.46,1.42-1.94,1.61-2.89,4.16-3.65,6.49-.25.81-.29,1.83-.44,2.66-.18.54-.27,1.3-.25,1.87.28,1.84.85,4.42,1.6,6.12.36.95,1.17,1.95,1.75,2.78,1.22,1.53,2.98,2.76,4.78,3.51,1.6.65,3.44,1.3,5.18,1.3,6.69-.31,10.76-4.68,11.78-11.13.49-3.09,0-6.37-1.57-9.09-.94-1.68-2.1-3.39-3.68-4.53-3.03-2.08-8.13-1.76-11.69-1.58"/><path class="cls-14" d="m627.01,201.12c2.52,3.12,7.08,2.97,10.73,2.77,7.51-.42,11.06-6.52,11.19-13.48"/><path class="cls-14" d="m635.73,163.38c2.54,3.5,5.39,7.6,9.83,8.66,1.17.21,2.43-.1,3.6-.19,1.29-.12,2.59.45,3.51,1.33,1.79,1.72,3.53,3.71,5.57,5.16,2.08,1.69,4.65,3,6.82,4.55"/><path class="cls-14" d="m643.37,135.06c2.48-.19,4.69-.45,7.19.04,1.9.37,3.61,1.06,5.61,1.74,2.23.75,4.71,2.26,6.86,3.41,7.59,5.66,14.31,12.03,19.02,20.3.95,1.99,2.33,4.36.67,6.31-1.26.38-2.4.07-3.66-.27-.79-.21-1.72-.4-2.5-.67-.55-.19-.98-.54-1.56-.62-.06.05-.12.1-.18.15,0,1.14.97,2.02,1.51,2.93.53.91,1.14,1.49,1.78,2.31,1.05,1.34,2.04,2.85,3.06,4.24.77.85,1.33,1.81,1.89,2.81.16.84.37,1.77-.11,2.56-.54.88-1.42,1.49-2.13,2.27-.48.53-1.18.89-1.71,1.42-.68.68-1.34,1.39-2.17,1.95-.26.17-.58.28-.93.42-.49.21-1.21.7-1.67.94-.63.33-1.18.39-1.79.68-.06-.02-.12-.04-.18-.06-.02-.27.02-.52.11-.78-.01,0-.03,0-.04,0-.07.16-.15.32-.22.49"/><path class="cls-14" d="m666.53,192.91c.41-1,.77-2.64,1.85-3.15.65-.59,1.53-.41,2.31-.25,2.07.44,3.95,1.78,5.29,3.39.83.97,1.74,2.11,2.27,3.29,1.42,3.13.05,6.31-2.75,8.08-.93.5-2.21,1.11-3.23,1.4-.62.06-1.31.34-1.93.43-1.78.09-4.31.22-5.07-1.8"/><path class="cls-14" d="m607.21,194.3c-.79,1.25-2.2,3.04-1.26,4.54,1.11,1.89,4.07.84,4.58-1.02.47-1.47-.41-3.54-2.15-3.43-1.58.12-2.52,2.18-1.82,3.52.56.75,1.69.63,2.36.1.59-.44.95-1.22.95-1.95-.04-1.59-1.64-2.08-2.36-.57-.5,1.01.23,2.38,1.39,1.63.3-.25.59-.68.49-1.09l-.05-.05-.87-.46c-.39.58.62,1.89.71,2.53"/><path class="cls-14" d="m638.48,193.67c-.76.74-1.73,1.64-1.54,2.81.22,1.34,1.87,2.08,3.05,1.47,1.12-.48,1.52-2.32.32-2.94-.92-.42-1.93.67-1.54,1.56.35.7,1.36.44,1.67-.16.36-.88-.63-.81-1-.26-.46.52-.67,1.88.28,1.94,1-.25.98-1.7.37-2.35-.35-.4-1.02-.51-1.4-.11-.59.61-.37,1.69.24,2.21.95.68,1.84-.17,1.78-1.2-.04-.93-.57-1.83-1.31-2.38-.88-.61-1.77-.24-1.78.87-.02,1.93,2.38,2.75,3.04.73.36-1.32-1.06-2.61-2.19-1.58-.62.65-.48,1.66-.33,2.47"/><path class="cls-14" d="m640.53,134.7c-2.41-.41-4.97-1.02-7.04-2.36-4.02-2.91-6.71-7.32-9.02-11.62-.93-1.69-1.68-3.7-2.63-5.38-.54-.62-1.19-2.02-2.16-1.99-.16.08-.79.42-.98.48-.45.24-1.1.75-1.54,1-.64.53-1.35,1.34-1.86,2-1.46,2.07-2.82,4.5-3.02,7.07-.17,2.28.46,4.6,1.56,6.6.8,1.64,2.09,3.33,3.41,4.57,1.73,1.73,5.31,3.28,7.72,3.63"/><path class="cls-14" d="m624.52,139.3c-3.03-.72-6.37-1.73-9.06-3.34-.37-.23-1.35-.81-1.67-1.09-.38-.39-.98-.84-1.43-1.13-1.21-1.1-3.14-1.85-4.47-2.77-.25-.27-.64-.61-.96-.81-.25-.17-.5-.56-.83-.59-.36.06-.56.34-.64.68-.56,1.02-.58,2.41-.49,3.54.44,2.82,1.91,4.26,4.37,5.52"/><path class="cls-14" d="m609.02,142.72c-1.42-.92-3.19-2.11-4.85-2.51-.74-.08-1.7-.13-2.43-.33-1.02-.17-2.45-.36-3.48-.42-1.31-.01-4.08.37-5.41.5-.31.05-1.6.17-1.87.31-1.41.63-3.93,1.73-5.11,2.74l-.04.21c.52.84,2.44,1.26,3.29,1.6.89.39,2.89,1.21,3.82,1.42,1.11.32,2.81.47,3.93.7.7.07,2.19.26,2.87.42.46.11,3.28.2,3.8.23-2.31.1-5.61,1.75-7.77,2.52-1.24.62-2.69,1.34-3.74,2.26-2.19,1.56-4.43,3.48-6.15,5.55-2.47,2.96-5.01,6.28-5.43,10.24-.27,2.03-.35,4.49,1.22,6.05,2.09,1.89,2.22.06,3.51-1.38,1.18-1.47,2.71-2.77,4.21-3.9,4.83-3.62,10.14-6.9,15.12-10.32.92-.54,4.1-3.21,4.87-2.94l.09.17c0,.62-.4,1.33-.64,1.89-.36.74-.87,1.76-1.24,2.51-1.41,3.07-2.97,6.32-3.02,9.77,0,1.1-.14,2.57.27,3.62.92,2.17,3.61,1.73,5.42,1.09,1.81-.72,3.13-2.46,4.61-3.66,1.24-1,2.66-2.09,3.79-3.21.97-.74,2.23-1.63,3.09-2.51,2.13-2.23,4.11-4.92,5.49-7.68.62-1.4,1.77-3.26,1.86-4.8-.51.64-.49,1.71-.6,2.49-.37,3.57,1.38,7.07,3.44,9.87,1.47,1.88,3.59,2.43,5.83,2.81"/><path class="cls-14" d="m594.96,177.24c.4-1.18,1.07-2.04,2.31-2.39,1.13-.22,2.43-.31,3.51.16"/><path class="cls-14" d="m629.81,171.91c.3-.31,1.06-1.17,1.45-1.36.87-.1,1.97-.36,2.86-.3,1.28.03,2.68.3,3.75,1.04.23.17.87.63,1.11.77.22.16.57.64.71.87"/><path class="cls-14" d="m665.39,204.1c.05,1.18-.76,2.52-1.27,3.54-.3.4-1.07,1.45-1.27,1.9"/><path class="cls-14" d="m639.28,194.1c-.19-.03-.7-.14-.88-.03-.13.22-.54.81-.56,1.06-.14,1.05-.13,2.32.56,3.19.74.74,1.77,1.05,2.57.2.53-.62,1.09-1.44,1.06-2.29-.05-1.7-1.01-3.14-2.83-2.26-.82.51-1.16,1.63-.91,2.55.21.95.66,1.89,1.79,1.8.55-.06.92-.57,1.18-1.02.45-.79.41-1.89-.17-2.6-.58-.53-1.66-.56-2.1.16-.29.62-.26,1.06.29,1.49"/><path class="cls-14" d="m624.04,226.93c-.21,1,.66,1.97,1.65,2.23s2.64.73,3.6.4c1.26-.43,2.68-1.02,3.75-1.81,3.14-2.28,2.49-3.29,4-3.04.8.13,1.15,1.83,1.82,2.28,5.58,3.72,9.92,9.27,12.18,15.59"/><path class="cls-14" d="m621.83,226.5c-3.56,1.77-7.18,3.7-10.1,6.44l-.71,2.59c-2.53,2.76-5.17,18.67-4.87,22.41"/><rect class="cls-16" x="249.49" y="203.31" width="28.03" height="35.51" rx="3.07" ry="3.07" transform="translate(-31.86 44.81) rotate(-9.17)"/><rect class="cls-16" x="256.57" y="201.88" width="28.03" height="35.51" rx="3.07" ry="3.07" transform="translate(30.36 -32.85) rotate(7.36)"/><rect class="cls-16" x="264.44" y="204.03" width="28.03" height="35.51" rx="3.07" ry="3.07" transform="translate(83.89 -76.33) rotate(18.33)"/><path class="cls-1" d="m253.86,231.64c1.7,1.06,3.49,1.96,5.36,2.68.74.29,1.77.45,2.16-.24.18-.33.13-.74.07-1.11-.3-1.88.33-4.08.44-6.11.02-.33.47-.4.58-.09.84,2.38,1.4,4.78,3.26,6.53.33-2.43.2-4.28.83-6.45.11-.39.68-.37.78.02.43,1.67.77,3.04,1.82,4.68.42-2.37,1.54-4.62,3.18-6.38.68,3.29,1.78,6.79-.19,10.74,1.2-.58,2.6-.73,3.89-.43-1.7,1.95-2.89,4.33-3.44,6.85-.2.92-.37,1.95-1.1,2.53-.36.29-.81.43-1.25.56-1.5.46-4.24,1.96-5.78,1.17-1.16-.6-2.04-2.92-2.83-3.93-1.41-1.81-2.86-3.57-4.18-5.45-.97-1.38-2.26-4.7-3.61-5.58Z"/><path class="cls-14" d="m263.76,245.16c-2.14-3.06-4.83-6.21-6.96-9.28-.68-1.28-1.99-2.83-2.67-4.12v-.19c.35-.13.94.25,1.24.39.82.4,1.64,1.05,2.4,1.53,1.18.48,3.99,2.23,4.09.81.11-1.56-1.39-6.97-.44-8.37.56.17.81.88,1.09,1.34.48.82,1.06,1.82,1.46,2.68.41.69,1.02,2.77,1.73,2.97,1.26-.39.57-6.05,1.11-7.44l.14-.03c.67,1.24.96,2.79,1.46,4.11.27.67.48,1.57,1.04,2.06l.17.03c.56-.26.6-1.25.79-1.78.24-.94.55-2.07.82-3,.14-.41.31-1.07.59-1.41l.17.04c1.01,2.14.87,4.64,1.16,6.94.01.39-.06,1.23-.11,1.62-.07.51-.29,1.47-.1,1.98l.19.13c.83-.21,1.65-.94,2.57-.75l.21.17c.22.92-.41,1.8-1,2.45-.35.45-.9,1.12-1.28,1.53-1.17,1.73-1.36,4.34-2.57,6.02l-.1-.02c-.04-.14,0-.57.02-.71"/><path class="cls-14" d="m263.44,244.54c1.19,1.34,2.3,2.04,4.14,1.67.77-.14,1.65-.45,2.38-.72.86-.32,1.71-.68,2.13.44.67,2.45,1.77,5.2.73,7.69-.97,2.09-3.84,3.53-6.07,2.83-2.1-.73-2.51-3.18-2.71-5.12-.28-2.02-.39-4.13-.17-6.16"/><path class="cls-14" d="m616.71,214.71c1.19.06,8.5.14,9.68,0"/><path class="cls-12" d="m301.86,228.67c-2.54-1.77-4.83-4.06-6.48-6.69l-.11-.17c-.1-.21-.12-.24-.07-.08-.01.02-.03.44-.06.4s.68-.4.74-.43c.83-.41,1.66-.81,2.49-1.22,1.74-.85,3.48-1.71,5.22-2.56.73-.36.93-1.39.54-2.05-.43-.74-1.32-.9-2.05-.54-2.02.99-4.03,1.98-6.05,2.97-1.69.83-4.46,1.87-3.67,4.32.29.9.97,1.71,1.53,2.45.6.79,1.22,1.56,1.9,2.29,1.37,1.47,2.91,2.76,4.55,3.91.67.46,1.67.12,2.05-.54.44-.75.13-1.59-.54-2.05h0Z"/><path class="cls-12" d="m295.98,223.87c8.64.97,17.29,1.93,25.93,2.88s17.62,2.23,26.46,2.78c5.52.34,11.11.31,16.55-.8,1.89-.38,1.09-3.28-.8-2.89-9.15,1.86-18.68.53-27.85-.49-8.83-.99-17.65-1.96-26.48-2.94-4.61-.51-9.21-1.02-13.81-1.54-1.92-.22-1.9,2.79,0,3h0Z"/><rect class="cls-16" x="626.29" y="214.43" width="28.03" height="35.51" rx="3.07" ry="3.07" transform="translate(-39.64 271.95) rotate(-23.28)"/><rect class="cls-16" x="638.2" y="209.31" width="28.03" height="35.51" rx="3.07" ry="3.07" transform="translate(-22.42 79.4) rotate(-6.85)"/><rect class="cls-16" x="648.84" y="214.43" width="28.03" height="35.51" rx="3.07" ry="3.07" transform="translate(76.13 -153.88) rotate(14.04)"/><path class="cls-1" d="m635.86,242.7c1.81.85,3.7,1.53,5.64,2.02.77.2,1.81.23,2.11-.5.14-.35.04-.75-.06-1.11-.52-1.83-.16-4.09-.29-6.12-.02-.33.42-.45.56-.16,1.11,2.26,1.96,4.58,4.02,6.09.03-2.45-.32-4.27.05-6.5.07-.4.63-.45.78-.07.63,1.61,1.12,2.92,2.37,4.43.14-2.41.98-4.77,2.4-6.72,1.07,3.18,2.58,6.53,1.1,10.68,1.12-.72,2.49-1.04,3.82-.89-1.45,2.14-2.35,4.64-2.59,7.22-.09.94-.13,1.98-.79,2.65-.32.33-.75.52-1.17.71-1.44.64-3.98,2.45-5.59,1.85-1.22-.45-2.37-2.65-3.28-3.56-1.62-1.62-3.26-3.2-4.8-4.91-1.13-1.26-2.8-4.39-4.25-5.11Z"/><path class="cls-14" d="m647.31,254.93c-2.49-2.78-5.54-5.59-8.02-8.38-.83-1.19-2.32-2.57-3.14-3.77v-.19c.31-.17.94.14,1.25.24.86.3,1.75.85,2.57,1.23,1.23.33,4.23,1.74,4.16.31-.07-1.56-2.22-6.75-1.44-8.26.58.1.91.78,1.24,1.2.58.76,1.27,1.68,1.77,2.49.49.63,1.34,2.63,2.08,2.74,1.2-.53-.16-6.08.22-7.52l.13-.05c.81,1.15,1.29,2.66,1.94,3.9.34.64.66,1.5,1.28,1.92h.17c.52-.31.45-1.31.57-1.85.13-.96.3-2.12.46-3.08.09-.43.18-1.1.42-1.47l.18.02c1.25,2.01,1.42,4.51,1.98,6.76.06.38.08,1.23.08,1.62-.01.52-.11,1.5.14,1.97l.21.11c.8-.31,1.53-1.14,2.46-1.05l.22.14c.33.89-.19,1.84-.71,2.55-.29.48-.76,1.22-1.09,1.67-.95,1.85-.83,4.47-1.83,6.29h-.11c-.06-.14-.06-.57-.06-.72"/><path class="cls-15" d="m646.92,254.35c1.34,1.19,2.52,1.75,4.31,1.16.75-.23,1.58-.64,2.27-1,.82-.42,1.62-.88,2.16.19.96,2.35,2.38,4.95,1.64,7.54-.71,2.19-3.39,3.96-5.69,3.54-2.17-.48-2.87-2.86-3.31-4.76-.52-1.97-.88-4.05-.9-6.09"/><path class="cls-12" d="m367.01,159.55c-15.36,3.66-28.27,13.71-41.07,22.45-4.07,2.78-8.15,5.57-12.22,8.35-1.58,1.08-.09,3.68,1.51,2.59,7.02-4.79,14.03-9.59,21.05-14.38,6.24-4.26,12.55-8.48,19.38-11.75,3.89-1.87,7.94-3.36,12.15-4.36,1.88-.45,1.08-3.34-.8-2.89h0Z"/><path class="cls-12" d="m316.02,182.13c-1.56,1.62-3.12,3.24-4.68,4.86-.69.72-1.57,1.45-2.01,2.36-.51,1.05-.31,2.24.52,3.05.66.65,1.59.91,2.46,1.14,1.05.28,2.11.57,3.16.85,2.18.59,4.36,1.18,6.54,1.77,1.87.5,2.66-2.39.8-2.89s-3.68-.99-5.53-1.49c-.94-.25-1.88-.51-2.82-.76-.78-.21-1.65-.34-2.38-.67.22.1-.18-.12-.18-.12.09.08.1.08.03,0-.08-.08-.07-.07.03.03,0,.01.1.47.04.44-.04-.02.22-.29.21-.28.6-.69,1.27-1.32,1.9-1.98,1.34-1.4,2.69-2.8,4.03-4.19s-.78-3.52-2.12-2.12h0Z"/><path class="cls-12" d="m429.16,255.25c-25.63,8.45-53.74,16.29-80.41,7.62-3.54-1.15-6.9-2.64-10.23-4.31s-6.59-3.15-10.3-3.13c-1.93.01-1.93,3.01,0,3,3.47-.02,6.55,1.6,9.58,3.12s5.85,2.73,8.9,3.79c6.27,2.17,12.83,3.41,19.44,3.96,13.64,1.14,27.34-.89,40.55-4.21,7.85-1.98,15.58-4.42,23.27-6.95,1.83-.6,1.04-3.5-.8-2.89h0Z"/><path class="cls-12" d="m334.37,251.14c-3.99.69-7.83,2.16-11.27,4.27-.84.52-.97,1.64-.3,2.36,2.86,3.04,5.72,6.08,8.57,9.12,1.32,1.41,3.44-.71,2.12-2.12-2.86-3.04-5.72-6.08-8.57-9.12l-.3,2.36c3.25-1.99,6.8-3.32,10.56-3.97.8-.14,1.25-1.12,1.05-1.85-.23-.84-1.04-1.19-1.85-1.05h0Z"/><path class="cls-12" d="m504.31,238.98c14.02,9.09,29.12,18.65,46.41,18.79,2.13.02,4.23-.23,6.36-.35,1.86-.11,3.95-.16,5.38,1.22s3.52-.78,2.12-2.12c-2.67-2.56-6.35-2.2-9.75-1.91-4.2.36-8.43.1-12.57-.7-8.55-1.67-16.48-5.36-23.97-9.71-4.24-2.46-8.36-5.13-12.47-7.8-1.62-1.05-3.13,1.54-1.51,2.59h0Z"/><path class="cls-12" d="m493.98,167.75c7.86,13.04,15.76,26.11,25.07,38.18s19.9,23.29,32.82,31.26c7.26,4.48,15.33,7.65,23.88,8.31,1.93.15,1.92-2.85,0-3-14.86-1.14-27.78-10.46-38.27-20.39-10.73-10.16-19.58-22.08-27.63-34.43-4.59-7.04-8.94-14.24-13.28-21.44-1-1.65-3.59-.15-2.59,1.51h0Z"/><path class="cls-12" d="m542.35,188.61c4.86,7.52,10.14,14.77,15.66,21.81,5.01,6.39,10.24,13.18,17.58,17.04,4.04,2.12,8.6,3.32,13.17,2.84,1.9-.2,1.92-3.2,0-3-7.97.83-14.98-3.67-20.33-9.15-5.68-5.83-10.56-12.59-15.33-19.16-2.82-3.89-5.55-7.85-8.16-11.89-1.04-1.62-3.64-.11-2.59,1.51h0Z"/><path class="cls-12" d="m580.28,220.83c.96,2.98,3.95,3.99,6.33,5.56.13.09.26.18.39.27.14.1.14.11.01,0,.07.05.14.11.2.17.22.19.44.4.62.64-.21-.27.03.06.05.1.03.06.25.53.13.2.12.32.18.57.17.73-.04,1.49-1.56,2.74-2.82,3.65-.66.47-.98,1.3-.54,2.05.38.65,1.39,1.02,2.05.54,1.72-1.25,3.6-2.78,4.15-4.94.46-1.83-.18-3.69-1.55-4.96-1.12-1.04-2.51-1.71-3.82-2.48-.31-.18-.61-.36-.91-.56-.15-.1-.31-.21-.45-.32.24.18-.18-.16-.22-.19-.13-.12-.26-.24-.38-.37-.06-.06-.12-.13-.17-.2.1.13.1.13,0,0-.1-.14-.18-.29-.27-.44-.07-.16-.08-.16,0,0-.03-.08-.06-.17-.09-.25-.25-.77-1.04-1.27-1.85-1.05-.76.21-1.3,1.07-1.05,1.85h0Z"/><path class="cls-12" d="m571.23,238.64c2.47,3.12,5.48,5.77,8.85,7.86v-2.59c-3.13,1.4-5.98,3.35-8.45,5.73-1.39,1.34.73,3.46,2.12,2.12,2.29-2.21,4.94-3.96,7.84-5.26,1.08-.48.87-2.05,0-2.59-3.16-1.97-5.93-4.47-8.24-7.4-.5-.64-1.6-.53-2.12,0-.63.63-.5,1.48,0,2.12h0Z"/><path class="cls-12" d="m556.69,253.11c2.11,1.55,4.28,3.27,6.39,4.69-.02-.01.08.1.1.08-.04.05.06-.75,0-.36.07-.31.06-.35-.05-.12l.03-.03c-.1.08-.18.2-.26.3-.45.52-.91,1.03-1.36,1.55-.91,1.03-1.82,2.06-2.73,3.09-.54.61-.6,1.52,0,2.12.55.55,1.58.61,2.12,0,1.06-1.2,2.12-2.41,3.18-3.61s2.74-2.69,1.69-4.42c-.42-.69-1.1-1.12-1.74-1.59l-1.92-1.41c-1.31-.96-2.62-1.93-3.94-2.89-.65-.48-1.67-.11-2.05.54-.45.76-.12,1.57.54,2.05h0Z"/></g></g></g></svg>