<?xml version="1.0" encoding="UTF-8"?><svg xmlns="http://www.w3.org/2000/svg" viewBox="0 0 199.69 41.28"><defs><style>.cls-1{isolation:isolate;}.cls-2{stroke-linecap:round;stroke-linejoin:round;stroke-width:.71px;}.cls-2,.cls-3{fill:none;stroke:#231815;}.cls-4{mix-blend-mode:overlay;}.cls-4,.cls-5,.cls-6,.cls-7,.cls-8{stroke-width:0px;}.cls-4,.cls-6{fill:#fff;}.cls-3{stroke-miterlimit:10;stroke-width:.28px;}.cls-5{fill:#ea5633;}.cls-7{fill:#2c416b;}.cls-8{fill:#f5bb24;}</style></defs><g class="cls-1"><g id="_レイヤー_2"><g id="_レイヤー_6"><circle class="cls-6" cx="16.13" cy="25.15" r="16.13"/><path class="cls-5" d="m18.16,15.9c-.77-.09-1.51-.45-2.05-1.02-.26-.27-.48-.6-.56-.96-.09-.41,0-.84.18-1.22.22-.46.59-.87,1.07-1.06.25-.1.54-.15.79-.05.24.1.4.31.54.53.21.35.37.73.46,1.13,0-.34.21-.64.45-.88.45-.45,1.08-.74,1.72-.71s1.26.43,1.49,1.02c.21.54.06,1.18-.29,1.64-.27.36-.66.63-1.04.87-.68.42-1.38.79-2.12,1.1"/><path class="cls-5" d="m22.19,14.66c-.35.12-.51.52-.34.85.43.83.7,1.74.78,2.67.01.12.04.27.16.3.04,0,.07,0,.11,0,1.05-.24,2.09-.47,3.14-.71.08-.02.15-.04.21-.09.08-.07.1-.19.1-.29.07-.97-.2-1.65-.44-2.56-.04-.15-.11-.63-.37-.85-.14-.12-.55,0-.72.02-.55.07-1.09.18-1.62.32-.08.02-.58.19-1.02.34Z"/><path class="cls-8" d="m27.12,25.81c0,6.07-4.92,9.67-11,9.67s-11-3.6-11-9.67,4.92-11,11-11,11,4.92,11,11Z"/><path class="cls-2" d="m6.6,25.92c3.08-.22,4.9-.27,7.15-.16"/><path class="cls-2" d="m25.65,25.92c-3.08-.22-4.9-.27-7.15-.16"/><path class="cls-4" d="m11.54,18.68c-.76.38-1.59,1.06-2.07,1.92-.11.2-.41.23-.64.22s-.31-.06-.29-.29c.01-.12-.02-.35.02-.47.3-.96,1.43-1.84,2.39-2.49.36-.25,2-1.15,2.39-.62.37.51-1.38,1.52-1.8,1.73Z"/><path class="cls-4" d="m7.79,21.4c-.24,0-.41.25-.45.49-.02.1-.02.2.03.29.09.19.33.25.53.27.09,0,.2.01.28-.04.05-.04.08-.1.1-.16.11-.34-.09-.75-.42-.88"/><path class="cls-4" d="m16.14,13.61c.03.13.1.28.23.3.17.03.29-.14.43-.24.25-.18.63-.19.79-.46.08-.14.07-.32.04-.48-.23-1.28-1.68-.01-1.49.87Z"/><path class="cls-4" d="m23.14,14.95c-.05.05-.1.1-.11.16s.01.15.08.17c.03.01.07,0,.11,0,.32-.07.63-.22.96-.24.14,0,.27.01.41,0s.28-.07.35-.18c.02-.04.04-.08.03-.12-.11-.62-1.59,0-1.83.21Z"/><path class="cls-6" d="m28.11.51c-2.49-.91-5.4-.59-7.63.86-1.8,1.17-3.12,3.05-3.66,5.13-.15.57.41,1.09.96.86.94-.4,1.96-.62,2.99-.65.48-.01,1.01.03,1.37.35.27.24.41.6.53.94l.38,1.03c.18.5.83.63,1.2.24l.87-.94c.23-.24.53-.51.85-.41.27.09.39.39.47.66.15.5.3,1,.46,1.5.03.11.07.22.15.3.23.21.6,0,.81-.22s.47-.52.77-.45c.19.05.32.22.47.36.48.44,1.27.42,1.83.07s.91-.95,1.12-1.57c.8-2.35-.78-6.47-3.01-7.56"/><path class="cls-6" d="m4.14.51c2.49-.91,5.4-.59,7.63.86,1.8,1.17,3.12,3.05,3.66,5.13.15.57-.41,1.09-.96.86-.94-.4-1.96-.62-2.99-.65-.48-.01-1.01.03-1.37.35-.27.24-.41.6-.53.94l-.38,1.03c-.18.5-.83.63-1.2.24l-.87-.94c-.23-.24-.53-.51-.85-.41-.27.09-.39.39-.47.66-.15.5-.3,1-.46,1.5-.03.11-.07.22-.15.3-.23.21-.6,0-.81-.22s-.47-.52-.77-.45c-.19.05-.32.22-.47.36-.48.44-1.27.42-1.83.07s-.91-.95-1.12-1.57C-.59,6.22.99,2.11,3.22,1.02"/><path class="cls-7" d="m55.63,27.27h-12v-1.96h12v1.96Zm-1.21-8.35h-9.68v-1.96h9.68v1.96Z"/><path class="cls-7" d="m71.25,17.56c0,6-2.74,9.42-8.23,10.27v-1.89c2.01-.41,3.51-1.22,4.51-2.45s1.52-2.93,1.57-5.12h-7.14v3.72h-2.03v-5.62h11.32v1.08Z"/><path class="cls-7" d="m87.04,23.65c-2.46-.66-5.06-1.27-7.82-1.83v6.17h-2.1v-12.06h2.1v3.87c3.31.64,5.92,1.23,7.82,1.76v2.09Z"/><path class="cls-7" d="m94.49,23.29h-2.1v-7.05h2.1v7.05Zm8.1-2.74c0,2.53-.74,4.38-2.22,5.53-1.4,1.09-3.63,1.67-6.67,1.75v-1.89c2.35-.12,4.02-.53,5-1.21,1.17-.81,1.75-2.19,1.75-4.17v-4.32h2.13v4.31Z"/><path class="cls-7" d="m111.14,22.98h-1.95c-.24-1.64-.61-3.29-1.12-4.96h1.86c.49,1.5.9,3.15,1.21,4.96Zm7.25-4.79c0,3-.7,5.29-2.09,6.9-1.31,1.52-3.29,2.48-5.94,2.89v-1.83c2.21-.46,3.78-1.34,4.71-2.64.85-1.2,1.28-2.98,1.28-5.32v-.2h2.05v.21Zm-3.75,4.68h-1.96c-.23-1.62-.58-3.27-1.05-4.96h1.86c.43,1.3.81,2.95,1.15,4.96Z"/><path class="cls-7" d="m132.99,24.09c-1.68,2.24-4.28,3.49-7.79,3.77v-1.86c4.67-.52,7.23-3.07,7.68-7.65h-5.3c-.4,1-.98,1.87-1.73,2.63-.78.79-1.65,1.36-2.62,1.71v-2.08c1.46-.95,2.39-2.33,2.8-4.14h9.07c0,3.2-.7,5.74-2.1,7.62Z"/><path class="cls-7" d="m151.64,19.72h-2.39c-.2,2.48-.97,4.43-2.32,5.83-1.38,1.42-3.33,2.23-5.84,2.43v-1.83c1.97-.28,3.45-.96,4.44-2.05.95-1.04,1.49-2.5,1.64-4.38h-4.44c-.91,1.54-2.17,2.7-3.78,3.48v-2.09c1.56-1.11,2.6-2.85,3.1-5.22h2.03c-.1.64-.27,1.3-.5,1.96h8.06v1.86Zm-2.15-2.42h-1.24v-2.03h1.24v2.03Zm1.81,0h-1.24v-2.03h1.24v2.03Z"/><path class="cls-7" d="m166.91,22.31h-11.63v-1.95h11.63v1.95Z"/><path class="cls-7" d="m183.52,27.64h-12.37v-1.76c.55-1.06,1.18-2.57,1.88-4.52.7-1.92,1.24-3.63,1.62-5.1h2.19c-.8,2.93-1.95,6.09-3.47,9.48h7.18c-.39-1.1-1.27-3.01-2.63-5.73h2.29c1.35,2.68,2.45,5.23,3.31,7.63Z"/><path class="cls-7" d="m198.86,27.96c-2.06-.75-3.66-2.14-4.82-4.17-1.86,2.07-4.15,3.41-6.88,4.02v-1.96c1.7-.48,3.21-1.34,4.55-2.57,1.49-1.38,2.48-2.99,2.99-4.85h-6.87v-1.92h8.99v-1.11h1.17v2.1h-.92c-.28,1.61-.83,3.1-1.66,4.46.63,1.57,1.79,2.85,3.47,3.83v2.16Zm.82-10.45h-1.15v-2.1h1.15v2.1Z"/><path class="cls-3" d="m55.63,27.27h-12v-1.96h12v1.96Zm-1.21-8.35h-9.68v-1.96h9.68v1.96Z"/><path class="cls-3" d="m71.25,17.56c0,6-2.74,9.42-8.23,10.27v-1.89c2.01-.41,3.51-1.22,4.51-2.45s1.52-2.93,1.57-5.12h-7.14v3.72h-2.03v-5.62h11.32v1.08Z"/><path class="cls-3" d="m87.04,23.65c-2.46-.66-5.06-1.27-7.82-1.83v6.17h-2.1v-12.06h2.1v3.87c3.31.64,5.92,1.23,7.82,1.76v2.09Z"/><path class="cls-3" d="m94.49,23.29h-2.1v-7.05h2.1v7.05Zm8.1-2.74c0,2.53-.74,4.38-2.22,5.53-1.4,1.09-3.63,1.67-6.67,1.75v-1.89c2.35-.12,4.02-.53,5-1.21,1.17-.81,1.75-2.19,1.75-4.17v-4.32h2.13v4.31Z"/><path class="cls-3" d="m111.14,22.98h-1.95c-.24-1.64-.61-3.29-1.12-4.96h1.86c.49,1.5.9,3.15,1.21,4.96Zm7.25-4.79c0,3-.7,5.29-2.09,6.9-1.31,1.52-3.29,2.48-5.94,2.89v-1.83c2.21-.46,3.78-1.34,4.71-2.64.85-1.2,1.28-2.98,1.28-5.32v-.2h2.05v.21Zm-3.75,4.68h-1.96c-.23-1.62-.58-3.27-1.05-4.96h1.86c.43,1.3.81,2.95,1.15,4.96Z"/><path class="cls-3" d="m132.99,24.09c-1.68,2.24-4.28,3.49-7.79,3.77v-1.86c4.67-.52,7.23-3.07,7.68-7.65h-5.3c-.4,1-.98,1.87-1.73,2.63-.78.79-1.65,1.36-2.62,1.71v-2.08c1.46-.95,2.39-2.33,2.8-4.14h9.07c0,3.2-.7,5.74-2.1,7.62Z"/><path class="cls-3" d="m151.64,19.72h-2.39c-.2,2.48-.97,4.43-2.32,5.83-1.38,1.42-3.33,2.23-5.84,2.43v-1.83c1.97-.28,3.45-.96,4.44-2.05.95-1.04,1.49-2.5,1.64-4.38h-4.44c-.91,1.54-2.17,2.7-3.78,3.48v-2.09c1.56-1.11,2.6-2.85,3.1-5.22h2.03c-.1.64-.27,1.3-.5,1.96h8.06v1.86Zm-2.15-2.42h-1.24v-2.03h1.24v2.03Zm1.81,0h-1.24v-2.03h1.24v2.03Z"/><path class="cls-3" d="m166.91,22.31h-11.63v-1.95h11.63v1.95Z"/><path class="cls-3" d="m183.52,27.64h-12.37v-1.76c.55-1.06,1.18-2.57,1.88-4.52.7-1.92,1.24-3.63,1.62-5.1h2.19c-.8,2.93-1.95,6.09-3.47,9.48h7.18c-.39-1.1-1.27-3.01-2.63-5.73h2.29c1.35,2.68,2.45,5.23,3.31,7.63Z"/><path class="cls-3" d="m198.86,27.96c-2.06-.75-3.66-2.14-4.82-4.17-1.86,2.07-4.15,3.41-6.88,4.02v-1.96c1.7-.48,3.21-1.34,4.55-2.57,1.49-1.38,2.48-2.99,2.99-4.85h-6.87v-1.92h8.99v-1.11h1.17v2.1h-.92c-.28,1.61-.83,3.1-1.66,4.46.63,1.57,1.79,2.85,3.47,3.83v2.16Zm.82-10.45h-1.15v-2.1h1.15v2.1Z"/></g></g></g></svg>