<svg version="1.1" viewBox="60 10 420 400" fill="none" stroke="none" stroke-linecap="square" stroke-miterlimit="10" xmlns:xlink="http://www.w3.org/1999/xlink" xmlns="http://www.w3.org/2000/svg"><clipPath id="p.0"><path d="m0 0l1024.0 0l0 768.0l-1024.0 0l0 -768.0z" clip-rule="nonzero"/></clipPath><g clip-path="url(#p.0)"><path fill="#000000" fill-opacity="0.0" d="m0 0l1024.0 0l0 768.0l-1024.0 0z" fill-rule="evenodd"/><path fill="#cfe2f3" d="m187.91313 112.74803l0 0c1.1067657 -3.893814 5.160385 -6.1525803 9.053986 -5.0450897l28.199203 8.020912l0 0c1.8697815 0.53183746 3.4518433 1.7846985 4.398163 3.4829636c0.9463043 1.6982727 1.1793518 3.702835 0.6478729 5.572708l-14.165283 49.836243c-1.1067657 3.893814 -5.16037 6.152588 -9.053986 5.0450897l-28.199188 -8.020905c-3.8936157 -1.1074982 -6.1528015 -5.161865 -5.046036 -9.055679z" fill-rule="evenodd"/><path stroke="#000000" stroke-width="1.0" stroke-linejoin="round" stroke-linecap="butt" d="m187.91313 112.74803l0 0c1.1067657 -3.893814 5.160385 -6.1525803 9.053986 -5.0450897l28.199203 8.020912l0 0c1.8697815 0.53183746 3.4518433 1.7846985 4.398163 3.4829636c0.9463043 1.6982727 1.1793518 3.702835 0.6478729 5.572708l-14.165283 49.836243c-1.1067657 3.893814 -5.16037 6.152588 -9.053986 5.0450897l-28.199188 -8.020905c-3.8936157 -1.1074982 -6.1528015 -5.161865 -5.046036 -9.055679z" fill-rule="evenodd"/><path fill="#cfe2f3" d="m233.8649 173.2564l0 0c-0.7362976 -3.980606 1.8937225 -7.804489 5.874298 -8.540878l28.829102 -5.3332825l0 0c1.91156 -0.35362244 3.8852844 0.066589355 5.486969 1.1682129c1.6016846 1.1016083 2.7001343 2.794403 3.053711 4.705948l9.428131 50.97078c0.7362976 3.980606 -1.8937073 7.804489 -5.874298 8.540894l-28.829117 5.333267c-3.9805908 0.7364044 -7.8043823 -1.8935547 -8.54068 -5.874161z" fill-rule="evenodd"/><path stroke="#000000" stroke-width="1.0" stroke-linejoin="round" stroke-linecap="butt" d="m233.8649 173.2564l0 0c-0.7362976 -3.980606 1.8937225 -7.804489 5.874298 -8.540878l28.829102 -5.3332825l0 0c1.91156 -0.35362244 3.8852844 0.066589355 5.486969 1.1682129c1.6016846 1.1016083 2.7001343 2.794403 3.053711 4.705948l9.428131 50.97078c0.7362976 3.980606 -1.8937073 7.804489 -5.874298 8.540894l-28.829117 5.333267c-3.9805908 0.7364044 -7.8043823 -1.8935547 -8.54068 -5.874161z" fill-rule="evenodd"/><path fill="#cfe2f3" d="m330.3505 216.31941l0 0c2.5488281 -3.1452637 7.1650696 -3.6291351 10.310699 -1.0807495l22.781921 18.456512l0 0c1.5105896 1.2237701 2.4730835 2.9974365 2.6757202 4.9308014c0.20266724 1.9333649 -0.37112427 3.8680725 -1.5951233 5.378479l-32.628174 40.26352c-2.5487976 3.1452637 -7.1650696 3.6291199 -10.310699 1.0807495l-22.781921 -18.456512c-3.1455994 -2.5484009 -3.629425 -7.164032 -1.0805969 -10.309296z" fill-rule="evenodd"/><path stroke="#000000" stroke-width="1.0" stroke-linejoin="round" stroke-linecap="butt" d="m330.3505 216.31941l0 0c2.5488281 -3.1452637 7.1650696 -3.6291351 10.310699 -1.0807495l22.781921 18.456512l0 0c1.5105896 1.2237701 2.4730835 2.9974365 2.6757202 4.9308014c0.20266724 1.9333649 -0.37112427 3.8680725 -1.5951233 5.378479l-32.628174 40.26352c-2.5487976 3.1452637 -7.1650696 3.6291199 -10.310699 1.0807495l-22.781921 -18.456512c-3.1455994 -2.5484009 -3.629425 -7.164032 -1.0805969 -10.309296z" fill-rule="evenodd"/><path fill="#cfe2f3" d="m163.70996 272.49884l0 0c-3.7809448 -1.4456482 -5.673218 -5.6823425 -4.226532 -9.462891l10.477585 -27.380295l0 0c0.69473267 -1.8154755 2.0822754 -3.2808228 3.8574066 -4.0736694c1.775116 -0.7928467 3.7924042 -0.84825134 5.608078 -0.15402222l48.41823 18.512863c3.7809448 1.4456482 5.673218 5.682312 4.226532 9.46286l-10.477585 27.38031c-1.446701 3.780548 -5.68454 5.67334 -9.465485 4.2276917z" fill-rule="evenodd"/><path stroke="#000000" stroke-width="1.0" stroke-linejoin="round" stroke-linecap="butt" d="m163.70996 272.49884l0 0c-3.7809448 -1.4456482 -5.673218 -5.6823425 -4.226532 -9.462891l10.477585 -27.380295l0 0c0.69473267 -1.8154755 2.0822754 -3.2808228 3.8574066 -4.0736694c1.775116 -0.7928467 3.7924042 -0.84825134 5.608078 -0.15402222l48.41823 18.512863c3.7809448 1.4456482 5.673218 5.682312 4.226532 9.46286l-10.477585 27.38031c-1.446701 3.780548 -5.68454 5.67334 -9.465485 4.2276917z" fill-rule="evenodd"/><path fill="#cfe2f3" d="m413.4538 170.19218l0 0c3.267273 -2.3890991 7.852539 -1.6771088 10.241486 1.5902863l17.301666 23.663803l0 0c1.1471863 1.569046 1.6241455 3.529602 1.3258667 5.450348c-0.2982483 1.9207306 -1.3472595 3.644333 -2.9162598 4.7916107l-41.837463 30.592422c-3.2672424 2.3890991 -7.8525085 1.6770935 -10.241455 -1.5902863l-17.301666 -23.663803c-2.388916 -3.267395 -1.6768799 -7.8528748 1.5903625 -10.241974z" fill-rule="evenodd"/><path stroke="#000000" stroke-width="1.0" stroke-linejoin="round" stroke-linecap="butt" d="m413.4538 170.19218l0 0c3.267273 -2.3890991 7.852539 -1.6771088 10.241486 1.5902863l17.301666 23.663803l0 0c1.1471863 1.569046 1.6241455 3.529602 1.3258667 5.450348c-0.2982483 1.9207306 -1.3472595 3.644333 -2.9162598 4.7916107l-41.837463 30.592422c-3.2672424 2.3890991 -7.8525085 1.6770935 -10.241455 -1.5902863l-17.301666 -23.663803c-2.388916 -3.267395 -1.6768799 -7.8528748 1.5903625 -10.241974z" fill-rule="evenodd"/><path fill="#cfe2f3" d="m92.76923 167.23735l0 0c-1.4192047 -3.7915802 0.5044403 -8.014542 4.2965775 -9.432251l27.464294 -10.267609l0 0c1.8210526 -0.6808014 3.8382568 -0.61042786 5.607834 0.19566345c1.7695923 0.80607605 3.1466217 2.2818298 3.8281403 4.1026154l18.167694 48.537186c1.4192047 3.7915802 -0.5044403 8.014542 -4.296585 9.432251l-27.464287 10.267609c-3.7921448 1.4177094 -8.016777 -0.5066986 -9.435982 -4.298279z" fill-rule="evenodd"/><path stroke="#000000" stroke-width="1.0" stroke-linejoin="round" stroke-linecap="butt" d="m92.76923 167.23735l0 0c-1.4192047 -3.7915802 0.5044403 -8.014542 4.2965775 -9.432251l27.464294 -10.267609l0 0c1.8210526 -0.6808014 3.8382568 -0.61042786 5.607834 0.19566345c1.7695923 0.80607605 3.1466217 2.2818298 3.8281403 4.1026154l18.167694 48.537186c1.4192047 3.7915802 -0.5044403 8.014542 -4.296585 9.432251l-27.464287 10.267609c-3.7921448 1.4177094 -8.016777 -0.5066986 -9.435982 -4.298279z" fill-rule="evenodd"/><path fill="#cfe2f3" d="m302.97116 169.87617l0 0c-4.0240173 -0.44114685 -6.928894 -4.0609283 -6.48822 -8.085007l3.1915588 -29.144058l0 0c0.2116394 -1.9324341 1.1822205 -3.7015533 2.6982727 -4.9181976c1.5160522 -1.2166367 3.4533997 -1.7811203 5.385803 -1.5692749l51.50644 5.6465607c4.024048 0.44114685 6.9289246 4.0609283 6.48822 8.085007l-3.1915588 29.144058c-0.44067383 4.0240784 -4.060028 6.9286194 -8.084045 6.4874725z" fill-rule="evenodd"/><path stroke="#000000" stroke-width="1.0" stroke-linejoin="round" stroke-linecap="butt" d="m302.97116 169.87617l0 0c-4.0240173 -0.44114685 -6.928894 -4.0609283 -6.48822 -8.085007l3.1915588 -29.144058l0 0c0.2116394 -1.9324341 1.1822205 -3.7015533 2.6982727 -4.9181976c1.5160522 -1.2166367 3.4533997 -1.7811203 5.385803 -1.5692749l51.50644 5.6465607c4.024048 0.44114685 6.9289246 4.0609283 6.48822 8.085007l-3.1915588 29.144058c-0.44067383 4.0240784 -4.060028 6.9286194 -8.084045 6.4874725z" fill-rule="evenodd"/><path fill="#ffffff" d="m161.19685 322.56445l0 0c0 -4.0472717 3.28096 -7.328247 7.328232 -7.328247l29.312042 0l0 0c1.9435577 0 3.8075256 0.7720947 5.181839 2.1463928c1.3743134 1.3743286 2.1463928 3.2382812 2.1463928 5.1818542l0 51.831726c0 4.0472717 -3.28096 7.3282166 -7.328232 7.3282166l-29.312042 0c-4.0472717 0 -7.328232 -3.2809448 -7.328232 -7.3282166z" fill-rule="evenodd"/><path stroke="#000000" stroke-width="1.0" stroke-linejoin="round" stroke-linecap="butt" stroke-dasharray="1.0,3.0" d="m161.19685 322.56445l0 0c0 -4.0472717 3.28096 -7.328247 7.328232 -7.328247l29.312042 0l0 0c1.9435577 0 3.8075256 0.7720947 5.181839 2.1463928c1.3743134 1.3743286 2.1463928 3.2382812 2.1463928 5.1818542l0 51.831726c0 4.0472717 -3.28096 7.3282166 -7.328232 7.3282166l-29.312042 0c-4.0472717 0 -7.328232 -3.2809448 -7.328232 -7.3282166z" fill-rule="evenodd"/><path fill="#ffffff" d="m161.19029 327.32675l43.968506 0l0 42.015778l-43.968506 0z" fill-rule="evenodd"/><path fill="#000000" d="m184.9398 354.24677l-1.640625 0l0 -10.453125q-0.59375 0.5625 -1.5625 1.140625q-0.953125 0.5625 -1.71875 0.84375l0 -1.59375q1.375 -0.640625 2.40625 -1.5625q1.03125 -0.921875 1.453125 -1.78125l1.0625 0l0 13.40625z" fill-rule="nonzero"/><path fill="#ffffff" d="m209.8924 322.56445l0 0c0 -4.0472717 3.28096 -7.328247 7.3282166 -7.328247l29.312057 0l0 0c1.9435577 0 3.8075256 0.7720947 5.181839 2.1463928c1.3742981 1.3743286 2.1463776 3.2382812 2.1463776 5.1818542l0 51.831726c0 4.0472717 -3.28096 7.3282166 -7.3282166 7.3282166l-29.312057 0c-4.0472565 0 -7.3282166 -3.2809448 -7.3282166 -7.3282166z" fill-rule="evenodd"/><path stroke="#000000" stroke-width="1.0" stroke-linejoin="round" stroke-linecap="butt" stroke-dasharray="1.0,3.0" d="m209.8924 322.56445l0 0c0 -4.0472717 3.28096 -7.328247 7.3282166 -7.328247l29.312057 0l0 0c1.9435577 0 3.8075256 0.7720947 5.181839 2.1463928c1.3742981 1.3743286 2.1463776 3.2382812 2.1463776 5.1818542l0 51.831726c0 4.0472717 -3.28096 7.3282166 -7.3282166 7.3282166l-29.312057 0c-4.0472565 0 -7.3282166 -3.2809448 -7.3282166 -7.3282166z" fill-rule="evenodd"/><path fill="#ffffff" d="m258.58792 322.56445l0 0c0 -4.0472717 3.2809753 -7.328247 7.328247 -7.328247l29.312042 0l0 0c1.9435425 0 3.8075256 0.7720947 5.1818237 2.1463928c1.3743286 1.3743286 2.1463928 3.2382812 2.1463928 5.1818542l0 51.831726c0 4.0472717 -3.2809448 7.3282166 -7.3282166 7.3282166l-29.312042 0c-4.0472717 0 -7.328247 -3.2809448 -7.328247 -7.3282166z" fill-rule="evenodd"/><path stroke="#000000" stroke-width="1.0" stroke-linejoin="round" stroke-linecap="butt" stroke-dasharray="1.0,3.0" d="m258.58792 322.56445l0 0c0 -4.0472717 3.2809753 -7.328247 7.328247 -7.328247l29.312042 0l0 0c1.9435425 0 3.8075256 0.7720947 5.1818237 2.1463928c1.3743286 1.3743286 2.1463928 3.2382812 2.1463928 5.1818542l0 51.831726c0 4.0472717 -3.2809448 7.3282166 -7.3282166 7.3282166l-29.312042 0c-4.0472717 0 -7.328247 -3.2809448 -7.328247 -7.3282166z" fill-rule="evenodd"/><path fill="#ffffff" d="m209.88977 327.47375l43.96849 0l0 42.015747l-43.96849 0z" fill-rule="evenodd"/><path fill="#000000" d="m236.07678 352.8156l0 1.578125l-8.828125 0q-0.015625 -0.59375 0.1875 -1.140625q0.34375 -0.90625 1.078125 -1.78125q0.75 -0.875 2.15625 -2.015625q2.171875 -1.78125 2.9375 -2.828125q0.765625 -1.046875 0.765625 -1.96875q0 -0.984375 -0.703125 -1.640625q-0.6875 -0.671875 -1.8125 -0.671875q-1.1875 0 -1.90625 0.71875q-0.703125 0.703125 -0.703125 1.953125l-1.6875 -0.171875q0.171875 -1.890625 1.296875 -2.875q1.140625 -0.984375 3.03125 -0.984375q1.921875 0 3.046875 1.0625q1.125 1.0625 1.125 2.640625q0 0.796875 -0.328125 1.578125q-0.328125 0.78125 -1.09375 1.640625q-0.75 0.84375 -2.53125 2.34375q-1.46875 1.234375 -1.890625 1.6875q-0.421875 0.4375 -0.6875 0.875l6.546875 0z" fill-rule="nonzero"/><path fill="#ffffff" d="m258.58923 327.32675l43.968506 0l0 42.015778l-43.968506 0z" fill-rule="evenodd"/><path fill="#000000" d="m276.16687 350.7155l1.640625 -0.21875q0.28125 1.40625 0.953125 2.015625q0.6875 0.609375 1.65625 0.609375q1.15625 0 1.953125 -0.796875q0.796875 -0.796875 0.796875 -1.984375q0 -1.125 -0.734375 -1.859375q-0.734375 -0.734375 -1.875 -0.734375q-0.46875 0 -1.15625 0.171875l0.1875 -1.4375q0.15625 0.015625 0.265625 0.015625q1.046875 0 1.875 -0.546875q0.84375 -0.546875 0.84375 -1.671875q0 -0.90625 -0.609375 -1.5q-0.609375 -0.59375 -1.578125 -0.59375q-0.953125 0 -1.59375 0.609375q-0.640625 0.59375 -0.8125 1.796875l-1.640625 -0.296875q0.296875 -1.640625 1.359375 -2.546875q1.0625 -0.90625 2.65625 -0.90625q1.09375 0 2.0 0.46875q0.921875 0.46875 1.40625 1.28125q0.5 0.8125 0.5 1.71875q0 0.859375 -0.46875 1.578125q-0.46875 0.703125 -1.375 1.125q1.1875 0.28125 1.84375 1.140625q0.65625 0.859375 0.65625 2.15625q0 1.734375 -1.28125 2.953125q-1.265625 1.21875 -3.21875 1.21875q-1.765625 0 -2.921875 -1.046875q-1.15625 -1.046875 -1.328125 -2.71875z" fill-rule="nonzero"/><path fill="#ffffff" d="m302.5525 83.72689l0 0c0 4.047264 -3.2809448 7.328224 -7.3282166 7.328224l-29.312042 0l0 0c-1.943573 0 -3.8075562 -0.77207947 -5.1818542 -2.1463852c-1.3742981 -1.3743134 -2.1463928 -3.2382736 -2.1463928 -5.181839l0 -51.831734c0 -4.04727 3.2809753 -7.32823 7.328247 -7.32823l29.312042 0c4.0472717 0 7.3282166 3.28096 7.3282166 7.32823z" fill-rule="evenodd"/><path stroke="#000000" stroke-width="1.0" stroke-linejoin="round" stroke-linecap="butt" stroke-dasharray="1.0,3.0" d="m302.5525 83.72689l0 0c0 4.047264 -3.2809448 7.328224 -7.3282166 7.328224l-29.312042 0l0 0c-1.943573 0 -3.8075562 -0.77207947 -5.1818542 -2.1463852c-1.3742981 -1.3743134 -2.1463928 -3.2382736 -2.1463928 -5.181839l0 -51.831734c0 -4.04727 3.2809753 -7.32823 7.328247 -7.32823l29.312042 0c4.0472717 0 7.3282166 3.28096 7.3282166 7.32823z" fill-rule="evenodd"/><path fill="#ffffff" d="m302.55905 78.96457l-43.968506 0l0 -42.015743l43.968506 0z" fill-rule="evenodd"/><path fill="#000000" d="m278.80954 52.044575l1.640625 0l0 10.453125q0.59375 -0.5625 1.5625 -1.140625q0.953125 -0.5625 1.71875 -0.84375l0 1.59375q-1.375 0.640625 -2.40625 1.5625q-1.03125 0.9218712 -1.453125 1.7812462l-1.0625 0l0 -13.406246z" fill-rule="nonzero"/><path fill="#ffffff" d="m253.85695 83.72689l0 0c0 4.047264 -3.28096 7.328224 -7.3282166 7.328224l-29.312057 0l0 0c-1.9435577 0 -3.8075256 -0.77207947 -5.181839 -2.1463852c-1.3742981 -1.3743134 -2.1463776 -3.2382736 -2.1463776 -5.181839l0 -51.831734c0 -4.04727 3.28096 -7.32823 7.3282166 -7.32823l29.312057 0c4.0472565 0 7.3282166 3.28096 7.3282166 7.32823z" fill-rule="evenodd"/><path stroke="#000000" stroke-width="1.0" stroke-linejoin="round" stroke-linecap="butt" stroke-dasharray="1.0,3.0" d="m253.85695 83.72689l0 0c0 4.047264 -3.28096 7.328224 -7.3282166 7.328224l-29.312057 0l0 0c-1.9435577 0 -3.8075256 -0.77207947 -5.181839 -2.1463852c-1.3742981 -1.3743134 -2.1463776 -3.2382736 -2.1463776 -5.181839l0 -51.831734c0 -4.04727 3.28096 -7.32823 7.3282166 -7.32823l29.312057 0c4.0472565 0 7.3282166 3.28096 7.3282166 7.32823z" fill-rule="evenodd"/><path fill="#ffffff" d="m205.16142 83.72689l0 0c0 4.047264 -3.28096 7.328224 -7.328232 7.328224l-29.312042 0l0 0c-1.943573 0 -3.807541 -0.77207947 -5.181839 -2.1463852c-1.3743134 -1.3743134 -2.1463928 -3.2382736 -2.1463928 -5.181839l0 -51.831734c0 -4.04727 3.28096 -7.32823 7.328232 -7.32823l29.312042 0c4.0472717 0 7.328232 3.28096 7.328232 7.32823z" fill-rule="evenodd"/><path stroke="#000000" stroke-width="1.0" stroke-linejoin="round" stroke-linecap="butt" stroke-dasharray="1.0,3.0" d="m205.16142 83.72689l0 0c0 4.047264 -3.28096 7.328224 -7.328232 7.328224l-29.312042 0l0 0c-1.943573 0 -3.807541 -0.77207947 -5.181839 -2.1463852c-1.3743134 -1.3743134 -2.1463928 -3.2382736 -2.1463928 -5.181839l0 -51.831734c0 -4.04727 3.28096 -7.32823 7.328232 -7.32823l29.312042 0c4.0472717 0 7.328232 3.28096 7.328232 7.32823z" fill-rule="evenodd"/><path fill="#ffffff" d="m253.85957 78.81759l-43.96849 0l0 -42.015747l43.96849 0z" fill-rule="evenodd"/><path fill="#000000" d="m227.67256 53.475716l0 -1.578125l8.828125 0q0.015625 0.59375 -0.1875 1.140625q-0.34375 0.90625 -1.078125 1.78125q-0.75 0.875 -2.15625 2.015625q-2.171875 1.78125 -2.9375 2.828125q-0.765625 1.046875 -0.765625 1.96875q0 0.984375 0.703125 1.640625q0.6875 0.671875 1.8125 0.671875q1.1875 0 1.90625 -0.71875q0.703125 -0.703125 0.703125 -1.953125l1.6875 0.171875q-0.171875 1.890625 -1.296875 2.875q-1.140625 0.984375 -3.03125 0.984375q-1.921875 0 -3.046875 -1.0625q-1.125 -1.0625 -1.125 -2.640625q0 -0.796875 0.328125 -1.578125q0.328125 -0.78125 1.09375 -1.640625q0.75 -0.84375 2.53125 -2.34375q1.46875 -1.234375 1.890625 -1.6875q0.421875 -0.4375 0.6875 -0.875l-6.546875 0z" fill-rule="nonzero"/><path fill="#ffffff" d="m205.16011 78.96457l-43.968506 0l0 -42.015743l43.968506 0z" fill-rule="evenodd"/><path fill="#000000" d="m187.58246 55.575825l-1.640625 0.21875q-0.28125 -1.40625 -0.953125 -2.015625q-0.6875 -0.609375 -1.65625 -0.609375q-1.15625 0 -1.953125 0.796875q-0.796875 0.796875 -0.796875 1.984375q0 1.125 0.734375 1.859375q0.734375 0.734375 1.875 0.734375q0.46875 0 1.15625 -0.171875l-0.1875 1.4375q-0.15625 -0.015625 -0.265625 -0.015625q-1.046875 0 -1.875 0.546875q-0.84375 0.546875 -0.84375 1.671875q0 0.90625 0.609375 1.5q0.609375 0.5937462 1.578125 0.5937462q0.953125 0 1.59375 -0.6093712q0.640625 -0.59375 0.8125 -1.796875l1.640625 0.296875q-0.296875 1.640625 -1.359375 2.5468712q-1.0625 0.90625 -2.65625 0.90625q-1.09375 0 -2.0 -0.46875q-0.921875 -0.46875 -1.40625 -1.2812462q-0.5 -0.8125 -0.5 -1.71875q0 -0.859375 0.46875 -1.578125q0.46875 -0.703125 1.375 -1.125q-1.1875 -0.28125 -1.84375 -1.140625q-0.65625 -0.859375 -0.65625 -2.15625q0 -1.734375 1.28125 -2.953125q1.265625 -1.21875 3.21875 -1.21875q1.765625 0 2.921875 1.046875q1.15625 1.046875 1.328125 2.71875z" fill-rule="nonzero"/><path fill="#000000" fill-opacity="0.0" d="m100.87664 105.698166l70.86614 0l0 42.015747l-70.86614 0z" fill-rule="evenodd"/><path fill="#000000" d="m114.78289 128.30566l1.84375 -0.65625l0.375 0.953125q1.703125 -1.109375 2.53125 -2.59375l-2.96875 0l0 -1.40625l11.203125 0l0 1.40625l-6.75 0q-0.296875 0.59375 -0.59375 0.96875l6.890625 0l-0.4375 5.421875q-0.15625 1.703125 -1.484375 1.703125l-1.78125 0l-0.21875 -1.40625l1.40625 0q0.515625 0 0.59375 -0.53125l0.375 -3.78125l-0.828125 0q-1.328125 5.046875 -7.484375 6.09375l-0.453125 -1.40625q5.265625 -0.96875 6.453125 -4.6875l-1.25 0q-1.34375 3.1875 -4.984375 3.859375l-0.4375 -1.1875q2.96875 -0.734375 3.9375 -2.671875l-1.125 0q-1.546875 1.40625 -2.4375 1.859375l-0.59375 -1.109375l-4.6875 1.84375q-0.0625 0.53125 -0.359375 0.234375l-0.59375 -1.640625l2.375 -0.671875l0 -5.640625l-2.3125 0l0 -1.40625l2.3125 0l0 -4.234375l1.40625 0q0.59375 0.078125 0.078125 0.453125l0 3.78125l2.21875 0l0 1.40625l-2.21875 0l0 5.046875zm3.265625 -4.59375l0 -6.015625l7.78125 0l0 6.015625l-7.78125 0zm1.484375 -3.484375l4.8125 0l0 -1.34375l-4.8125 0l0 1.34375zm0 2.296875l4.8125 0l0 -1.109375l-4.8125 0l0 1.109375z" fill-rule="nonzero"/><path fill="#000000" fill-opacity="0.0" d="m302.8819 350.53412l126.80313 0l0 42.015747l-126.80313 0z" fill-rule="evenodd"/><path fill="#000000" d="m326.21002 368.46976l0 -2.453125l-9.359375 0l0 2.453125l9.359375 0zm0 1.40625l-9.359375 0l0 2.53125l9.359375 0l0 -2.53125zm0 6.6875l0 -2.75l-9.359375 0l0 2.75l9.359375 0zm-6.234375 -11.953125l0.671875 -2.59375l1.78125 0.375q0.296875 0.296875 -0.234375 0.359375l-0.8125 1.859375l6.3125 0l0 14.03125l-1.484375 0l0 -0.671875l-9.359375 0l0 0.890625l-1.484375 0l0 -14.25l4.609375 0zm25.453125 4.96875l-0.296875 6.015625q-0.140625 3.125 -2.15625 3.125l-2.21875 0l-0.21875 -1.640625l1.84375 0q0.96875 0 1.046875 -1.265625l0.296875 -4.8125l-4.078125 0l-0.078125 0.59375q-0.515625 4.078125 -5.859375 7.5l-1.125 -1.421875q4.828125 -2.75 5.34375 -5.78125l0.15625 -0.890625l-2.828125 0l0 -1.421875l10.171875 0zm-6.671875 -5.859375q-1.78125 3.859375 -5.71875 7.046875l-1.1875 -1.40625q3.859375 -2.671875 5.640625 -6.90625l1.40625 0.890625q0.453125 0.296875 -0.140625 0.375zm9.203125 7.046875q-4.09375 -2.375 -6.015625 -7.78125l1.40625 -0.59375q1.78125 4.75 5.71875 6.828125l-1.109375 1.546875zm12.171875 -3.78125q-1.265625 7.421875 -3.046875 9.203125q-0.96875 0.96875 -2.0 0.96875q-1.1875 0 -1.859375 -0.671875q-1.78125 -1.78125 -1.78125 -4.453125q0 -3.265625 2.296875 -5.5625q2.53125 -2.53125 6.15625 -2.53125q3.265625 0 5.125 1.859375q2.078125 2.078125 2.078125 4.90625q0 3.03125 -1.921875 4.96875q-1.265625 1.265625 -3.859375 2.453125l-1.5625 -1.5625q2.59375 -0.8125 4.078125 -2.296875q1.40625 -1.421875 1.40625 -3.421875q0 -2.375 -1.546875 -3.9375q-1.5625 -1.546875 -4.90625 -1.40625l1.34375 0.671875q0.890625 0.375 0 0.8125zm-1.71875 -1.40625q-1.921875 0.4375 -3.328125 1.859375q-1.9375 1.921875 -1.9375 4.75q0 1.703125 1.109375 2.8125q0.234375 0.21875 0.671875 0.21875q0.453125 0 0.96875 -0.515625q1.703125 -1.703125 2.515625 -9.125zm12.84375 -1.484375q6.390625 -0.078125 12.09375 -1.484375l0.96875 1.1875q0.515625 0.671875 -0.375 0.4375q-2.375 0.53125 -4.75 0.75l0 2.671875l5.875 0l0 1.40625l-5.875 0l0 2.53125l7.421875 0l0 1.40625l-7.421875 0l0 4.453125q0 1.34375 -1.25 1.34375l-1.9375 0l-0.375 -1.640625l1.859375 0q0.21875 0 0.21875 -0.21875l0 -3.9375l-7.5625 0l0 -1.40625l7.5625 0l0 -2.53125l-6.0 0l0 -1.40625l6.0 0l0 -2.453125q-3.109375 0.296875 -6.078125 0.296875l-0.375 -1.40625zm23.3125 14.765625l-1.484375 0l0 -7.34375q-0.53125 1.625 -2.90625 4.0l-1.03125 -1.625q2.515625 -1.859375 3.9375 -6.15625l-3.203125 0l0 -1.640625l3.203125 0l0 -3.640625l1.40625 0q0.734375 0.15625 0.078125 0.59375l0 3.046875l3.328125 0l0 1.640625l-3.328125 0l0 1.78125q2.140625 1.109375 3.484375 2.140625l-0.8125 1.78125q-1.34375 -1.25 -2.671875 -2.140625l0 7.5625zm11.34375 -3.859375l-0.4375 1.9375q-0.375 1.625 -2.234375 1.625l-2.515625 0q-1.34375 0 -1.34375 -1.40625l0 -14.328125l1.640625 0q0.734375 0.15625 0.078125 0.59375l0 12.921875q0 0.59375 0.515625 0.59375l1.328125 0q0.75 0 0.890625 -0.671875l0.375 -1.9375l1.703125 0.671875z" fill-rule="nonzero"/><path fill="#000000" fill-opacity="0.0" d="m303.37042 16.565943l133.95276 0l0 42.015747l-133.95276 0z" fill-rule="evenodd"/><path fill="#000000" d="m321.05792 33.017193l-2.890625 0l0 2.15625q1.84375 1.03125 3.03125 2.515625l-0.8125 1.34375q-1.109375 -1.40625 -2.21875 -2.15625l0 8.171875l-1.484375 0l0 -8.25q-0.96875 2.234375 -2.53125 3.640625l-0.96875 -1.265625q2.75 -2.890625 3.5 -6.15625l-3.046875 0l0 -1.4062519l3.046875 0l0 -3.34375l1.40625 0q0.59375 0.078125 0.078125 0.453125l0 2.890625l2.890625 0l0 1.4062519zm0.671875 -3.406252l7.71875 0l0 15.062502l-1.484375 0l0 -0.671875l-4.75 0l0 1.125l-1.484375 0l0 -15.515627zm1.484375 1.40625l0 2.812502l4.75 0l0 -2.812502l-4.75 0zm0 4.234377l0 2.890625l4.75 0l0 -2.890625l-4.75 0zm0 7.34375l4.75 0l0 -3.046875l-4.75 0l0 3.046875zm10.53125 -12.468752q6.390625 -0.078125 12.09375 -1.484375l0.96875 1.1875q0.515625 0.671875 -0.375 0.4375q-2.375 0.53125 -4.75 0.75l0 2.671877l5.875 0l0 1.40625l-5.875 0l0 2.53125l7.421875 0l0 1.40625l-7.421875 0l0 4.453125q0 1.34375 -1.25 1.34375l-1.9375 0l-0.375 -1.640625l1.859375 0q0.21875 0 0.21875 -0.21875l0 -3.9375l-7.5625 0l0 -1.40625l7.5625 0l0 -2.53125l-6.0 0l0 -1.40625l6.0 0l0 -2.453127q-3.109375 0.296875 -6.078125 0.296875l-0.375 -1.40625zm26.875 2.890627q-1.265625 7.421875 -3.046875 9.203125q-0.96875 0.96875 -2.0 0.96875q-1.1875 0 -1.859375 -0.671875q-1.78125 -1.78125 -1.78125 -4.453125q0 -3.265625 2.296875 -5.5625q2.53125 -2.531252 6.15625 -2.531252q3.265625 0 5.125 1.859375q2.078125 2.078127 2.078125 4.906252q0 3.03125 -1.921875 4.96875q-1.265625 1.265625 -3.859375 2.453125l-1.5625 -1.5625q2.59375 -0.8125 4.078125 -2.296875q1.40625 -1.421875 1.40625 -3.421875q0 -2.375 -1.546875 -3.9375q-1.5625 -1.5468769 -4.90625 -1.4062519l1.34375 0.6718769q0.890625 0.375 0 0.8125zm-1.71875 -1.4062519q-1.921875 0.4375019 -3.328125 1.8593769q-1.9375 1.921875 -1.9375 4.75q0 1.703125 1.109375 2.8125q0.234375 0.21875 0.671875 0.21875q0.453125 0 0.96875 -0.515625q1.703125 -1.703125 2.515625 -9.125002zm12.84375 -1.484375q6.390625 -0.078125 12.09375 -1.484375l0.96875 1.1875q0.515625 0.671875 -0.375 0.4375q-2.375 0.53125 -4.75 0.75l0 2.671877l5.875 0l0 1.40625l-5.875 0l0 2.53125l7.421875 0l0 1.40625l-7.421875 0l0 4.453125q0 1.34375 -1.25 1.34375l-1.9375 0l-0.375 -1.640625l1.859375 0q0.21875 0 0.21875 -0.21875l0 -3.9375l-7.5625 0l0 -1.40625l7.5625 0l0 -2.53125l-6.0 0l0 -1.40625l6.0 0l0 -2.453127q-3.109375 0.296875 -6.078125 0.296875l-0.375 -1.40625zm23.3125 14.765627l-1.484375 0l0 -7.34375q-0.53125 1.625 -2.90625 4.0l-1.03125 -1.625q2.515625 -1.859375 3.9375 -6.15625l-3.203125 0l0 -1.640625l3.203125 0l0 -3.640627l1.40625 0q0.734375 0.15625 0.078125 0.59375l0 3.046877l3.328125 0l0 1.640625l-3.328125 0l0 1.78125q2.140625 1.109375 3.484375 2.140625l-0.8125 1.78125q-1.34375 -1.25 -2.671875 -2.140625l0 7.5625zm11.34375 -3.859375l-0.4375 1.9375q-0.375 1.625 -2.234375 1.625l-2.515625 0q-1.34375 0 -1.34375 -1.40625l0 -14.328127l1.640625 0q0.734375 0.15625 0.078125 0.59375l0 12.921877q0 0.59375 0.515625 0.59375l1.328125 0q0.75 0 0.890625 -0.671875l0.375 -1.9375l1.703125 0.671875z" fill-rule="nonzero"/></g></svg>
